<svg xmlns="http://www.w3.org/2000/svg" xmlns:xlink="http://www.w3.org/1999/xlink" width="3099" zoomAndPan="magnify" viewBox="0 0 2324.25 1587.749936" height="2116" preserveAspectRatio="xMidYMid meet" version="1.0"><defs><clipPath id="c1cfb03af2"><path d="M 370 0.132812 L 1953 0.132812 L 1953 1583 L 370 1583 Z M 370 0.132812 " clip-rule="nonzero"/></clipPath></defs><g clip-path="url(#c1cfb03af2)"><path fill="#132a13" d="M 1942.660156 1032.179688 C 1858.625 955.667969 1735.191406 940.914062 1635.519531 995.511719 L 1577.03125 1027.539062 C 1533.207031 875.742188 1409.054688 758.792969 1254.617188 724.269531 L 1254.617188 570.125 C 1348.964844 565.589844 1439.699219 525.949219 1507.105469 458.546875 C 1583.429688 382.222656 1625.304688 279.128906 1621.984375 175.699219 C 1621.460938 159.34375 1608.324219 146.203125 1591.964844 145.679688 C 1484.847656 142.238281 1380.578125 183.003906 1306.066406 257.511719 C 1286.523438 277.054688 1269.328125 298.589844 1254.617188 321.605469 L 1254.617188 94.710938 C 1254.617188 42.558594 1213.675781 0.132812 1161.523438 0.132812 C 1109.371094 0.132812 1068.433594 42.5625 1068.433594 94.710938 L 1068.433594 323.191406 C 1053.722656 300.175781 1036.527344 278.644531 1016.984375 259.097656 C 942.472656 184.589844 838.3125 143.847656 731.085938 147.265625 C 714.730469 147.789062 701.589844 160.925781 701.0625 177.285156 C 697.75 280.714844 739.621094 383.8125 815.945312 460.132812 C 881.375 525.5625 971.320312 567.054688 1068.429688 571.714844 L 1068.429688 723.367188 C 962.25 745.953125 868.136719 808.117188 804.675781 898.054688 L 804.675781 868.976562 C 804.675781 851.84375 790.777344 837.949219 773.644531 837.949219 L 556.433594 837.949219 C 541.945312 837.949219 529.382812 847.96875 526.175781 862.101562 L 371.023438 1544.765625 C 366.609375 1564.171875 381.394531 1582.671875 401.285156 1582.671875 L 773.648438 1582.671875 C 790.78125 1582.671875 804.675781 1568.777344 804.675781 1551.644531 L 804.675781 1496.945312 C 1044.855469 1548.476562 1192.707031 1580.203125 1193.003906 1580.261719 C 1227.5 1587.167969 1262.902344 1578.898438 1290.507812 1558.8125 L 1940.171875 1080.132812 C 1955.925781 1068.527344 1957.125 1045.355469 1942.660156 1032.179688 Z M 634.011719 1427.523438 C 634.011719 1444.65625 620.117188 1458.550781 602.980469 1458.550781 C 585.847656 1458.550781 571.949219 1444.65625 571.949219 1427.523438 L 571.949219 1365.460938 C 571.949219 1348.328125 585.847656 1334.429688 602.980469 1334.429688 C 620.117188 1334.429688 634.011719 1348.328125 634.011719 1365.460938 Z M 1130.496094 94.710938 C 1130.496094 76.777344 1143.59375 62.191406 1161.523438 62.191406 C 1179.457031 62.191406 1192.554688 76.777344 1192.554688 94.710938 L 1192.554688 715.082031 C 1172.175781 713.550781 1152.144531 713.375 1130.496094 714.796875 Z M 1159.667969 775.886719 C 1330.464844 775.886719 1480.179688 893.785156 1521.023438 1058.207031 L 1409.589844 1119.222656 C 1388.246094 1080.683594 1347.347656 1055.160156 1301.160156 1055.160156 L 1120.730469 1055.160156 C 1090.863281 1044.082031 953.367188 995.898438 818.105469 999.90625 C 877.1875 864.53125 1013.273438 775.886719 1159.667969 775.886719 Z M 1253.847656 1508.742188 C 1239.917969 1518.871094 1222.25 1522.773438 1205.363281 1519.441406 L 804.675781 1433.472656 L 804.675781 1062.996094 C 945.273438 1054.019531 1101.886719 1114.921875 1103.539062 1115.570312 C 1107.183594 1117.019531 1111.0625 1117.214844 1114.984375 1117.214844 L 1301.164062 1117.214844 C 1331.21875 1117.214844 1356.796875 1139.046875 1362.125 1168.433594 C 1368.683594 1210.582031 1336.363281 1241.335938 1299.375 1241.335938 L 1021.890625 1241.335938 C 1004.757812 1241.335938 990.863281 1255.234375 990.863281 1272.367188 C 990.863281 1289.503906 1004.757812 1303.398438 1021.890625 1303.398438 L 1299.375 1303.398438 C 1370.605469 1303.398438 1424.632812 1246.234375 1425.296875 1181.507812 L 1665.339844 1050.007812 C 1730.265625 1014.4375 1808.34375 1017.226562 1869.882812 1054.84375 Z M 1253.847656 1508.742188 " fill-opacity="1" fill-rule="nonzero"/></g></svg>