<svg xmlns="http://www.w3.org/2000/svg" xmlns:xlink="http://www.w3.org/1999/xlink" width="3099" zoomAndPan="magnify" viewBox="0 0 2324.25 1587.749936" height="2116" preserveAspectRatio="xMidYMid meet" version="1.0"><defs><clipPath id="76da016b71"><path d="M 326 626 L 1997.953125 626 L 1997.953125 1575 L 326 1575 Z M 326 626 " clip-rule="nonzero"/></clipPath></defs><path fill="#132a13" d="M 798.398438 933.066406 C 690.753906 933.066406 603.152344 845.464844 603.152344 737.820312 C 603.152344 722.300781 604.980469 706.78125 608.605469 691.757812 L 717.0625 243.921875 C 726.230469 206.269531 759.675781 179.988281 798.398438 179.988281 C 837.125 179.988281 870.511719 206.210938 879.707031 243.773438 L 988.132812 691.671875 C 991.789062 706.695312 993.644531 722.242188 993.644531 737.820312 C 993.644531 845.464844 906.042969 933.066406 798.398438 933.066406 Z M 798.398438 235.796875 C 785.460938 235.796875 774.324219 244.527344 771.277344 257.089844 L 662.851562 704.867188 C 660.269531 715.601562 658.964844 726.710938 658.964844 737.820312 C 658.964844 814.71875 721.53125 877.285156 798.429688 877.285156 C 875.324219 877.285156 937.894531 814.71875 937.894531 737.820312 C 937.894531 726.652344 936.589844 715.570312 933.976562 704.867188 C 933.976562 704.867188 825.550781 256.972656 825.550781 256.972656 C 822.503906 244.527344 811.367188 235.769531 798.457031 235.769531 Z M 798.398438 235.796875 " fill-opacity="1" fill-rule="nonzero"/><path fill="#132a13" d="M 770.523438 821.503906 L 826.304688 821.503906 L 826.304688 1044.625 L 770.523438 1044.625 Z M 770.523438 821.503906 " fill-opacity="1" fill-rule="nonzero"/><path fill="#132a13" d="M 1216.765625 654.136719 C 1139.867188 654.136719 1077.300781 591.566406 1077.300781 514.671875 C 1077.300781 437.773438 1139.867188 375.207031 1216.765625 375.207031 C 1293.664062 375.207031 1356.230469 437.773438 1356.230469 514.671875 C 1356.230469 591.566406 1293.664062 654.136719 1216.765625 654.136719 Z M 1216.765625 431.015625 C 1170.617188 431.015625 1133.082031 468.550781 1133.082031 514.699219 C 1133.082031 560.847656 1170.617188 598.382812 1216.765625 598.382812 C 1262.914062 598.382812 1300.449219 560.847656 1300.449219 514.699219 C 1300.449219 468.550781 1262.914062 431.015625 1216.765625 431.015625 Z M 1216.765625 431.015625 " fill-opacity="1" fill-rule="nonzero"/><path fill="#132a13" d="M 1188.890625 626.261719 L 1244.671875 626.261719 L 1244.671875 709.945312 L 1188.890625 709.945312 Z M 1188.890625 626.261719 " fill-opacity="1" fill-rule="nonzero"/><path fill="#132a13" d="M 1412.011719 737.820312 C 1335.113281 737.820312 1272.546875 675.253906 1272.546875 598.355469 C 1272.546875 593.945312 1272.777344 589.59375 1273.183594 585.300781 L 1328.703125 590.640625 C 1328.472656 593.164062 1328.355469 595.746094 1328.355469 598.355469 C 1328.355469 644.503906 1365.890625 682.039062 1412.039062 682.039062 C 1458.191406 682.039062 1495.726562 644.503906 1495.726562 598.355469 C 1495.726562 552.207031 1458.191406 514.671875 1412.039062 514.671875 C 1387.820312 514.671875 1364.816406 525.171875 1348.890625 543.472656 L 1306.773438 506.867188 C 1333.285156 476.382812 1371.632812 458.890625 1412.011719 458.890625 C 1488.910156 458.890625 1551.476562 521.457031 1551.476562 598.355469 C 1551.476562 675.253906 1488.910156 737.820312 1412.011719 737.820312 Z M 1412.011719 737.820312 " fill-opacity="1" fill-rule="nonzero"/><path fill="#132a13" d="M 1384.105469 709.945312 L 1439.886719 709.945312 L 1439.886719 793.628906 L 1384.105469 793.628906 Z M 1384.105469 709.945312 " fill-opacity="1" fill-rule="nonzero"/><path fill="#132a13" d="M 1172.53125 1156.273438 C 1166.960938 1156.273438 1161.128906 1156.273438 1155.097656 1156.273438 L 1133.082031 1156.214844 C 1121.1875 1156.214844 1108.511719 1153.75 1095.488281 1148.933594 L 1114.835938 1096.636719 C 1121.652344 1099.128906 1127.800781 1100.4375 1133.082031 1100.4375 L 1155.242188 1100.492188 C 1246.699219 1100.40625 1260.59375 1100.8125 1308.601562 1052.835938 C 1338.421875 1023.015625 1356.203125 988.699219 1356.203125 961 C 1356.203125 921.492188 1308.484375 877.316406 1244.640625 877.316406 C 1158.636719 877.316406 1105.175781 845.261719 1105.175781 793.628906 C 1105.175781 763.054688 1011.398438 737.761719 963.507812 737.761719 L 963.507812 681.980469 C 1002.664062 681.980469 1160.957031 701.851562 1160.957031 793.628906 C 1160.957031 807.03125 1192.953125 821.535156 1244.640625 821.535156 C 1343.265625 821.535156 1411.980469 895.007812 1411.980469 961 C 1411.980469 1003.785156 1388.660156 1051.644531 1348.023438 1092.285156 C 1287.804688 1152.503906 1253.257812 1156.332031 1172.5 1156.332031 Z M 1172.53125 1156.273438 " fill-opacity="1" fill-rule="nonzero"/><path fill="#132a13" d="M 1002.753906 1083.4375 C 947.957031 1028.703125 894.152344 948.875 868.914062 884.855469 L 920.835938 864.378906 C 943.171875 921.085938 993.066406 994.9375 1042.203125 1043.960938 L 1002.753906 1083.464844 Z M 1002.753906 1083.4375 " fill-opacity="1" fill-rule="nonzero"/><path fill="#132a13" d="M 922.015625 600.589844 L 939.640625 547.699219 L 1046.359375 583.261719 L 1028.734375 636.152344 Z M 922.015625 600.589844 " fill-opacity="1" fill-rule="nonzero"/><path fill="#132a13" d="M 1551.066406 809.292969 L 1569.171875 756.503906 L 1680.597656 794.71875 L 1662.492188 847.507812 Z M 1551.066406 809.292969 " fill-opacity="1" fill-rule="nonzero"/><path fill="#132a13" d="M 1886.15625 207.894531 L 1830.378906 207.894531 L 1830.378906 263.671875 L 1886.15625 263.671875 Z M 1886.15625 207.894531 " fill-opacity="1" fill-rule="nonzero"/><path fill="#132a13" d="M 1830.378906 347.359375 L 1774.597656 347.359375 L 1774.597656 403.140625 L 1830.378906 403.140625 Z M 1830.378906 347.359375 " fill-opacity="1" fill-rule="nonzero"/><path fill="#132a13" d="M 1690.914062 12.648438 L 1635.132812 12.648438 L 1635.132812 68.429688 L 1690.914062 68.429688 Z M 1690.914062 12.648438 " fill-opacity="1" fill-rule="nonzero"/><path fill="#132a13" d="M 1495.695312 207.894531 L 1439.914062 207.894531 L 1439.914062 263.671875 L 1495.695312 263.671875 Z M 1495.695312 207.894531 " fill-opacity="1" fill-rule="nonzero"/><path fill="#132a13" d="M 1551.476562 68.429688 L 1495.695312 68.429688 L 1495.695312 124.207031 L 1551.476562 124.207031 Z M 1551.476562 68.429688 " fill-opacity="1" fill-rule="nonzero"/><path fill="#132a13" d="M 1830.378906 68.429688 L 1774.597656 68.429688 L 1774.597656 124.207031 L 1830.378906 124.207031 Z M 1830.378906 68.429688 " fill-opacity="1" fill-rule="nonzero"/><path fill="#132a13" d="M 1551.476562 347.359375 L 1495.695312 347.359375 L 1495.695312 403.140625 L 1551.476562 403.140625 Z M 1551.476562 347.359375 " fill-opacity="1" fill-rule="nonzero"/><path fill="#132a13" d="M 1690.914062 403.140625 L 1635.132812 403.140625 L 1635.132812 458.917969 L 1690.914062 458.917969 Z M 1690.914062 403.140625 " fill-opacity="1" fill-rule="nonzero"/><path fill="#132a13" d="M 491.59375 1351.433594 L 435.8125 1351.433594 L 435.8125 1407.210938 L 491.59375 1407.210938 Z M 491.59375 1351.433594 " fill-opacity="1" fill-rule="nonzero"/><path fill="#132a13" d="M 658.933594 1518.773438 L 603.152344 1518.773438 L 603.152344 1574.554688 L 658.933594 1574.554688 Z M 658.933594 1518.773438 " fill-opacity="1" fill-rule="nonzero"/><path fill="#132a13" d="M 547.375 1462.992188 L 491.59375 1462.992188 L 491.59375 1518.773438 L 547.375 1518.773438 Z M 547.375 1462.992188 " fill-opacity="1" fill-rule="nonzero"/><path fill="#132a13" d="M 770.523438 1462.992188 L 714.742188 1462.992188 L 714.742188 1518.773438 L 770.523438 1518.773438 Z M 770.523438 1462.992188 " fill-opacity="1" fill-rule="nonzero"/><path fill="#132a13" d="M 882.085938 1295.652344 L 826.304688 1295.652344 L 826.304688 1100.40625 L 854.207031 1100.40625 C 940.214844 1100.40625 993.671875 1143.132812 993.671875 1211.96875 L 937.894531 1211.96875 C 937.894531 1176.898438 911.527344 1162.886719 882.113281 1158.1875 L 882.113281 1295.625 Z M 882.085938 1295.652344 " fill-opacity="1" fill-rule="nonzero"/><path fill="#132a13" d="M 1133.109375 1211.96875 L 1077.328125 1211.96875 L 1077.328125 1052.371094 C 1032.457031 1076.765625 993.644531 1153.808594 993.644531 1211.96875 L 937.863281 1211.96875 C 937.863281 1122.105469 1008.148438 988.847656 1105.207031 988.847656 L 1133.109375 988.847656 Z M 1133.109375 1211.96875 " fill-opacity="1" fill-rule="nonzero"/><path fill="#132a13" d="M 575.277344 96.332031 L 519.496094 96.332031 L 519.496094 152.113281 L 575.277344 152.113281 Z M 575.277344 96.332031 " fill-opacity="1" fill-rule="nonzero"/><path fill="#132a13" d="M 686.839844 152.113281 L 631.058594 152.113281 L 631.058594 207.894531 L 686.839844 207.894531 Z M 686.839844 152.113281 " fill-opacity="1" fill-rule="nonzero"/><path fill="#132a13" d="M 407.9375 263.671875 L 352.15625 263.671875 L 352.15625 319.453125 L 407.9375 319.453125 Z M 407.9375 263.671875 " fill-opacity="1" fill-rule="nonzero"/><path fill="#132a13" d="M 575.277344 431.015625 L 519.496094 431.015625 L 519.496094 486.792969 L 575.277344 486.792969 Z M 575.277344 431.015625 " fill-opacity="1" fill-rule="nonzero"/><path fill="#132a13" d="M 463.71875 375.234375 L 407.9375 375.234375 L 407.9375 431.015625 L 463.71875 431.015625 Z M 463.71875 375.234375 " fill-opacity="1" fill-rule="nonzero"/><path fill="#132a13" d="M 463.71875 152.113281 L 407.9375 152.113281 L 407.9375 207.894531 L 463.71875 207.894531 Z M 463.71875 152.113281 " fill-opacity="1" fill-rule="nonzero"/><path fill="#132a13" d="M 1393.917969 1486.902344 L 1772.425781 1009 L 1816.175781 1043.652344 L 1437.667969 1521.554688 Z M 1393.917969 1486.902344 " fill-opacity="1" fill-rule="nonzero"/><g clip-path="url(#76da016b71)"><path fill="#132a13" d="M 1328.328125 1574.554688 C 1313.359375 1574.554688 1298.625 1572.175781 1284.4375 1567.503906 L 326.078125 1248.050781 L 653.769531 834.066406 L 697.511719 868.699219 L 419.164062 1220.261719 L 1302.015625 1514.566406 C 1310.429688 1517.351562 1319.304688 1518.773438 1328.328125 1518.773438 C 1374.476562 1518.773438 1412.011719 1481.238281 1412.011719 1435.089844 C 1412.011719 1388.9375 1374.476562 1351.402344 1328.328125 1351.402344 C 1300.710938 1351.402344 1291.71875 1352.214844 1273.648438 1359.726562 L 1173.71875 1401.238281 L 1748.925781 679.109375 C 1775.496094 645.519531 1815.351562 626.203125 1858.253906 626.203125 C 1935.152344 626.203125 1997.71875 688.769531 1997.71875 765.667969 C 1997.71875 797.429688 1987.304688 827.335938 1967.636719 852.164062 L 1796.441406 1068.441406 L 1752.699219 1033.808594 L 1923.894531 817.53125 C 1935.703125 802.652344 1941.9375 784.726562 1941.9375 765.667969 C 1941.9375 719.515625 1904.402344 681.980469 1858.253906 681.980469 C 1832.523438 681.980469 1808.59375 693.554688 1792.609375 713.773438 L 1329.167969 1295.59375 C 1405.6875 1296.058594 1467.792969 1358.421875 1467.792969 1435.058594 C 1467.792969 1511.695312 1405.222656 1574.523438 1328.328125 1574.523438 Z M 1328.328125 1574.554688 " fill-opacity="1" fill-rule="nonzero"/></g></svg>