<svg xmlns="http://www.w3.org/2000/svg" xmlns:xlink="http://www.w3.org/1999/xlink" width="3099" zoomAndPan="magnify" viewBox="0 0 2324.25 1587.749936" height="2116" preserveAspectRatio="xMidYMid meet" version="1.0"><path fill="#132a13" d="M 1465.421875 1287.425781 L 1391.839844 1230.179688 C 1390.960938 1229.496094 1389.882812 1229.320312 1388.828125 1229.691406 L 1183.464844 1302.171875 C 1182.859375 1302.386719 1182.394531 1302.71875 1182 1303.230469 L 1003.960938 1534.683594 C 986.414062 1557.5 960.890625 1570.070312 932.203125 1570.070312 L 826.949219 1570.070312 C 789.261719 1570.070312 758.570312 1539.382812 758.570312 1501.691406 L 758.570312 1210.171875 C 758.570312 1208.890625 757.859375 1207.792969 756.6875 1207.269531 C 733.039062 1196.714844 715.632812 1176.886719 707.765625 1151.703125 L 622.214844 877.9375 C 621.867188 876.835938 621.03125 876.058594 619.910156 875.789062 L 462.714844 838.804688 C 449.902344 835.820312 441.9375 823.015625 444.921875 810.203125 C 447.90625 797.386719 460.710938 789.421875 473.527344 792.40625 L 643.34375 832.277344 L 1829.515625 832.277344 C 1858.449219 832.277344 1881.996094 855.824219 1881.996094 884.761719 L 1881.996094 1005.046875 C 1881.996094 1035.511719 1863.011719 1062.332031 1834.234375 1072.488281 L 1449.367188 1208.324219 C 1446.988281 1209.164062 1446.480469 1212.285156 1448.46875 1213.832031 L 1500.300781 1254.15625 C 1501.433594 1255.039062 1502.953125 1255.0625 1504.113281 1254.226562 C 1573.367188 1204.183594 1668.90625 1211.839844 1729.433594 1272.367188 C 1797.539062 1340.472656 1797.539062 1450.882812 1729.433594 1518.984375 C 1661.324219 1587.089844 1550.921875 1587.09375 1482.816406 1518.984375 C 1421.640625 1457.808594 1414.59375 1361.074219 1466.023438 1291.828125 C 1467.046875 1290.449219 1466.78125 1288.488281 1465.421875 1287.425781 Z M 928.296875 789.726562 L 1506.300781 789.726562 C 1508.566406 789.726562 1510.097656 787.445312 1509.246094 785.34375 C 1498.074219 757.960938 1471.113281 732.796875 1433.375 712.546875 C 1384.375 686.257812 1318.222656 668.921875 1244.1875 665.523438 C 1242.488281 665.445312 1241.15625 664.046875 1241.15625 662.347656 L 1241.15625 562.308594 C 1241.15625 561.433594 1241.46875 560.679688 1242.085938 560.058594 L 1357.058594 445.089844 C 1357.5625 444.585938 1358.136719 444.300781 1358.839844 444.195312 C 1482.164062 425.875 1575.804688 325.832031 1586.628906 200.949219 C 1587.636719 189.882812 1578.617188 180.90625 1567.871094 181.761719 C 1443.203125 191.675781 1342.472656 286.757812 1324.230469 409.582031 C 1324.125 410.285156 1323.832031 410.859375 1323.332031 411.363281 L 1246.582031 488.113281 C 1244.578125 490.121094 1241.15625 488.703125 1241.15625 485.867188 L 1241.15625 343.589844 C 1241.15625 342.878906 1241.359375 342.265625 1241.78125 341.695312 C 1316.078125 241.652344 1311.535156 104.796875 1230.78125 8.777344 C 1223.882812 0.5 1211.152344 0.171875 1204.050781 8.515625 C 1122.925781 103.882812 1118.722656 241.90625 1192.828125 341.695312 C 1193.253906 342.265625 1193.457031 342.878906 1193.457031 343.589844 L 1193.457031 485.867188 C 1193.457031 488.703125 1190.035156 490.121094 1188.03125 488.113281 L 1111.277344 411.363281 C 1110.773438 410.859375 1110.488281 410.285156 1110.382812 409.582031 C 1092.140625 286.761719 991.410156 191.675781 866.742188 181.761719 C 855.996094 180.90625 846.976562 189.878906 847.984375 200.949219 C 859.488281 327.089844 952.871094 425.9375 1075.769531 444.195312 C 1076.476562 444.300781 1077.050781 444.589844 1077.554688 445.089844 L 1192.523438 560.058594 C 1193.144531 560.679688 1193.457031 561.433594 1193.457031 562.308594 L 1193.457031 662.34375 C 1193.457031 664.042969 1192.121094 665.445312 1190.421875 665.519531 C 1116.382812 668.921875 1050.230469 686.253906 1001.230469 712.542969 C 963.492188 732.792969 936.53125 757.957031 925.359375 785.339844 C 924.5 787.449219 926.035156 789.726562 928.296875 789.726562 Z M 1606.121094 1310.929688 C 1559.3125 1310.929688 1521.367188 1348.875 1521.367188 1395.683594 C 1521.367188 1442.496094 1559.3125 1480.4375 1606.121094 1480.4375 C 1652.929688 1480.4375 1690.871094 1442.492188 1690.871094 1395.683594 C 1690.871094 1348.875 1652.929688 1310.929688 1606.121094 1310.929688 Z M 1695.707031 1306.097656 C 1646.234375 1256.625 1566.011719 1256.625 1516.539062 1306.097656 C 1467.066406 1355.570312 1467.066406 1435.792969 1516.539062 1485.265625 C 1566.011719 1534.738281 1646.234375 1534.738281 1695.707031 1485.265625 C 1745.179688 1435.792969 1745.179688 1355.570312 1695.707031 1306.097656 Z M 1121.992188 1295.902344 L 810.191406 1221.660156 C 808.183594 1221.183594 806.273438 1222.6875 806.273438 1224.753906 L 806.273438 1501.6875 C 806.273438 1513.046875 815.59375 1522.367188 826.953125 1522.367188 L 932.207031 1522.367188 C 946.371094 1522.367188 957.738281 1516.777344 966.324219 1505.621094 L 1123.777344 1300.933594 C 1125.183594 1299.097656 1124.242188 1296.4375 1121.992188 1295.902344 Z M 1121.992188 1295.902344 " fill-opacity="1" fill-rule="evenodd"/></svg>