<svg xmlns="http://www.w3.org/2000/svg" xmlns:xlink="http://www.w3.org/1999/xlink" width="250" zoomAndPan="magnify" viewBox="0 0 187.5 116.249996" height="155" preserveAspectRatio="xMidYMid meet" version="1.0"><defs><g/></defs><g fill="#ffffff" fill-opacity="1"><g transform="translate(9.511921, 64.433967)"><g><path d="M 13.140625 -22.875 C 16.472656 -22.875 19.109375 -22.039062 21.046875 -20.375 C 22.984375 -18.707031 23.953125 -16.328125 23.953125 -13.234375 L 17.0625 -13.234375 C 17.0625 -14.546875 16.71875 -15.582031 16.03125 -16.34375 C 15.34375 -17.101562 14.367188 -17.484375 13.109375 -17.484375 C 11.648438 -17.484375 10.578125 -17.023438 9.890625 -16.109375 C 9.203125 -15.191406 8.859375 -13.921875 8.859375 -12.296875 L 8.859375 -10.203125 C 8.859375 -8.585938 9.203125 -7.316406 9.890625 -6.390625 C 10.578125 -5.460938 11.628906 -5 13.046875 -5 C 14.441406 -5 15.5 -5.359375 16.21875 -6.078125 C 16.9375 -6.796875 17.296875 -7.8125 17.296875 -9.125 L 23.953125 -9.125 C 23.953125 -6.050781 23.007812 -3.695312 21.125 -2.0625 C 19.25 -0.425781 16.585938 0.390625 13.140625 0.390625 C 9.304688 0.390625 6.398438 -0.585938 4.421875 -2.546875 C 2.453125 -4.503906 1.46875 -7.40625 1.46875 -11.25 C 1.46875 -15.082031 2.453125 -17.976562 4.421875 -19.9375 C 6.398438 -21.894531 9.304688 -22.875 13.140625 -22.875 Z M 13.140625 -22.875 "/></g></g></g><g fill="#ffffff" fill-opacity="1"><g transform="translate(36.215202, 64.433967)"><g><path d="M 17.578125 0 L 17.578125 -8.53125 L 9.640625 -8.53125 L 9.640625 0 L 2.421875 0 L 2.421875 -22.484375 L 9.640625 -22.484375 L 9.640625 -14.28125 L 17.578125 -14.28125 L 17.578125 -22.484375 L 24.8125 -22.484375 L 24.8125 0 Z M 17.578125 0 "/></g></g></g><g fill="#ffffff" fill-opacity="1"><g transform="translate(64.716113, 64.433967)"><g><path d="M 23.765625 -15.59375 C 23.765625 -14.21875 23.394531 -12.972656 22.65625 -11.859375 C 21.914062 -10.753906 20.835938 -9.9375 19.421875 -9.40625 L 24.421875 0 L 16.3125 0 L 12.328125 -8.203125 L 9.640625 -8.203125 L 9.640625 0 L 2.421875 0 L 2.421875 -22.484375 L 16.1875 -22.484375 C 17.789062 -22.484375 19.164062 -22.171875 20.3125 -21.546875 C 21.457031 -20.929688 22.316406 -20.09375 22.890625 -19.03125 C 23.472656 -17.976562 23.765625 -16.832031 23.765625 -15.59375 Z M 16.40625 -15.296875 C 16.40625 -15.890625 16.207031 -16.378906 15.8125 -16.765625 C 15.425781 -17.160156 14.945312 -17.359375 14.375 -17.359375 L 9.640625 -17.359375 L 9.640625 -13.203125 L 14.375 -13.203125 C 14.945312 -13.203125 15.425781 -13.40625 15.8125 -13.8125 C 16.207031 -14.21875 16.40625 -14.710938 16.40625 -15.296875 Z M 16.40625 -15.296875 "/></g></g></g><g fill="#ffffff" fill-opacity="1"><g transform="translate(91.419392, 64.433967)"><g><path d="M 13.59375 -22.875 C 17.476562 -22.875 20.472656 -21.882812 22.578125 -19.90625 C 24.691406 -17.925781 25.75 -15.039062 25.75 -11.25 C 25.75 -7.457031 24.691406 -4.566406 22.578125 -2.578125 C 20.472656 -0.597656 17.476562 0.390625 13.59375 0.390625 C 9.71875 0.390625 6.726562 -0.59375 4.625 -2.5625 C 2.519531 -4.539062 1.46875 -7.4375 1.46875 -11.25 C 1.46875 -15.0625 2.519531 -17.953125 4.625 -19.921875 C 6.726562 -21.890625 9.71875 -22.875 13.59375 -22.875 Z M 13.59375 -17.484375 C 12.050781 -17.484375 10.875 -17.015625 10.0625 -16.078125 C 9.257812 -15.140625 8.859375 -13.878906 8.859375 -12.296875 L 8.859375 -10.203125 C 8.859375 -8.609375 9.257812 -7.34375 10.0625 -6.40625 C 10.875 -5.46875 12.050781 -5 13.59375 -5 C 15.144531 -5 16.328125 -5.46875 17.140625 -6.40625 C 17.960938 -7.34375 18.375 -8.609375 18.375 -10.203125 L 18.375 -12.296875 C 18.375 -13.878906 17.960938 -15.140625 17.140625 -16.078125 C 16.328125 -17.015625 15.144531 -17.484375 13.59375 -17.484375 Z M 13.59375 -17.484375 "/></g></g></g><g fill="#ffffff" fill-opacity="1"><g transform="translate(119.920304, 64.433967)"><g><path d="M 21.734375 0 L 21.734375 -8.109375 C 21.734375 -9.109375 21.769531 -10.132812 21.84375 -11.1875 C 21.925781 -12.25 22.007812 -13.140625 22.09375 -13.859375 C 22.1875 -14.578125 22.242188 -15.035156 22.265625 -15.234375 L 22.125 -15.234375 L 17.984375 0 L 12.328125 0 L 8.140625 -15.203125 L 8.015625 -15.203125 C 8.035156 -15.003906 8.09375 -14.550781 8.1875 -13.84375 C 8.28125 -13.132812 8.367188 -12.25 8.453125 -11.1875 C 8.546875 -10.132812 8.59375 -9.109375 8.59375 -8.109375 L 8.59375 0 L 1.96875 0 L 1.96875 -22.484375 L 12.15625 -22.484375 L 15.5625 -9.515625 L 15.6875 -9.515625 L 19.0625 -22.484375 L 28.890625 -22.484375 L 28.890625 0 Z M 21.734375 0 "/></g></g></g><g fill="#ffffff" fill-opacity="1"><g transform="translate(152.049165, 64.433967)"><g><path d="M 17.484375 0 L 16.546875 -3.171875 L 8.65625 -3.171875 L 7.71875 0 L 0.328125 0 L 8.53125 -22.484375 L 16.9375 -22.484375 L 25.140625 0 Z M 10.171875 -8.203125 L 15.03125 -8.203125 L 12.6875 -16.21875 L 12.546875 -16.21875 Z M 10.171875 -8.203125 "/></g></g></g><g fill="#ffffff" fill-opacity="1"><g transform="translate(9.511921, 64.433967)"><g><path d="M 13.140625 -22.875 C 16.472656 -22.875 19.109375 -22.039062 21.046875 -20.375 C 22.984375 -18.707031 23.953125 -16.328125 23.953125 -13.234375 L 17.0625 -13.234375 C 17.0625 -14.546875 16.71875 -15.582031 16.03125 -16.34375 C 15.34375 -17.101562 14.367188 -17.484375 13.109375 -17.484375 C 11.648438 -17.484375 10.578125 -17.023438 9.890625 -16.109375 C 9.203125 -15.191406 8.859375 -13.921875 8.859375 -12.296875 L 8.859375 -10.203125 C 8.859375 -8.585938 9.203125 -7.316406 9.890625 -6.390625 C 10.578125 -5.460938 11.628906 -5 13.046875 -5 C 14.441406 -5 15.5 -5.359375 16.21875 -6.078125 C 16.9375 -6.796875 17.296875 -7.8125 17.296875 -9.125 L 23.953125 -9.125 C 23.953125 -6.050781 23.007812 -3.695312 21.125 -2.0625 C 19.25 -0.425781 16.585938 0.390625 13.140625 0.390625 C 9.304688 0.390625 6.398438 -0.585938 4.421875 -2.546875 C 2.453125 -4.503906 1.46875 -7.40625 1.46875 -11.25 C 1.46875 -15.082031 2.453125 -17.976562 4.421875 -19.9375 C 6.398438 -21.894531 9.304688 -22.875 13.140625 -22.875 Z M 13.140625 -22.875 "/></g></g></g><g fill="#ffffff" fill-opacity="1"><g transform="translate(36.215202, 64.433967)"><g><path d="M 17.578125 0 L 17.578125 -8.53125 L 9.640625 -8.53125 L 9.640625 0 L 2.421875 0 L 2.421875 -22.484375 L 9.640625 -22.484375 L 9.640625 -14.28125 L 17.578125 -14.28125 L 17.578125 -22.484375 L 24.8125 -22.484375 L 24.8125 0 Z M 17.578125 0 "/></g></g></g><g fill="#ffffff" fill-opacity="1"><g transform="translate(64.716113, 64.433967)"><g><path d="M 23.765625 -15.59375 C 23.765625 -14.21875 23.394531 -12.972656 22.65625 -11.859375 C 21.914062 -10.753906 20.835938 -9.9375 19.421875 -9.40625 L 24.421875 0 L 16.3125 0 L 12.328125 -8.203125 L 9.640625 -8.203125 L 9.640625 0 L 2.421875 0 L 2.421875 -22.484375 L 16.1875 -22.484375 C 17.789062 -22.484375 19.164062 -22.171875 20.3125 -21.546875 C 21.457031 -20.929688 22.316406 -20.09375 22.890625 -19.03125 C 23.472656 -17.976562 23.765625 -16.832031 23.765625 -15.59375 Z M 16.40625 -15.296875 C 16.40625 -15.890625 16.207031 -16.378906 15.8125 -16.765625 C 15.425781 -17.160156 14.945312 -17.359375 14.375 -17.359375 L 9.640625 -17.359375 L 9.640625 -13.203125 L 14.375 -13.203125 C 14.945312 -13.203125 15.425781 -13.40625 15.8125 -13.8125 C 16.207031 -14.21875 16.40625 -14.710938 16.40625 -15.296875 Z M 16.40625 -15.296875 "/></g></g></g><g fill="#ffffff" fill-opacity="1"><g transform="translate(91.419392, 64.433967)"><g><path d="M 13.59375 -22.875 C 17.476562 -22.875 20.472656 -21.882812 22.578125 -19.90625 C 24.691406 -17.925781 25.75 -15.039062 25.75 -11.25 C 25.75 -7.457031 24.691406 -4.566406 22.578125 -2.578125 C 20.472656 -0.597656 17.476562 0.390625 13.59375 0.390625 C 9.71875 0.390625 6.726562 -0.59375 4.625 -2.5625 C 2.519531 -4.539062 1.46875 -7.4375 1.46875 -11.25 C 1.46875 -15.0625 2.519531 -17.953125 4.625 -19.921875 C 6.726562 -21.890625 9.71875 -22.875 13.59375 -22.875 Z M 13.59375 -17.484375 C 12.050781 -17.484375 10.875 -17.015625 10.0625 -16.078125 C 9.257812 -15.140625 8.859375 -13.878906 8.859375 -12.296875 L 8.859375 -10.203125 C 8.859375 -8.609375 9.257812 -7.34375 10.0625 -6.40625 C 10.875 -5.46875 12.050781 -5 13.59375 -5 C 15.144531 -5 16.328125 -5.46875 17.140625 -6.40625 C 17.960938 -7.34375 18.375 -8.609375 18.375 -10.203125 L 18.375 -12.296875 C 18.375 -13.878906 17.960938 -15.140625 17.140625 -16.078125 C 16.328125 -17.015625 15.144531 -17.484375 13.59375 -17.484375 Z M 13.59375 -17.484375 "/></g></g></g><g fill="#ffffff" fill-opacity="1"><g transform="translate(119.920304, 64.433967)"><g><path d="M 21.734375 0 L 21.734375 -8.109375 C 21.734375 -9.109375 21.769531 -10.132812 21.84375 -11.1875 C 21.925781 -12.25 22.007812 -13.140625 22.09375 -13.859375 C 22.1875 -14.578125 22.242188 -15.035156 22.265625 -15.234375 L 22.125 -15.234375 L 17.984375 0 L 12.328125 0 L 8.140625 -15.203125 L 8.015625 -15.203125 C 8.035156 -15.003906 8.09375 -14.550781 8.1875 -13.84375 C 8.28125 -13.132812 8.367188 -12.25 8.453125 -11.1875 C 8.546875 -10.132812 8.59375 -9.109375 8.59375 -8.109375 L 8.59375 0 L 1.96875 0 L 1.96875 -22.484375 L 12.15625 -22.484375 L 15.5625 -9.515625 L 15.6875 -9.515625 L 19.0625 -22.484375 L 28.890625 -22.484375 L 28.890625 0 Z M 21.734375 0 "/></g></g></g><g fill="#ffffff" fill-opacity="1"><g transform="translate(152.049165, 64.433967)"><g><path d="M 17.484375 0 L 16.546875 -3.171875 L 8.65625 -3.171875 L 7.71875 0 L 0.328125 0 L 8.53125 -22.484375 L 16.9375 -22.484375 L 25.140625 0 Z M 10.171875 -8.203125 L 15.03125 -8.203125 L 12.6875 -16.21875 L 12.546875 -16.21875 Z M 10.171875 -8.203125 "/></g></g></g><path stroke-linecap="butt" transform="matrix(0.745192, -0.000000000000000092, 0.000000000000000092, 0.745192, 53.151091, 78.909784)" fill="none" stroke-linejoin="miter" d="M 0.00168156 2.500903 L 108.294828 2.500903 " stroke="#edc700" stroke-width="5" stroke-opacity="1" stroke-miterlimit="4"/><g fill="#ffffff" fill-opacity="1"><g transform="translate(44.573399, 76.78447)"><g><path d="M 3.640625 0.09375 C 2.960938 0.09375 2.382812 -0.0351562 1.90625 -0.296875 C 1.4375 -0.554688 1.078125 -0.921875 0.828125 -1.390625 C 0.585938 -1.867188 0.46875 -2.429688 0.46875 -3.078125 C 0.46875 -3.566406 0.539062 -4.003906 0.6875 -4.390625 C 0.832031 -4.785156 1.039062 -5.125 1.3125 -5.40625 C 1.582031 -5.6875 1.910156 -5.898438 2.296875 -6.046875 C 2.691406 -6.191406 3.140625 -6.265625 3.640625 -6.265625 C 3.960938 -6.265625 4.289062 -6.222656 4.625 -6.140625 C 4.957031 -6.066406 5.269531 -5.9375 5.5625 -5.75 C 5.65625 -5.6875 5.71875 -5.609375 5.75 -5.515625 C 5.78125 -5.421875 5.785156 -5.320312 5.765625 -5.21875 C 5.742188 -5.125 5.703125 -5.039062 5.640625 -4.96875 C 5.578125 -4.90625 5.492188 -4.863281 5.390625 -4.84375 C 5.296875 -4.832031 5.191406 -4.859375 5.078125 -4.921875 C 4.859375 -5.046875 4.632812 -5.132812 4.40625 -5.1875 C 4.175781 -5.25 3.921875 -5.28125 3.640625 -5.28125 C 3.203125 -5.28125 2.832031 -5.191406 2.53125 -5.015625 C 2.238281 -4.847656 2.015625 -4.597656 1.859375 -4.265625 C 1.710938 -3.941406 1.640625 -3.546875 1.640625 -3.078125 C 1.640625 -2.359375 1.8125 -1.8125 2.15625 -1.4375 C 2.507812 -1.0625 3.023438 -0.875 3.703125 -0.875 C 3.929688 -0.875 4.164062 -0.894531 4.40625 -0.9375 C 4.644531 -0.988281 4.878906 -1.054688 5.109375 -1.140625 L 4.890625 -0.640625 L 4.890625 -2.5 L 3.921875 -2.5 C 3.773438 -2.5 3.660156 -2.535156 3.578125 -2.609375 C 3.503906 -2.691406 3.46875 -2.796875 3.46875 -2.921875 C 3.46875 -3.054688 3.503906 -3.160156 3.578125 -3.234375 C 3.660156 -3.304688 3.773438 -3.34375 3.921875 -3.34375 L 5.375 -3.34375 C 5.519531 -3.34375 5.628906 -3.300781 5.703125 -3.21875 C 5.785156 -3.144531 5.828125 -3.035156 5.828125 -2.890625 L 5.828125 -0.75 C 5.828125 -0.625 5.800781 -0.515625 5.75 -0.421875 C 5.707031 -0.335938 5.628906 -0.273438 5.515625 -0.234375 C 5.253906 -0.140625 4.957031 -0.0625 4.625 0 C 4.289062 0.0625 3.960938 0.09375 3.640625 0.09375 Z M 3.640625 0.09375 "/></g></g></g><g fill="#ffffff" fill-opacity="1"><g transform="translate(53.651697, 76.78447)"><g><path d="M 1.234375 0.0625 C 1.054688 0.0625 0.914062 0.015625 0.8125 -0.078125 C 0.71875 -0.179688 0.671875 -0.328125 0.671875 -0.515625 L 0.671875 -5.609375 C 0.671875 -5.796875 0.71875 -5.9375 0.8125 -6.03125 C 0.914062 -6.132812 1.0625 -6.1875 1.25 -6.1875 L 3.359375 -6.1875 C 4.035156 -6.1875 4.554688 -6.019531 4.921875 -5.6875 C 5.296875 -5.363281 5.484375 -4.910156 5.484375 -4.328125 C 5.484375 -3.953125 5.398438 -3.625 5.234375 -3.34375 C 5.066406 -3.070312 4.820312 -2.863281 4.5 -2.71875 C 4.1875 -2.570312 3.804688 -2.5 3.359375 -2.5 L 3.4375 -2.625 L 3.71875 -2.625 C 3.957031 -2.625 4.164062 -2.566406 4.34375 -2.453125 C 4.53125 -2.335938 4.691406 -2.15625 4.828125 -1.90625 L 5.484375 -0.6875 C 5.546875 -0.5625 5.570312 -0.441406 5.5625 -0.328125 C 5.5625 -0.210938 5.519531 -0.117188 5.4375 -0.046875 C 5.363281 0.0234375 5.242188 0.0625 5.078125 0.0625 C 4.921875 0.0625 4.789062 0.03125 4.6875 -0.03125 C 4.59375 -0.09375 4.507812 -0.195312 4.4375 -0.34375 L 3.546875 -1.96875 C 3.441406 -2.164062 3.316406 -2.296875 3.171875 -2.359375 C 3.035156 -2.429688 2.851562 -2.46875 2.625 -2.46875 L 1.796875 -2.46875 L 1.796875 -0.515625 C 1.796875 -0.328125 1.75 -0.179688 1.65625 -0.078125 C 1.5625 0.015625 1.421875 0.0625 1.234375 0.0625 Z M 1.796875 -3.296875 L 3.171875 -3.296875 C 3.566406 -3.296875 3.867188 -3.378906 4.078125 -3.546875 C 4.285156 -3.710938 4.390625 -3.960938 4.390625 -4.296875 C 4.390625 -4.628906 4.285156 -4.878906 4.078125 -5.046875 C 3.867188 -5.210938 3.566406 -5.296875 3.171875 -5.296875 L 1.796875 -5.296875 Z M 1.796875 -3.296875 "/></g></g></g><g fill="#ffffff" fill-opacity="1"><g transform="translate(62.292404, 76.78447)"><g><path d="M 1.265625 0 C 1.078125 0 0.929688 -0.0507812 0.828125 -0.15625 C 0.722656 -0.257812 0.671875 -0.40625 0.671875 -0.59375 L 0.671875 -5.578125 C 0.671875 -5.773438 0.722656 -5.925781 0.828125 -6.03125 C 0.929688 -6.132812 1.078125 -6.1875 1.265625 -6.1875 L 4.40625 -6.1875 C 4.550781 -6.1875 4.660156 -6.144531 4.734375 -6.0625 C 4.816406 -5.988281 4.859375 -5.878906 4.859375 -5.734375 C 4.859375 -5.585938 4.816406 -5.472656 4.734375 -5.390625 C 4.660156 -5.316406 4.550781 -5.28125 4.40625 -5.28125 L 1.75 -5.28125 L 1.75 -3.578125 L 4.203125 -3.578125 C 4.359375 -3.578125 4.472656 -3.539062 4.546875 -3.46875 C 4.617188 -3.394531 4.65625 -3.285156 4.65625 -3.140625 C 4.65625 -2.992188 4.617188 -2.878906 4.546875 -2.796875 C 4.472656 -2.722656 4.359375 -2.6875 4.203125 -2.6875 L 1.75 -2.6875 L 1.75 -0.890625 L 4.40625 -0.890625 C 4.550781 -0.890625 4.660156 -0.851562 4.734375 -0.78125 C 4.816406 -0.707031 4.859375 -0.597656 4.859375 -0.453125 C 4.859375 -0.304688 4.816406 -0.191406 4.734375 -0.109375 C 4.660156 -0.0351562 4.550781 0 4.40625 0 Z M 1.265625 0 "/></g></g></g><g fill="#ffffff" fill-opacity="1"><g transform="translate(70.154187, 76.78447)"><g><path d="M 1.265625 0 C 1.078125 0 0.929688 -0.0507812 0.828125 -0.15625 C 0.722656 -0.257812 0.671875 -0.40625 0.671875 -0.59375 L 0.671875 -5.578125 C 0.671875 -5.773438 0.722656 -5.925781 0.828125 -6.03125 C 0.929688 -6.132812 1.078125 -6.1875 1.265625 -6.1875 L 4.40625 -6.1875 C 4.550781 -6.1875 4.660156 -6.144531 4.734375 -6.0625 C 4.816406 -5.988281 4.859375 -5.878906 4.859375 -5.734375 C 4.859375 -5.585938 4.816406 -5.472656 4.734375 -5.390625 C 4.660156 -5.316406 4.550781 -5.28125 4.40625 -5.28125 L 1.75 -5.28125 L 1.75 -3.578125 L 4.203125 -3.578125 C 4.359375 -3.578125 4.472656 -3.539062 4.546875 -3.46875 C 4.617188 -3.394531 4.65625 -3.285156 4.65625 -3.140625 C 4.65625 -2.992188 4.617188 -2.878906 4.546875 -2.796875 C 4.472656 -2.722656 4.359375 -2.6875 4.203125 -2.6875 L 1.75 -2.6875 L 1.75 -0.890625 L 4.40625 -0.890625 C 4.550781 -0.890625 4.660156 -0.851562 4.734375 -0.78125 C 4.816406 -0.707031 4.859375 -0.597656 4.859375 -0.453125 C 4.859375 -0.304688 4.816406 -0.191406 4.734375 -0.109375 C 4.660156 -0.0351562 4.550781 0 4.40625 0 Z M 1.265625 0 "/></g></g></g><g fill="#ffffff" fill-opacity="1"><g transform="translate(78.01597, 76.78447)"><g><path d="M 1.203125 0.0625 C 1.035156 0.0625 0.90625 0.0195312 0.8125 -0.0625 C 0.71875 -0.15625 0.671875 -0.289062 0.671875 -0.46875 L 0.671875 -5.6875 C 0.671875 -5.863281 0.71875 -6 0.8125 -6.09375 C 0.90625 -6.195312 1.023438 -6.25 1.171875 -6.25 C 1.304688 -6.25 1.40625 -6.222656 1.46875 -6.171875 C 1.53125 -6.117188 1.609375 -6.035156 1.703125 -5.921875 L 5.0625 -1.5625 L 4.84375 -1.5625 L 4.84375 -5.71875 C 4.84375 -5.882812 4.882812 -6.015625 4.96875 -6.109375 C 5.0625 -6.203125 5.191406 -6.25 5.359375 -6.25 C 5.535156 -6.25 5.664062 -6.203125 5.75 -6.109375 C 5.832031 -6.015625 5.875 -5.882812 5.875 -5.71875 L 5.875 -0.453125 C 5.875 -0.285156 5.832031 -0.15625 5.75 -0.0625 C 5.675781 0.0195312 5.566406 0.0625 5.421875 0.0625 C 5.285156 0.0625 5.175781 0.0351562 5.09375 -0.015625 C 5.019531 -0.0664062 4.9375 -0.148438 4.84375 -0.265625 L 1.5 -4.625 L 1.71875 -4.625 L 1.71875 -0.46875 C 1.71875 -0.289062 1.671875 -0.15625 1.578125 -0.0625 C 1.492188 0.0195312 1.367188 0.0625 1.203125 0.0625 Z M 1.203125 0.0625 "/></g></g></g><g fill="#ffffff" fill-opacity="1"><g transform="translate(87.199288, 76.78447)"><g/></g></g><g fill="#ffffff" fill-opacity="1"><g transform="translate(92.207959, 76.78447)"><g><path d="M 3.640625 0.09375 C 2.960938 0.09375 2.382812 -0.0351562 1.90625 -0.296875 C 1.4375 -0.554688 1.078125 -0.921875 0.828125 -1.390625 C 0.585938 -1.867188 0.46875 -2.429688 0.46875 -3.078125 C 0.46875 -3.566406 0.539062 -4.003906 0.6875 -4.390625 C 0.832031 -4.785156 1.039062 -5.125 1.3125 -5.40625 C 1.582031 -5.6875 1.910156 -5.898438 2.296875 -6.046875 C 2.691406 -6.191406 3.140625 -6.265625 3.640625 -6.265625 C 3.960938 -6.265625 4.289062 -6.222656 4.625 -6.140625 C 4.957031 -6.066406 5.269531 -5.9375 5.5625 -5.75 C 5.65625 -5.6875 5.71875 -5.609375 5.75 -5.515625 C 5.78125 -5.421875 5.785156 -5.320312 5.765625 -5.21875 C 5.742188 -5.125 5.703125 -5.039062 5.640625 -4.96875 C 5.578125 -4.90625 5.492188 -4.863281 5.390625 -4.84375 C 5.296875 -4.832031 5.191406 -4.859375 5.078125 -4.921875 C 4.859375 -5.046875 4.632812 -5.132812 4.40625 -5.1875 C 4.175781 -5.25 3.921875 -5.28125 3.640625 -5.28125 C 3.203125 -5.28125 2.832031 -5.191406 2.53125 -5.015625 C 2.238281 -4.847656 2.015625 -4.597656 1.859375 -4.265625 C 1.710938 -3.941406 1.640625 -3.546875 1.640625 -3.078125 C 1.640625 -2.359375 1.8125 -1.8125 2.15625 -1.4375 C 2.507812 -1.0625 3.023438 -0.875 3.703125 -0.875 C 3.929688 -0.875 4.164062 -0.894531 4.40625 -0.9375 C 4.644531 -0.988281 4.878906 -1.054688 5.109375 -1.140625 L 4.890625 -0.640625 L 4.890625 -2.5 L 3.921875 -2.5 C 3.773438 -2.5 3.660156 -2.535156 3.578125 -2.609375 C 3.503906 -2.691406 3.46875 -2.796875 3.46875 -2.921875 C 3.46875 -3.054688 3.503906 -3.160156 3.578125 -3.234375 C 3.660156 -3.304688 3.773438 -3.34375 3.921875 -3.34375 L 5.375 -3.34375 C 5.519531 -3.34375 5.628906 -3.300781 5.703125 -3.21875 C 5.785156 -3.144531 5.828125 -3.035156 5.828125 -2.890625 L 5.828125 -0.75 C 5.828125 -0.625 5.800781 -0.515625 5.75 -0.421875 C 5.707031 -0.335938 5.628906 -0.273438 5.515625 -0.234375 C 5.253906 -0.140625 4.957031 -0.0625 4.625 0 C 4.289062 0.0625 3.960938 0.09375 3.640625 0.09375 Z M 3.640625 0.09375 "/></g></g></g><g fill="#ffffff" fill-opacity="1"><g transform="translate(101.286254, 76.78447)"><g><path d="M 0.734375 0.0625 C 0.597656 0.0625 0.484375 0.03125 0.390625 -0.03125 C 0.304688 -0.09375 0.253906 -0.175781 0.234375 -0.28125 C 0.222656 -0.394531 0.25 -0.519531 0.3125 -0.65625 L 2.625 -5.78125 C 2.695312 -5.945312 2.785156 -6.066406 2.890625 -6.140625 C 3.003906 -6.210938 3.128906 -6.25 3.265625 -6.25 C 3.398438 -6.25 3.519531 -6.210938 3.625 -6.140625 C 3.738281 -6.066406 3.832031 -5.945312 3.90625 -5.78125 L 6.234375 -0.65625 C 6.296875 -0.519531 6.316406 -0.394531 6.296875 -0.28125 C 6.285156 -0.164062 6.238281 -0.078125 6.15625 -0.015625 C 6.070312 0.0351562 5.960938 0.0625 5.828125 0.0625 C 5.660156 0.0625 5.53125 0.0234375 5.4375 -0.046875 C 5.351562 -0.128906 5.273438 -0.25 5.203125 -0.40625 L 4.640625 -1.734375 L 5.109375 -1.421875 L 1.40625 -1.421875 L 1.890625 -1.734375 L 1.328125 -0.40625 C 1.242188 -0.238281 1.160156 -0.117188 1.078125 -0.046875 C 1.003906 0.0234375 0.890625 0.0625 0.734375 0.0625 Z M 3.25 -4.96875 L 2.03125 -2.046875 L 1.796875 -2.328125 L 4.71875 -2.328125 L 4.5 -2.046875 L 3.265625 -4.96875 Z M 3.25 -4.96875 "/></g></g></g><g fill="#ffffff" fill-opacity="1"><g transform="translate(110.434564, 76.78447)"><g><path d="M 1.234375 0.0625 C 1.054688 0.0625 0.914062 0.015625 0.8125 -0.078125 C 0.71875 -0.179688 0.671875 -0.328125 0.671875 -0.515625 L 0.671875 -5.609375 C 0.671875 -5.796875 0.71875 -5.9375 0.8125 -6.03125 C 0.914062 -6.132812 1.0625 -6.1875 1.25 -6.1875 L 3.359375 -6.1875 C 4.035156 -6.1875 4.554688 -6.019531 4.921875 -5.6875 C 5.296875 -5.363281 5.484375 -4.910156 5.484375 -4.328125 C 5.484375 -3.953125 5.398438 -3.625 5.234375 -3.34375 C 5.066406 -3.070312 4.820312 -2.863281 4.5 -2.71875 C 4.1875 -2.570312 3.804688 -2.5 3.359375 -2.5 L 3.4375 -2.625 L 3.71875 -2.625 C 3.957031 -2.625 4.164062 -2.566406 4.34375 -2.453125 C 4.53125 -2.335938 4.691406 -2.15625 4.828125 -1.90625 L 5.484375 -0.6875 C 5.546875 -0.5625 5.570312 -0.441406 5.5625 -0.328125 C 5.5625 -0.210938 5.519531 -0.117188 5.4375 -0.046875 C 5.363281 0.0234375 5.242188 0.0625 5.078125 0.0625 C 4.921875 0.0625 4.789062 0.03125 4.6875 -0.03125 C 4.59375 -0.09375 4.507812 -0.195312 4.4375 -0.34375 L 3.546875 -1.96875 C 3.441406 -2.164062 3.316406 -2.296875 3.171875 -2.359375 C 3.035156 -2.429688 2.851562 -2.46875 2.625 -2.46875 L 1.796875 -2.46875 L 1.796875 -0.515625 C 1.796875 -0.328125 1.75 -0.179688 1.65625 -0.078125 C 1.5625 0.015625 1.421875 0.0625 1.234375 0.0625 Z M 1.796875 -3.296875 L 3.171875 -3.296875 C 3.566406 -3.296875 3.867188 -3.378906 4.078125 -3.546875 C 4.285156 -3.710938 4.390625 -3.960938 4.390625 -4.296875 C 4.390625 -4.628906 4.285156 -4.878906 4.078125 -5.046875 C 3.867188 -5.210938 3.566406 -5.296875 3.171875 -5.296875 L 1.796875 -5.296875 Z M 1.796875 -3.296875 "/></g></g></g><g fill="#ffffff" fill-opacity="1"><g transform="translate(119.07527, 76.78447)"><g><path d="M 1.265625 0 C 1.078125 0 0.929688 -0.0507812 0.828125 -0.15625 C 0.722656 -0.257812 0.671875 -0.40625 0.671875 -0.59375 L 0.671875 -5.578125 C 0.671875 -5.773438 0.722656 -5.925781 0.828125 -6.03125 C 0.929688 -6.132812 1.078125 -6.1875 1.265625 -6.1875 L 2.96875 -6.1875 C 4 -6.1875 4.796875 -5.914062 5.359375 -5.375 C 5.929688 -4.84375 6.21875 -4.082031 6.21875 -3.09375 C 6.21875 -2.59375 6.144531 -2.148438 6 -1.765625 C 5.851562 -1.390625 5.640625 -1.066406 5.359375 -0.796875 C 5.085938 -0.535156 4.75 -0.335938 4.34375 -0.203125 C 3.945312 -0.0664062 3.488281 0 2.96875 0 Z M 1.796875 -0.921875 L 2.90625 -0.921875 C 3.257812 -0.921875 3.570312 -0.96875 3.84375 -1.0625 C 4.113281 -1.15625 4.335938 -1.289062 4.515625 -1.46875 C 4.691406 -1.644531 4.820312 -1.867188 4.90625 -2.140625 C 5 -2.410156 5.046875 -2.726562 5.046875 -3.09375 C 5.046875 -3.820312 4.863281 -4.363281 4.5 -4.71875 C 4.144531 -5.070312 3.613281 -5.25 2.90625 -5.25 L 1.796875 -5.25 Z M 1.796875 -0.921875 "/></g></g></g><g fill="#ffffff" fill-opacity="1"><g transform="translate(128.381118, 76.78447)"><g><path d="M 1.265625 0 C 1.078125 0 0.929688 -0.0507812 0.828125 -0.15625 C 0.722656 -0.257812 0.671875 -0.40625 0.671875 -0.59375 L 0.671875 -5.578125 C 0.671875 -5.773438 0.722656 -5.925781 0.828125 -6.03125 C 0.929688 -6.132812 1.078125 -6.1875 1.265625 -6.1875 L 4.40625 -6.1875 C 4.550781 -6.1875 4.660156 -6.144531 4.734375 -6.0625 C 4.816406 -5.988281 4.859375 -5.878906 4.859375 -5.734375 C 4.859375 -5.585938 4.816406 -5.472656 4.734375 -5.390625 C 4.660156 -5.316406 4.550781 -5.28125 4.40625 -5.28125 L 1.75 -5.28125 L 1.75 -3.578125 L 4.203125 -3.578125 C 4.359375 -3.578125 4.472656 -3.539062 4.546875 -3.46875 C 4.617188 -3.394531 4.65625 -3.285156 4.65625 -3.140625 C 4.65625 -2.992188 4.617188 -2.878906 4.546875 -2.796875 C 4.472656 -2.722656 4.359375 -2.6875 4.203125 -2.6875 L 1.75 -2.6875 L 1.75 -0.890625 L 4.40625 -0.890625 C 4.550781 -0.890625 4.660156 -0.851562 4.734375 -0.78125 C 4.816406 -0.707031 4.859375 -0.597656 4.859375 -0.453125 C 4.859375 -0.304688 4.816406 -0.191406 4.734375 -0.109375 C 4.660156 -0.0351562 4.550781 0 4.40625 0 Z M 1.265625 0 "/></g></g></g><g fill="#ffffff" fill-opacity="1"><g transform="translate(136.242899, 76.78447)"><g><path d="M 1.203125 0.0625 C 1.035156 0.0625 0.90625 0.0195312 0.8125 -0.0625 C 0.71875 -0.15625 0.671875 -0.289062 0.671875 -0.46875 L 0.671875 -5.6875 C 0.671875 -5.863281 0.71875 -6 0.8125 -6.09375 C 0.90625 -6.195312 1.023438 -6.25 1.171875 -6.25 C 1.304688 -6.25 1.40625 -6.222656 1.46875 -6.171875 C 1.53125 -6.117188 1.609375 -6.035156 1.703125 -5.921875 L 5.0625 -1.5625 L 4.84375 -1.5625 L 4.84375 -5.71875 C 4.84375 -5.882812 4.882812 -6.015625 4.96875 -6.109375 C 5.0625 -6.203125 5.191406 -6.25 5.359375 -6.25 C 5.535156 -6.25 5.664062 -6.203125 5.75 -6.109375 C 5.832031 -6.015625 5.875 -5.882812 5.875 -5.71875 L 5.875 -0.453125 C 5.875 -0.285156 5.832031 -0.15625 5.75 -0.0625 C 5.675781 0.0195312 5.566406 0.0625 5.421875 0.0625 C 5.285156 0.0625 5.175781 0.0351562 5.09375 -0.015625 C 5.019531 -0.0664062 4.9375 -0.148438 4.84375 -0.265625 L 1.5 -4.625 L 1.71875 -4.625 L 1.71875 -0.46875 C 1.71875 -0.289062 1.671875 -0.15625 1.578125 -0.0625 C 1.492188 0.0195312 1.367188 0.0625 1.203125 0.0625 Z M 1.203125 0.0625 "/></g></g></g><g fill="#ffffff" fill-opacity="1"><g transform="translate(44.387561, 76.598632)"><g><path d="M 3.640625 0.09375 C 2.960938 0.09375 2.382812 -0.0351562 1.90625 -0.296875 C 1.4375 -0.554688 1.078125 -0.921875 0.828125 -1.390625 C 0.585938 -1.867188 0.46875 -2.429688 0.46875 -3.078125 C 0.46875 -3.566406 0.539062 -4.003906 0.6875 -4.390625 C 0.832031 -4.785156 1.039062 -5.125 1.3125 -5.40625 C 1.582031 -5.6875 1.910156 -5.898438 2.296875 -6.046875 C 2.691406 -6.191406 3.140625 -6.265625 3.640625 -6.265625 C 3.960938 -6.265625 4.289062 -6.222656 4.625 -6.140625 C 4.957031 -6.066406 5.269531 -5.9375 5.5625 -5.75 C 5.65625 -5.6875 5.71875 -5.609375 5.75 -5.515625 C 5.78125 -5.421875 5.785156 -5.320312 5.765625 -5.21875 C 5.742188 -5.125 5.703125 -5.039062 5.640625 -4.96875 C 5.578125 -4.90625 5.492188 -4.863281 5.390625 -4.84375 C 5.296875 -4.832031 5.191406 -4.859375 5.078125 -4.921875 C 4.859375 -5.046875 4.632812 -5.132812 4.40625 -5.1875 C 4.175781 -5.25 3.921875 -5.28125 3.640625 -5.28125 C 3.203125 -5.28125 2.832031 -5.191406 2.53125 -5.015625 C 2.238281 -4.847656 2.015625 -4.597656 1.859375 -4.265625 C 1.710938 -3.941406 1.640625 -3.546875 1.640625 -3.078125 C 1.640625 -2.359375 1.8125 -1.8125 2.15625 -1.4375 C 2.507812 -1.0625 3.023438 -0.875 3.703125 -0.875 C 3.929688 -0.875 4.164062 -0.894531 4.40625 -0.9375 C 4.644531 -0.988281 4.878906 -1.054688 5.109375 -1.140625 L 4.890625 -0.640625 L 4.890625 -2.5 L 3.921875 -2.5 C 3.773438 -2.5 3.660156 -2.535156 3.578125 -2.609375 C 3.503906 -2.691406 3.46875 -2.796875 3.46875 -2.921875 C 3.46875 -3.054688 3.503906 -3.160156 3.578125 -3.234375 C 3.660156 -3.304688 3.773438 -3.34375 3.921875 -3.34375 L 5.375 -3.34375 C 5.519531 -3.34375 5.628906 -3.300781 5.703125 -3.21875 C 5.785156 -3.144531 5.828125 -3.035156 5.828125 -2.890625 L 5.828125 -0.75 C 5.828125 -0.625 5.800781 -0.515625 5.75 -0.421875 C 5.707031 -0.335938 5.628906 -0.273438 5.515625 -0.234375 C 5.253906 -0.140625 4.957031 -0.0625 4.625 0 C 4.289062 0.0625 3.960938 0.09375 3.640625 0.09375 Z M 3.640625 0.09375 "/></g></g></g><g fill="#ffffff" fill-opacity="1"><g transform="translate(53.465859, 76.598632)"><g><path d="M 1.234375 0.0625 C 1.054688 0.0625 0.914062 0.015625 0.8125 -0.078125 C 0.71875 -0.179688 0.671875 -0.328125 0.671875 -0.515625 L 0.671875 -5.609375 C 0.671875 -5.796875 0.71875 -5.9375 0.8125 -6.03125 C 0.914062 -6.132812 1.0625 -6.1875 1.25 -6.1875 L 3.359375 -6.1875 C 4.035156 -6.1875 4.554688 -6.019531 4.921875 -5.6875 C 5.296875 -5.363281 5.484375 -4.910156 5.484375 -4.328125 C 5.484375 -3.953125 5.398438 -3.625 5.234375 -3.34375 C 5.066406 -3.070312 4.820312 -2.863281 4.5 -2.71875 C 4.1875 -2.570312 3.804688 -2.5 3.359375 -2.5 L 3.4375 -2.625 L 3.71875 -2.625 C 3.957031 -2.625 4.164062 -2.566406 4.34375 -2.453125 C 4.53125 -2.335938 4.691406 -2.15625 4.828125 -1.90625 L 5.484375 -0.6875 C 5.546875 -0.5625 5.570312 -0.441406 5.5625 -0.328125 C 5.5625 -0.210938 5.519531 -0.117188 5.4375 -0.046875 C 5.363281 0.0234375 5.242188 0.0625 5.078125 0.0625 C 4.921875 0.0625 4.789062 0.03125 4.6875 -0.03125 C 4.59375 -0.09375 4.507812 -0.195312 4.4375 -0.34375 L 3.546875 -1.96875 C 3.441406 -2.164062 3.316406 -2.296875 3.171875 -2.359375 C 3.035156 -2.429688 2.851562 -2.46875 2.625 -2.46875 L 1.796875 -2.46875 L 1.796875 -0.515625 C 1.796875 -0.328125 1.75 -0.179688 1.65625 -0.078125 C 1.5625 0.015625 1.421875 0.0625 1.234375 0.0625 Z M 1.796875 -3.296875 L 3.171875 -3.296875 C 3.566406 -3.296875 3.867188 -3.378906 4.078125 -3.546875 C 4.285156 -3.710938 4.390625 -3.960938 4.390625 -4.296875 C 4.390625 -4.628906 4.285156 -4.878906 4.078125 -5.046875 C 3.867188 -5.210938 3.566406 -5.296875 3.171875 -5.296875 L 1.796875 -5.296875 Z M 1.796875 -3.296875 "/></g></g></g><g fill="#ffffff" fill-opacity="1"><g transform="translate(62.106566, 76.598632)"><g><path d="M 1.265625 0 C 1.078125 0 0.929688 -0.0507812 0.828125 -0.15625 C 0.722656 -0.257812 0.671875 -0.40625 0.671875 -0.59375 L 0.671875 -5.578125 C 0.671875 -5.773438 0.722656 -5.925781 0.828125 -6.03125 C 0.929688 -6.132812 1.078125 -6.1875 1.265625 -6.1875 L 4.40625 -6.1875 C 4.550781 -6.1875 4.660156 -6.144531 4.734375 -6.0625 C 4.816406 -5.988281 4.859375 -5.878906 4.859375 -5.734375 C 4.859375 -5.585938 4.816406 -5.472656 4.734375 -5.390625 C 4.660156 -5.316406 4.550781 -5.28125 4.40625 -5.28125 L 1.75 -5.28125 L 1.75 -3.578125 L 4.203125 -3.578125 C 4.359375 -3.578125 4.472656 -3.539062 4.546875 -3.46875 C 4.617188 -3.394531 4.65625 -3.285156 4.65625 -3.140625 C 4.65625 -2.992188 4.617188 -2.878906 4.546875 -2.796875 C 4.472656 -2.722656 4.359375 -2.6875 4.203125 -2.6875 L 1.75 -2.6875 L 1.75 -0.890625 L 4.40625 -0.890625 C 4.550781 -0.890625 4.660156 -0.851562 4.734375 -0.78125 C 4.816406 -0.707031 4.859375 -0.597656 4.859375 -0.453125 C 4.859375 -0.304688 4.816406 -0.191406 4.734375 -0.109375 C 4.660156 -0.0351562 4.550781 0 4.40625 0 Z M 1.265625 0 "/></g></g></g><g fill="#ffffff" fill-opacity="1"><g transform="translate(69.968349, 76.598632)"><g><path d="M 1.265625 0 C 1.078125 0 0.929688 -0.0507812 0.828125 -0.15625 C 0.722656 -0.257812 0.671875 -0.40625 0.671875 -0.59375 L 0.671875 -5.578125 C 0.671875 -5.773438 0.722656 -5.925781 0.828125 -6.03125 C 0.929688 -6.132812 1.078125 -6.1875 1.265625 -6.1875 L 4.40625 -6.1875 C 4.550781 -6.1875 4.660156 -6.144531 4.734375 -6.0625 C 4.816406 -5.988281 4.859375 -5.878906 4.859375 -5.734375 C 4.859375 -5.585938 4.816406 -5.472656 4.734375 -5.390625 C 4.660156 -5.316406 4.550781 -5.28125 4.40625 -5.28125 L 1.75 -5.28125 L 1.75 -3.578125 L 4.203125 -3.578125 C 4.359375 -3.578125 4.472656 -3.539062 4.546875 -3.46875 C 4.617188 -3.394531 4.65625 -3.285156 4.65625 -3.140625 C 4.65625 -2.992188 4.617188 -2.878906 4.546875 -2.796875 C 4.472656 -2.722656 4.359375 -2.6875 4.203125 -2.6875 L 1.75 -2.6875 L 1.75 -0.890625 L 4.40625 -0.890625 C 4.550781 -0.890625 4.660156 -0.851562 4.734375 -0.78125 C 4.816406 -0.707031 4.859375 -0.597656 4.859375 -0.453125 C 4.859375 -0.304688 4.816406 -0.191406 4.734375 -0.109375 C 4.660156 -0.0351562 4.550781 0 4.40625 0 Z M 1.265625 0 "/></g></g></g><g fill="#ffffff" fill-opacity="1"><g transform="translate(77.830132, 76.598632)"><g><path d="M 1.203125 0.0625 C 1.035156 0.0625 0.90625 0.0195312 0.8125 -0.0625 C 0.71875 -0.15625 0.671875 -0.289062 0.671875 -0.46875 L 0.671875 -5.6875 C 0.671875 -5.863281 0.71875 -6 0.8125 -6.09375 C 0.90625 -6.195312 1.023438 -6.25 1.171875 -6.25 C 1.304688 -6.25 1.40625 -6.222656 1.46875 -6.171875 C 1.53125 -6.117188 1.609375 -6.035156 1.703125 -5.921875 L 5.0625 -1.5625 L 4.84375 -1.5625 L 4.84375 -5.71875 C 4.84375 -5.882812 4.882812 -6.015625 4.96875 -6.109375 C 5.0625 -6.203125 5.191406 -6.25 5.359375 -6.25 C 5.535156 -6.25 5.664062 -6.203125 5.75 -6.109375 C 5.832031 -6.015625 5.875 -5.882812 5.875 -5.71875 L 5.875 -0.453125 C 5.875 -0.285156 5.832031 -0.15625 5.75 -0.0625 C 5.675781 0.0195312 5.566406 0.0625 5.421875 0.0625 C 5.285156 0.0625 5.175781 0.0351562 5.09375 -0.015625 C 5.019531 -0.0664062 4.9375 -0.148438 4.84375 -0.265625 L 1.5 -4.625 L 1.71875 -4.625 L 1.71875 -0.46875 C 1.71875 -0.289062 1.671875 -0.15625 1.578125 -0.0625 C 1.492188 0.0195312 1.367188 0.0625 1.203125 0.0625 Z M 1.203125 0.0625 "/></g></g></g><g fill="#ffffff" fill-opacity="1"><g transform="translate(87.01345, 76.598632)"><g/></g></g><g fill="#ffffff" fill-opacity="1"><g transform="translate(92.022121, 76.598632)"><g><path d="M 3.640625 0.09375 C 2.960938 0.09375 2.382812 -0.0351562 1.90625 -0.296875 C 1.4375 -0.554688 1.078125 -0.921875 0.828125 -1.390625 C 0.585938 -1.867188 0.46875 -2.429688 0.46875 -3.078125 C 0.46875 -3.566406 0.539062 -4.003906 0.6875 -4.390625 C 0.832031 -4.785156 1.039062 -5.125 1.3125 -5.40625 C 1.582031 -5.6875 1.910156 -5.898438 2.296875 -6.046875 C 2.691406 -6.191406 3.140625 -6.265625 3.640625 -6.265625 C 3.960938 -6.265625 4.289062 -6.222656 4.625 -6.140625 C 4.957031 -6.066406 5.269531 -5.9375 5.5625 -5.75 C 5.65625 -5.6875 5.71875 -5.609375 5.75 -5.515625 C 5.78125 -5.421875 5.785156 -5.320312 5.765625 -5.21875 C 5.742188 -5.125 5.703125 -5.039062 5.640625 -4.96875 C 5.578125 -4.90625 5.492188 -4.863281 5.390625 -4.84375 C 5.296875 -4.832031 5.191406 -4.859375 5.078125 -4.921875 C 4.859375 -5.046875 4.632812 -5.132812 4.40625 -5.1875 C 4.175781 -5.25 3.921875 -5.28125 3.640625 -5.28125 C 3.203125 -5.28125 2.832031 -5.191406 2.53125 -5.015625 C 2.238281 -4.847656 2.015625 -4.597656 1.859375 -4.265625 C 1.710938 -3.941406 1.640625 -3.546875 1.640625 -3.078125 C 1.640625 -2.359375 1.8125 -1.8125 2.15625 -1.4375 C 2.507812 -1.0625 3.023438 -0.875 3.703125 -0.875 C 3.929688 -0.875 4.164062 -0.894531 4.40625 -0.9375 C 4.644531 -0.988281 4.878906 -1.054688 5.109375 -1.140625 L 4.890625 -0.640625 L 4.890625 -2.5 L 3.921875 -2.5 C 3.773438 -2.5 3.660156 -2.535156 3.578125 -2.609375 C 3.503906 -2.691406 3.46875 -2.796875 3.46875 -2.921875 C 3.46875 -3.054688 3.503906 -3.160156 3.578125 -3.234375 C 3.660156 -3.304688 3.773438 -3.34375 3.921875 -3.34375 L 5.375 -3.34375 C 5.519531 -3.34375 5.628906 -3.300781 5.703125 -3.21875 C 5.785156 -3.144531 5.828125 -3.035156 5.828125 -2.890625 L 5.828125 -0.75 C 5.828125 -0.625 5.800781 -0.515625 5.75 -0.421875 C 5.707031 -0.335938 5.628906 -0.273438 5.515625 -0.234375 C 5.253906 -0.140625 4.957031 -0.0625 4.625 0 C 4.289062 0.0625 3.960938 0.09375 3.640625 0.09375 Z M 3.640625 0.09375 "/></g></g></g><g fill="#ffffff" fill-opacity="1"><g transform="translate(101.100416, 76.598632)"><g><path d="M 0.734375 0.0625 C 0.597656 0.0625 0.484375 0.03125 0.390625 -0.03125 C 0.304688 -0.09375 0.253906 -0.175781 0.234375 -0.28125 C 0.222656 -0.394531 0.25 -0.519531 0.3125 -0.65625 L 2.625 -5.78125 C 2.695312 -5.945312 2.785156 -6.066406 2.890625 -6.140625 C 3.003906 -6.210938 3.128906 -6.25 3.265625 -6.25 C 3.398438 -6.25 3.519531 -6.210938 3.625 -6.140625 C 3.738281 -6.066406 3.832031 -5.945312 3.90625 -5.78125 L 6.234375 -0.65625 C 6.296875 -0.519531 6.316406 -0.394531 6.296875 -0.28125 C 6.285156 -0.164062 6.238281 -0.078125 6.15625 -0.015625 C 6.070312 0.0351562 5.960938 0.0625 5.828125 0.0625 C 5.660156 0.0625 5.53125 0.0234375 5.4375 -0.046875 C 5.351562 -0.128906 5.273438 -0.25 5.203125 -0.40625 L 4.640625 -1.734375 L 5.109375 -1.421875 L 1.40625 -1.421875 L 1.890625 -1.734375 L 1.328125 -0.40625 C 1.242188 -0.238281 1.160156 -0.117188 1.078125 -0.046875 C 1.003906 0.0234375 0.890625 0.0625 0.734375 0.0625 Z M 3.25 -4.96875 L 2.03125 -2.046875 L 1.796875 -2.328125 L 4.71875 -2.328125 L 4.5 -2.046875 L 3.265625 -4.96875 Z M 3.25 -4.96875 "/></g></g></g><g fill="#ffffff" fill-opacity="1"><g transform="translate(110.248727, 76.598632)"><g><path d="M 1.234375 0.0625 C 1.054688 0.0625 0.914062 0.015625 0.8125 -0.078125 C 0.71875 -0.179688 0.671875 -0.328125 0.671875 -0.515625 L 0.671875 -5.609375 C 0.671875 -5.796875 0.71875 -5.9375 0.8125 -6.03125 C 0.914062 -6.132812 1.0625 -6.1875 1.25 -6.1875 L 3.359375 -6.1875 C 4.035156 -6.1875 4.554688 -6.019531 4.921875 -5.6875 C 5.296875 -5.363281 5.484375 -4.910156 5.484375 -4.328125 C 5.484375 -3.953125 5.398438 -3.625 5.234375 -3.34375 C 5.066406 -3.070312 4.820312 -2.863281 4.5 -2.71875 C 4.1875 -2.570312 3.804688 -2.5 3.359375 -2.5 L 3.4375 -2.625 L 3.71875 -2.625 C 3.957031 -2.625 4.164062 -2.566406 4.34375 -2.453125 C 4.53125 -2.335938 4.691406 -2.15625 4.828125 -1.90625 L 5.484375 -0.6875 C 5.546875 -0.5625 5.570312 -0.441406 5.5625 -0.328125 C 5.5625 -0.210938 5.519531 -0.117188 5.4375 -0.046875 C 5.363281 0.0234375 5.242188 0.0625 5.078125 0.0625 C 4.921875 0.0625 4.789062 0.03125 4.6875 -0.03125 C 4.59375 -0.09375 4.507812 -0.195312 4.4375 -0.34375 L 3.546875 -1.96875 C 3.441406 -2.164062 3.316406 -2.296875 3.171875 -2.359375 C 3.035156 -2.429688 2.851562 -2.46875 2.625 -2.46875 L 1.796875 -2.46875 L 1.796875 -0.515625 C 1.796875 -0.328125 1.75 -0.179688 1.65625 -0.078125 C 1.5625 0.015625 1.421875 0.0625 1.234375 0.0625 Z M 1.796875 -3.296875 L 3.171875 -3.296875 C 3.566406 -3.296875 3.867188 -3.378906 4.078125 -3.546875 C 4.285156 -3.710938 4.390625 -3.960938 4.390625 -4.296875 C 4.390625 -4.628906 4.285156 -4.878906 4.078125 -5.046875 C 3.867188 -5.210938 3.566406 -5.296875 3.171875 -5.296875 L 1.796875 -5.296875 Z M 1.796875 -3.296875 "/></g></g></g><g fill="#ffffff" fill-opacity="1"><g transform="translate(118.889432, 76.598632)"><g><path d="M 1.265625 0 C 1.078125 0 0.929688 -0.0507812 0.828125 -0.15625 C 0.722656 -0.257812 0.671875 -0.40625 0.671875 -0.59375 L 0.671875 -5.578125 C 0.671875 -5.773438 0.722656 -5.925781 0.828125 -6.03125 C 0.929688 -6.132812 1.078125 -6.1875 1.265625 -6.1875 L 2.96875 -6.1875 C 4 -6.1875 4.796875 -5.914062 5.359375 -5.375 C 5.929688 -4.84375 6.21875 -4.082031 6.21875 -3.09375 C 6.21875 -2.59375 6.144531 -2.148438 6 -1.765625 C 5.851562 -1.390625 5.640625 -1.066406 5.359375 -0.796875 C 5.085938 -0.535156 4.75 -0.335938 4.34375 -0.203125 C 3.945312 -0.0664062 3.488281 0 2.96875 0 Z M 1.796875 -0.921875 L 2.90625 -0.921875 C 3.257812 -0.921875 3.570312 -0.96875 3.84375 -1.0625 C 4.113281 -1.15625 4.335938 -1.289062 4.515625 -1.46875 C 4.691406 -1.644531 4.820312 -1.867188 4.90625 -2.140625 C 5 -2.410156 5.046875 -2.726562 5.046875 -3.09375 C 5.046875 -3.820312 4.863281 -4.363281 4.5 -4.71875 C 4.144531 -5.070312 3.613281 -5.25 2.90625 -5.25 L 1.796875 -5.25 Z M 1.796875 -0.921875 "/></g></g></g><g fill="#ffffff" fill-opacity="1"><g transform="translate(128.19528, 76.598632)"><g><path d="M 1.265625 0 C 1.078125 0 0.929688 -0.0507812 0.828125 -0.15625 C 0.722656 -0.257812 0.671875 -0.40625 0.671875 -0.59375 L 0.671875 -5.578125 C 0.671875 -5.773438 0.722656 -5.925781 0.828125 -6.03125 C 0.929688 -6.132812 1.078125 -6.1875 1.265625 -6.1875 L 4.40625 -6.1875 C 4.550781 -6.1875 4.660156 -6.144531 4.734375 -6.0625 C 4.816406 -5.988281 4.859375 -5.878906 4.859375 -5.734375 C 4.859375 -5.585938 4.816406 -5.472656 4.734375 -5.390625 C 4.660156 -5.316406 4.550781 -5.28125 4.40625 -5.28125 L 1.75 -5.28125 L 1.75 -3.578125 L 4.203125 -3.578125 C 4.359375 -3.578125 4.472656 -3.539062 4.546875 -3.46875 C 4.617188 -3.394531 4.65625 -3.285156 4.65625 -3.140625 C 4.65625 -2.992188 4.617188 -2.878906 4.546875 -2.796875 C 4.472656 -2.722656 4.359375 -2.6875 4.203125 -2.6875 L 1.75 -2.6875 L 1.75 -0.890625 L 4.40625 -0.890625 C 4.550781 -0.890625 4.660156 -0.851562 4.734375 -0.78125 C 4.816406 -0.707031 4.859375 -0.597656 4.859375 -0.453125 C 4.859375 -0.304688 4.816406 -0.191406 4.734375 -0.109375 C 4.660156 -0.0351562 4.550781 0 4.40625 0 Z M 1.265625 0 "/></g></g></g><g fill="#ffffff" fill-opacity="1"><g transform="translate(136.057061, 76.598632)"><g><path d="M 1.203125 0.0625 C 1.035156 0.0625 0.90625 0.0195312 0.8125 -0.0625 C 0.71875 -0.15625 0.671875 -0.289062 0.671875 -0.46875 L 0.671875 -5.6875 C 0.671875 -5.863281 0.71875 -6 0.8125 -6.09375 C 0.90625 -6.195312 1.023438 -6.25 1.171875 -6.25 C 1.304688 -6.25 1.40625 -6.222656 1.46875 -6.171875 C 1.53125 -6.117188 1.609375 -6.035156 1.703125 -5.921875 L 5.0625 -1.5625 L 4.84375 -1.5625 L 4.84375 -5.71875 C 4.84375 -5.882812 4.882812 -6.015625 4.96875 -6.109375 C 5.0625 -6.203125 5.191406 -6.25 5.359375 -6.25 C 5.535156 -6.25 5.664062 -6.203125 5.75 -6.109375 C 5.832031 -6.015625 5.875 -5.882812 5.875 -5.71875 L 5.875 -0.453125 C 5.875 -0.285156 5.832031 -0.15625 5.75 -0.0625 C 5.675781 0.0195312 5.566406 0.0625 5.421875 0.0625 C 5.285156 0.0625 5.175781 0.0351562 5.09375 -0.015625 C 5.019531 -0.0664062 4.9375 -0.148438 4.84375 -0.265625 L 1.5 -4.625 L 1.71875 -4.625 L 1.71875 -0.46875 C 1.71875 -0.289062 1.671875 -0.15625 1.578125 -0.0625 C 1.492188 0.0195312 1.367188 0.0625 1.203125 0.0625 Z M 1.203125 0.0625 "/></g></g></g></svg>