<svg xmlns="http://www.w3.org/2000/svg" xmlns:xlink="http://www.w3.org/1999/xlink" width="250" zoomAndPan="magnify" viewBox="0 0 187.5 116.249996" height="155" preserveAspectRatio="xMidYMid meet" version="1.0"><defs><g/></defs><g fill="#015201" fill-opacity="1"><g transform="translate(2.675306, 63.259612)"><g><path d="M 14.21875 -24.75 C 17.820312 -24.75 20.671875 -23.847656 22.765625 -22.046875 C 24.867188 -20.242188 25.921875 -17.671875 25.921875 -14.328125 L 18.453125 -14.328125 C 18.453125 -15.734375 18.082031 -16.847656 17.34375 -17.671875 C 16.601562 -18.503906 15.546875 -18.921875 14.171875 -18.921875 C 12.597656 -18.921875 11.4375 -18.425781 10.6875 -17.4375 C 9.945312 -16.445312 9.578125 -15.066406 9.578125 -13.296875 L 9.578125 -11.03125 C 9.578125 -9.289062 9.945312 -7.914062 10.6875 -6.90625 C 11.4375 -5.90625 12.578125 -5.40625 14.109375 -5.40625 C 15.617188 -5.40625 16.757812 -5.796875 17.53125 -6.578125 C 18.3125 -7.359375 18.703125 -8.453125 18.703125 -9.859375 L 25.921875 -9.859375 C 25.921875 -6.535156 24.898438 -3.988281 22.859375 -2.21875 C 20.816406 -0.457031 17.9375 0.421875 14.21875 0.421875 C 10.0625 0.421875 6.914062 -0.632812 4.78125 -2.75 C 2.65625 -4.875 1.59375 -8.007812 1.59375 -12.15625 C 1.59375 -16.3125 2.65625 -19.445312 4.78125 -21.5625 C 6.914062 -23.6875 10.0625 -24.75 14.21875 -24.75 Z M 14.21875 -24.75 "/></g></g></g><g fill="#015201" fill-opacity="1"><g transform="translate(31.553206, 63.259612)"><g><path d="M 19.015625 0 L 19.015625 -9.234375 L 10.4375 -9.234375 L 10.4375 0 L 2.609375 0 L 2.609375 -24.328125 L 10.4375 -24.328125 L 10.4375 -15.453125 L 19.015625 -15.453125 L 19.015625 -24.328125 L 26.84375 -24.328125 L 26.84375 0 Z M 19.015625 0 "/></g></g></g><g fill="#015201" fill-opacity="1"><g transform="translate(62.375128, 63.259612)"><g><path d="M 25.703125 -16.859375 C 25.703125 -15.378906 25.300781 -14.035156 24.5 -12.828125 C 23.695312 -11.628906 22.53125 -10.75 21 -10.1875 L 26.40625 0 L 17.640625 0 L 13.328125 -8.875 L 10.4375 -8.875 L 10.4375 0 L 2.609375 0 L 2.609375 -24.328125 L 17.5 -24.328125 C 19.25 -24.328125 20.738281 -23.988281 21.96875 -23.3125 C 23.207031 -22.644531 24.140625 -21.738281 24.765625 -20.59375 C 25.390625 -19.445312 25.703125 -18.203125 25.703125 -16.859375 Z M 17.75 -16.546875 C 17.75 -17.179688 17.535156 -17.710938 17.109375 -18.140625 C 16.691406 -18.566406 16.175781 -18.78125 15.5625 -18.78125 L 10.4375 -18.78125 L 10.4375 -14.28125 L 15.5625 -14.28125 C 16.175781 -14.28125 16.691406 -14.5 17.109375 -14.9375 C 17.535156 -15.375 17.75 -15.910156 17.75 -16.546875 Z M 17.75 -16.546875 "/></g></g></g><g fill="#015201" fill-opacity="1"><g transform="translate(91.253026, 63.259612)"><g><path d="M 14.703125 -24.75 C 18.898438 -24.75 22.140625 -23.675781 24.421875 -21.53125 C 26.710938 -19.382812 27.859375 -16.257812 27.859375 -12.15625 C 27.859375 -8.0625 26.710938 -4.941406 24.421875 -2.796875 C 22.140625 -0.648438 18.898438 0.421875 14.703125 0.421875 C 10.515625 0.421875 7.28125 -0.640625 5 -2.765625 C 2.726562 -4.898438 1.59375 -8.03125 1.59375 -12.15625 C 1.59375 -16.28125 2.726562 -19.410156 5 -21.546875 C 7.28125 -23.679688 10.515625 -24.75 14.703125 -24.75 Z M 14.703125 -18.921875 C 13.035156 -18.921875 11.765625 -18.410156 10.890625 -17.390625 C 10.015625 -16.378906 9.578125 -15.015625 9.578125 -13.296875 L 9.578125 -11.03125 C 9.578125 -9.3125 10.015625 -7.941406 10.890625 -6.921875 C 11.765625 -5.910156 13.035156 -5.40625 14.703125 -5.40625 C 16.378906 -5.40625 17.660156 -5.910156 18.546875 -6.921875 C 19.429688 -7.941406 19.875 -9.3125 19.875 -11.03125 L 19.875 -13.296875 C 19.875 -15.015625 19.429688 -16.378906 18.546875 -17.390625 C 17.660156 -18.410156 16.378906 -18.921875 14.703125 -18.921875 Z M 14.703125 -18.921875 "/></g></g></g><g fill="#015201" fill-opacity="1"><g transform="translate(122.07495, 63.259612)"><g><path d="M 23.515625 0 L 23.515625 -8.765625 C 23.515625 -9.847656 23.554688 -10.960938 23.640625 -12.109375 C 23.722656 -13.253906 23.8125 -14.210938 23.90625 -14.984375 C 24 -15.765625 24.054688 -16.265625 24.078125 -16.484375 L 23.9375 -16.484375 L 19.453125 0 L 13.328125 0 L 8.796875 -16.4375 L 8.65625 -16.4375 C 8.6875 -16.226562 8.753906 -15.738281 8.859375 -14.96875 C 8.960938 -14.207031 9.0625 -13.253906 9.15625 -12.109375 C 9.25 -10.960938 9.296875 -9.847656 9.296875 -8.765625 L 9.296875 0 L 2.125 0 L 2.125 -24.328125 L 13.15625 -24.328125 L 16.828125 -10.296875 L 16.96875 -10.296875 L 20.609375 -24.328125 L 31.25 -24.328125 L 31.25 0 Z M 23.515625 0 "/></g></g></g><g fill="#015201" fill-opacity="1"><g transform="translate(156.82027, 63.259612)"><g><path d="M 18.921875 0 L 17.890625 -3.4375 L 9.375 -3.4375 L 8.34375 0 L 0.359375 0 L 9.234375 -24.328125 L 18.3125 -24.328125 L 27.1875 0 Z M 11 -8.875 L 16.265625 -8.875 L 13.71875 -17.53125 L 13.578125 -17.53125 Z M 11 -8.875 "/></g></g></g><g fill="#ffffff" fill-opacity="1"><g transform="translate(2.675306, 63.259612)"><g><path d="M 14.21875 -24.75 C 17.820312 -24.75 20.671875 -23.847656 22.765625 -22.046875 C 24.867188 -20.242188 25.921875 -17.671875 25.921875 -14.328125 L 18.453125 -14.328125 C 18.453125 -15.734375 18.082031 -16.847656 17.34375 -17.671875 C 16.601562 -18.503906 15.546875 -18.921875 14.171875 -18.921875 C 12.597656 -18.921875 11.4375 -18.425781 10.6875 -17.4375 C 9.945312 -16.445312 9.578125 -15.066406 9.578125 -13.296875 L 9.578125 -11.03125 C 9.578125 -9.289062 9.945312 -7.914062 10.6875 -6.90625 C 11.4375 -5.90625 12.578125 -5.40625 14.109375 -5.40625 C 15.617188 -5.40625 16.757812 -5.796875 17.53125 -6.578125 C 18.3125 -7.359375 18.703125 -8.453125 18.703125 -9.859375 L 25.921875 -9.859375 C 25.921875 -6.535156 24.898438 -3.988281 22.859375 -2.21875 C 20.816406 -0.457031 17.9375 0.421875 14.21875 0.421875 C 10.0625 0.421875 6.914062 -0.632812 4.78125 -2.75 C 2.65625 -4.875 1.59375 -8.007812 1.59375 -12.15625 C 1.59375 -16.3125 2.65625 -19.445312 4.78125 -21.5625 C 6.914062 -23.6875 10.0625 -24.75 14.21875 -24.75 Z M 14.21875 -24.75 "/></g></g></g><g fill="#ffffff" fill-opacity="1"><g transform="translate(31.553206, 63.259612)"><g><path d="M 19.015625 0 L 19.015625 -9.234375 L 10.4375 -9.234375 L 10.4375 0 L 2.609375 0 L 2.609375 -24.328125 L 10.4375 -24.328125 L 10.4375 -15.453125 L 19.015625 -15.453125 L 19.015625 -24.328125 L 26.84375 -24.328125 L 26.84375 0 Z M 19.015625 0 "/></g></g></g><g fill="#ffffff" fill-opacity="1"><g transform="translate(62.375128, 63.259612)"><g><path d="M 25.703125 -16.859375 C 25.703125 -15.378906 25.300781 -14.035156 24.5 -12.828125 C 23.695312 -11.628906 22.53125 -10.75 21 -10.1875 L 26.40625 0 L 17.640625 0 L 13.328125 -8.875 L 10.4375 -8.875 L 10.4375 0 L 2.609375 0 L 2.609375 -24.328125 L 17.5 -24.328125 C 19.25 -24.328125 20.738281 -23.988281 21.96875 -23.3125 C 23.207031 -22.644531 24.140625 -21.738281 24.765625 -20.59375 C 25.390625 -19.445312 25.703125 -18.203125 25.703125 -16.859375 Z M 17.75 -16.546875 C 17.75 -17.179688 17.535156 -17.710938 17.109375 -18.140625 C 16.691406 -18.566406 16.175781 -18.78125 15.5625 -18.78125 L 10.4375 -18.78125 L 10.4375 -14.28125 L 15.5625 -14.28125 C 16.175781 -14.28125 16.691406 -14.5 17.109375 -14.9375 C 17.535156 -15.375 17.75 -15.910156 17.75 -16.546875 Z M 17.75 -16.546875 "/></g></g></g><g fill="#ffffff" fill-opacity="1"><g transform="translate(91.253026, 63.259612)"><g><path d="M 14.703125 -24.75 C 18.898438 -24.75 22.140625 -23.675781 24.421875 -21.53125 C 26.710938 -19.382812 27.859375 -16.257812 27.859375 -12.15625 C 27.859375 -8.0625 26.710938 -4.941406 24.421875 -2.796875 C 22.140625 -0.648438 18.898438 0.421875 14.703125 0.421875 C 10.515625 0.421875 7.28125 -0.640625 5 -2.765625 C 2.726562 -4.898438 1.59375 -8.03125 1.59375 -12.15625 C 1.59375 -16.28125 2.726562 -19.410156 5 -21.546875 C 7.28125 -23.679688 10.515625 -24.75 14.703125 -24.75 Z M 14.703125 -18.921875 C 13.035156 -18.921875 11.765625 -18.410156 10.890625 -17.390625 C 10.015625 -16.378906 9.578125 -15.015625 9.578125 -13.296875 L 9.578125 -11.03125 C 9.578125 -9.3125 10.015625 -7.941406 10.890625 -6.921875 C 11.765625 -5.910156 13.035156 -5.40625 14.703125 -5.40625 C 16.378906 -5.40625 17.660156 -5.910156 18.546875 -6.921875 C 19.429688 -7.941406 19.875 -9.3125 19.875 -11.03125 L 19.875 -13.296875 C 19.875 -15.015625 19.429688 -16.378906 18.546875 -17.390625 C 17.660156 -18.410156 16.378906 -18.921875 14.703125 -18.921875 Z M 14.703125 -18.921875 "/></g></g></g><g fill="#ffffff" fill-opacity="1"><g transform="translate(122.07495, 63.259612)"><g><path d="M 23.515625 0 L 23.515625 -8.765625 C 23.515625 -9.847656 23.554688 -10.960938 23.640625 -12.109375 C 23.722656 -13.253906 23.8125 -14.210938 23.90625 -14.984375 C 24 -15.765625 24.054688 -16.265625 24.078125 -16.484375 L 23.9375 -16.484375 L 19.453125 0 L 13.328125 0 L 8.796875 -16.4375 L 8.65625 -16.4375 C 8.6875 -16.226562 8.753906 -15.738281 8.859375 -14.96875 C 8.960938 -14.207031 9.0625 -13.253906 9.15625 -12.109375 C 9.25 -10.960938 9.296875 -9.847656 9.296875 -8.765625 L 9.296875 0 L 2.125 0 L 2.125 -24.328125 L 13.15625 -24.328125 L 16.828125 -10.296875 L 16.96875 -10.296875 L 20.609375 -24.328125 L 31.25 -24.328125 L 31.25 0 Z M 23.515625 0 "/></g></g></g><g fill="#ffffff" fill-opacity="1"><g transform="translate(156.82027, 63.259612)"><g><path d="M 18.921875 0 L 17.890625 -3.4375 L 9.375 -3.4375 L 8.34375 0 L 0.359375 0 L 9.234375 -24.328125 L 18.3125 -24.328125 L 27.1875 0 Z M 11 -8.875 L 16.265625 -8.875 L 13.71875 -17.53125 L 13.578125 -17.53125 Z M 11 -8.875 "/></g></g></g><path stroke-linecap="butt" transform="matrix(0.745192, 0, 0, 0.745192, 23.581878, 82.768802)" fill="none" stroke-linejoin="miter" d="M 0.00020598 5.001785 L 187.656256 5.001785 " stroke="#edc700" stroke-width="10" stroke-opacity="1" stroke-miterlimit="4"/><g fill="#000000" fill-opacity="1"><g transform="translate(22.823085, 78.809957)"><g><path d="M 5.265625 0.125 C 4.273438 0.125 3.441406 -0.0546875 2.765625 -0.421875 C 2.085938 -0.796875 1.570312 -1.320312 1.21875 -2 C 0.863281 -2.6875 0.6875 -3.5 0.6875 -4.4375 C 0.6875 -5.144531 0.785156 -5.78125 0.984375 -6.34375 C 1.191406 -6.914062 1.492188 -7.398438 1.890625 -7.796875 C 2.285156 -8.203125 2.765625 -8.507812 3.328125 -8.71875 C 3.890625 -8.9375 4.53125 -9.046875 5.25 -9.046875 C 5.726562 -9.046875 6.203125 -8.988281 6.671875 -8.875 C 7.148438 -8.757812 7.601562 -8.566406 8.03125 -8.296875 C 8.164062 -8.203125 8.253906 -8.085938 8.296875 -7.953125 C 8.347656 -7.828125 8.359375 -7.691406 8.328125 -7.546875 C 8.296875 -7.410156 8.234375 -7.289062 8.140625 -7.1875 C 8.046875 -7.082031 7.925781 -7.015625 7.78125 -6.984375 C 7.644531 -6.960938 7.492188 -7 7.328125 -7.09375 C 7.003906 -7.28125 6.675781 -7.414062 6.34375 -7.5 C 6.019531 -7.582031 5.65625 -7.625 5.25 -7.625 C 4.625 -7.625 4.097656 -7.5 3.671875 -7.25 C 3.242188 -7.007812 2.921875 -6.648438 2.703125 -6.171875 C 2.484375 -5.703125 2.375 -5.125 2.375 -4.4375 C 2.375 -3.40625 2.625 -2.617188 3.125 -2.078125 C 3.625 -1.535156 4.363281 -1.265625 5.34375 -1.265625 C 5.675781 -1.265625 6.015625 -1.296875 6.359375 -1.359375 C 6.710938 -1.429688 7.050781 -1.523438 7.375 -1.640625 L 7.0625 -0.921875 L 7.0625 -3.625 L 5.671875 -3.625 C 5.460938 -3.625 5.300781 -3.675781 5.1875 -3.78125 C 5.070312 -3.894531 5.015625 -4.046875 5.015625 -4.234375 C 5.015625 -4.421875 5.070312 -4.566406 5.1875 -4.671875 C 5.300781 -4.773438 5.460938 -4.828125 5.671875 -4.828125 L 7.765625 -4.828125 C 7.972656 -4.828125 8.132812 -4.769531 8.25 -4.65625 C 8.363281 -4.539062 8.421875 -4.375 8.421875 -4.15625 L 8.421875 -1.09375 C 8.421875 -0.90625 8.382812 -0.75 8.3125 -0.625 C 8.238281 -0.5 8.117188 -0.40625 7.953125 -0.34375 C 7.585938 -0.207031 7.164062 -0.09375 6.6875 0 C 6.207031 0.0820312 5.734375 0.125 5.265625 0.125 Z M 5.265625 0.125 "/></g></g></g><g fill="#000000" fill-opacity="1"><g transform="translate(35.937005, 78.809957)"><g><path d="M 1.78125 0.09375 C 1.519531 0.09375 1.316406 0.0195312 1.171875 -0.125 C 1.035156 -0.269531 0.96875 -0.472656 0.96875 -0.734375 L 0.96875 -8.09375 C 0.96875 -8.363281 1.039062 -8.566406 1.1875 -8.703125 C 1.332031 -8.847656 1.535156 -8.921875 1.796875 -8.921875 L 4.84375 -8.921875 C 5.820312 -8.921875 6.578125 -8.6875 7.109375 -8.21875 C 7.640625 -7.75 7.90625 -7.09375 7.90625 -6.25 C 7.90625 -5.695312 7.785156 -5.222656 7.546875 -4.828125 C 7.304688 -4.429688 6.957031 -4.128906 6.5 -3.921875 C 6.050781 -3.710938 5.5 -3.609375 4.84375 -3.609375 L 4.96875 -3.796875 L 5.375 -3.796875 C 5.71875 -3.796875 6.019531 -3.710938 6.28125 -3.546875 C 6.539062 -3.378906 6.765625 -3.113281 6.953125 -2.75 L 7.90625 -0.984375 C 8.007812 -0.804688 8.054688 -0.632812 8.046875 -0.46875 C 8.035156 -0.300781 7.972656 -0.164062 7.859375 -0.0625 C 7.742188 0.0390625 7.570312 0.09375 7.34375 0.09375 C 7.113281 0.09375 6.925781 0.046875 6.78125 -0.046875 C 6.632812 -0.140625 6.507812 -0.289062 6.40625 -0.5 L 5.125 -2.84375 C 4.96875 -3.132812 4.785156 -3.328125 4.578125 -3.421875 C 4.378906 -3.515625 4.117188 -3.5625 3.796875 -3.5625 L 2.59375 -3.5625 L 2.59375 -0.734375 C 2.59375 -0.472656 2.523438 -0.269531 2.390625 -0.125 C 2.253906 0.0195312 2.050781 0.09375 1.78125 0.09375 Z M 2.59375 -4.765625 L 4.5625 -4.765625 C 5.144531 -4.765625 5.585938 -4.882812 5.890625 -5.125 C 6.191406 -5.375 6.34375 -5.738281 6.34375 -6.21875 C 6.34375 -6.6875 6.191406 -7.039062 5.890625 -7.28125 C 5.585938 -7.519531 5.144531 -7.640625 4.5625 -7.640625 L 2.59375 -7.640625 Z M 2.59375 -4.765625 "/></g></g></g><g fill="#000000" fill-opacity="1"><g transform="translate(48.418811, 78.809957)"><g><path d="M 1.828125 0 C 1.554688 0 1.34375 -0.0703125 1.1875 -0.21875 C 1.039062 -0.363281 0.96875 -0.578125 0.96875 -0.859375 L 0.96875 -8.0625 C 0.96875 -8.34375 1.039062 -8.554688 1.1875 -8.703125 C 1.34375 -8.847656 1.554688 -8.921875 1.828125 -8.921875 L 6.359375 -8.921875 C 6.566406 -8.921875 6.726562 -8.863281 6.84375 -8.75 C 6.957031 -8.644531 7.015625 -8.492188 7.015625 -8.296875 C 7.015625 -8.078125 6.957031 -7.910156 6.84375 -7.796875 C 6.726562 -7.679688 6.566406 -7.625 6.359375 -7.625 L 2.53125 -7.625 L 2.53125 -5.171875 L 6.078125 -5.171875 C 6.296875 -5.171875 6.457031 -5.113281 6.5625 -5 C 6.675781 -4.894531 6.734375 -4.738281 6.734375 -4.53125 C 6.734375 -4.320312 6.675781 -4.160156 6.5625 -4.046875 C 6.457031 -3.941406 6.296875 -3.890625 6.078125 -3.890625 L 2.53125 -3.890625 L 2.53125 -1.296875 L 6.359375 -1.296875 C 6.566406 -1.296875 6.726562 -1.238281 6.84375 -1.125 C 6.957031 -1.019531 7.015625 -0.859375 7.015625 -0.640625 C 7.015625 -0.429688 6.957031 -0.269531 6.84375 -0.15625 C 6.726562 -0.0507812 6.566406 0 6.359375 0 Z M 1.828125 0 "/></g></g></g><g fill="#000000" fill-opacity="1"><g transform="translate(59.775433, 78.809957)"><g><path d="M 1.828125 0 C 1.554688 0 1.34375 -0.0703125 1.1875 -0.21875 C 1.039062 -0.363281 0.96875 -0.578125 0.96875 -0.859375 L 0.96875 -8.0625 C 0.96875 -8.34375 1.039062 -8.554688 1.1875 -8.703125 C 1.34375 -8.847656 1.554688 -8.921875 1.828125 -8.921875 L 6.359375 -8.921875 C 6.566406 -8.921875 6.726562 -8.863281 6.84375 -8.75 C 6.957031 -8.644531 7.015625 -8.492188 7.015625 -8.296875 C 7.015625 -8.078125 6.957031 -7.910156 6.84375 -7.796875 C 6.726562 -7.679688 6.566406 -7.625 6.359375 -7.625 L 2.53125 -7.625 L 2.53125 -5.171875 L 6.078125 -5.171875 C 6.296875 -5.171875 6.457031 -5.113281 6.5625 -5 C 6.675781 -4.894531 6.734375 -4.738281 6.734375 -4.53125 C 6.734375 -4.320312 6.675781 -4.160156 6.5625 -4.046875 C 6.457031 -3.941406 6.296875 -3.890625 6.078125 -3.890625 L 2.53125 -3.890625 L 2.53125 -1.296875 L 6.359375 -1.296875 C 6.566406 -1.296875 6.726562 -1.238281 6.84375 -1.125 C 6.957031 -1.019531 7.015625 -0.859375 7.015625 -0.640625 C 7.015625 -0.429688 6.957031 -0.269531 6.84375 -0.15625 C 6.726562 -0.0507812 6.566406 0 6.359375 0 Z M 1.828125 0 "/></g></g></g><g fill="#000000" fill-opacity="1"><g transform="translate(71.132055, 78.809957)"><g><path d="M 1.734375 0.09375 C 1.484375 0.09375 1.289062 0.03125 1.15625 -0.09375 C 1.03125 -0.226562 0.96875 -0.425781 0.96875 -0.6875 L 0.96875 -8.21875 C 0.96875 -8.476562 1.03125 -8.675781 1.15625 -8.8125 C 1.289062 -8.957031 1.46875 -9.03125 1.6875 -9.03125 C 1.875 -9.03125 2.015625 -8.992188 2.109375 -8.921875 C 2.210938 -8.847656 2.332031 -8.726562 2.46875 -8.5625 L 7.3125 -2.265625 L 6.984375 -2.265625 L 6.984375 -8.25 C 6.984375 -8.5 7.046875 -8.691406 7.171875 -8.828125 C 7.304688 -8.960938 7.5 -9.03125 7.75 -9.03125 C 7.988281 -9.03125 8.171875 -8.960938 8.296875 -8.828125 C 8.429688 -8.691406 8.5 -8.5 8.5 -8.25 L 8.5 -0.65625 C 8.5 -0.414062 8.4375 -0.226562 8.3125 -0.09375 C 8.195312 0.03125 8.035156 0.09375 7.828125 0.09375 C 7.640625 0.09375 7.488281 0.0546875 7.375 -0.015625 C 7.257812 -0.0859375 7.132812 -0.207031 7 -0.375 L 2.171875 -6.671875 L 2.484375 -6.671875 L 2.484375 -0.6875 C 2.484375 -0.425781 2.414062 -0.226562 2.28125 -0.09375 C 2.15625 0.03125 1.972656 0.09375 1.734375 0.09375 Z M 1.734375 0.09375 "/></g></g></g><g fill="#000000" fill-opacity="1"><g transform="translate(84.397681, 78.809957)"><g/></g></g><g fill="#000000" fill-opacity="1"><g transform="translate(91.632881, 78.809957)"><g><path d="M 5.265625 0.125 C 4.273438 0.125 3.441406 -0.0546875 2.765625 -0.421875 C 2.085938 -0.796875 1.570312 -1.320312 1.21875 -2 C 0.863281 -2.6875 0.6875 -3.5 0.6875 -4.4375 C 0.6875 -5.144531 0.785156 -5.78125 0.984375 -6.34375 C 1.191406 -6.914062 1.492188 -7.398438 1.890625 -7.796875 C 2.285156 -8.203125 2.765625 -8.507812 3.328125 -8.71875 C 3.890625 -8.9375 4.53125 -9.046875 5.25 -9.046875 C 5.726562 -9.046875 6.203125 -8.988281 6.671875 -8.875 C 7.148438 -8.757812 7.601562 -8.566406 8.03125 -8.296875 C 8.164062 -8.203125 8.253906 -8.085938 8.296875 -7.953125 C 8.347656 -7.828125 8.359375 -7.691406 8.328125 -7.546875 C 8.296875 -7.410156 8.234375 -7.289062 8.140625 -7.1875 C 8.046875 -7.082031 7.925781 -7.015625 7.78125 -6.984375 C 7.644531 -6.960938 7.492188 -7 7.328125 -7.09375 C 7.003906 -7.28125 6.675781 -7.414062 6.34375 -7.5 C 6.019531 -7.582031 5.65625 -7.625 5.25 -7.625 C 4.625 -7.625 4.097656 -7.5 3.671875 -7.25 C 3.242188 -7.007812 2.921875 -6.648438 2.703125 -6.171875 C 2.484375 -5.703125 2.375 -5.125 2.375 -4.4375 C 2.375 -3.40625 2.625 -2.617188 3.125 -2.078125 C 3.625 -1.535156 4.363281 -1.265625 5.34375 -1.265625 C 5.675781 -1.265625 6.015625 -1.296875 6.359375 -1.359375 C 6.710938 -1.429688 7.050781 -1.523438 7.375 -1.640625 L 7.0625 -0.921875 L 7.0625 -3.625 L 5.671875 -3.625 C 5.460938 -3.625 5.300781 -3.675781 5.1875 -3.78125 C 5.070312 -3.894531 5.015625 -4.046875 5.015625 -4.234375 C 5.015625 -4.421875 5.070312 -4.566406 5.1875 -4.671875 C 5.300781 -4.773438 5.460938 -4.828125 5.671875 -4.828125 L 7.765625 -4.828125 C 7.972656 -4.828125 8.132812 -4.769531 8.25 -4.65625 C 8.363281 -4.539062 8.421875 -4.375 8.421875 -4.15625 L 8.421875 -1.09375 C 8.421875 -0.90625 8.382812 -0.75 8.3125 -0.625 C 8.238281 -0.5 8.117188 -0.40625 7.953125 -0.34375 C 7.585938 -0.207031 7.164062 -0.09375 6.6875 0 C 6.207031 0.0820312 5.734375 0.125 5.265625 0.125 Z M 5.265625 0.125 "/></g></g></g><g fill="#000000" fill-opacity="1"><g transform="translate(104.746798, 78.809957)"><g><path d="M 1.0625 0.09375 C 0.863281 0.09375 0.703125 0.0507812 0.578125 -0.03125 C 0.453125 -0.125 0.375 -0.25 0.34375 -0.40625 C 0.320312 -0.5625 0.351562 -0.738281 0.4375 -0.9375 L 3.78125 -8.34375 C 3.894531 -8.582031 4.03125 -8.753906 4.1875 -8.859375 C 4.34375 -8.972656 4.519531 -9.03125 4.71875 -9.03125 C 4.914062 -9.03125 5.09375 -8.972656 5.25 -8.859375 C 5.40625 -8.753906 5.535156 -8.582031 5.640625 -8.34375 L 9 -0.9375 C 9.09375 -0.738281 9.125 -0.5625 9.09375 -0.40625 C 9.070312 -0.25 9 -0.125 8.875 -0.03125 C 8.757812 0.0507812 8.609375 0.09375 8.421875 0.09375 C 8.179688 0.09375 7.992188 0.0390625 7.859375 -0.0625 C 7.734375 -0.175781 7.617188 -0.351562 7.515625 -0.59375 L 6.6875 -2.5 L 7.375 -2.0625 L 2.03125 -2.0625 L 2.71875 -2.5 L 1.90625 -0.59375 C 1.800781 -0.351562 1.6875 -0.175781 1.5625 -0.0625 C 1.445312 0.0390625 1.28125 0.09375 1.0625 0.09375 Z M 4.703125 -7.15625 L 2.921875 -2.953125 L 2.59375 -3.359375 L 6.828125 -3.359375 L 6.5 -2.953125 L 4.71875 -7.15625 Z M 4.703125 -7.15625 "/></g></g></g><g fill="#000000" fill-opacity="1"><g transform="translate(117.961854, 78.809957)"><g><path d="M 1.78125 0.09375 C 1.519531 0.09375 1.316406 0.0195312 1.171875 -0.125 C 1.035156 -0.269531 0.96875 -0.472656 0.96875 -0.734375 L 0.96875 -8.09375 C 0.96875 -8.363281 1.039062 -8.566406 1.1875 -8.703125 C 1.332031 -8.847656 1.535156 -8.921875 1.796875 -8.921875 L 4.84375 -8.921875 C 5.820312 -8.921875 6.578125 -8.6875 7.109375 -8.21875 C 7.640625 -7.75 7.90625 -7.09375 7.90625 -6.25 C 7.90625 -5.695312 7.785156 -5.222656 7.546875 -4.828125 C 7.304688 -4.429688 6.957031 -4.128906 6.5 -3.921875 C 6.050781 -3.710938 5.5 -3.609375 4.84375 -3.609375 L 4.96875 -3.796875 L 5.375 -3.796875 C 5.71875 -3.796875 6.019531 -3.710938 6.28125 -3.546875 C 6.539062 -3.378906 6.765625 -3.113281 6.953125 -2.75 L 7.90625 -0.984375 C 8.007812 -0.804688 8.054688 -0.632812 8.046875 -0.46875 C 8.035156 -0.300781 7.972656 -0.164062 7.859375 -0.0625 C 7.742188 0.0390625 7.570312 0.09375 7.34375 0.09375 C 7.113281 0.09375 6.925781 0.046875 6.78125 -0.046875 C 6.632812 -0.140625 6.507812 -0.289062 6.40625 -0.5 L 5.125 -2.84375 C 4.96875 -3.132812 4.785156 -3.328125 4.578125 -3.421875 C 4.378906 -3.515625 4.117188 -3.5625 3.796875 -3.5625 L 2.59375 -3.5625 L 2.59375 -0.734375 C 2.59375 -0.472656 2.523438 -0.269531 2.390625 -0.125 C 2.253906 0.0195312 2.050781 0.09375 1.78125 0.09375 Z M 2.59375 -4.765625 L 4.5625 -4.765625 C 5.144531 -4.765625 5.585938 -4.882812 5.890625 -5.125 C 6.191406 -5.375 6.34375 -5.738281 6.34375 -6.21875 C 6.34375 -6.6875 6.191406 -7.039062 5.890625 -7.28125 C 5.585938 -7.519531 5.144531 -7.640625 4.5625 -7.640625 L 2.59375 -7.640625 Z M 2.59375 -4.765625 "/></g></g></g><g fill="#000000" fill-opacity="1"><g transform="translate(130.443656, 78.809957)"><g><path d="M 1.828125 0 C 1.554688 0 1.34375 -0.0703125 1.1875 -0.21875 C 1.039062 -0.363281 0.96875 -0.578125 0.96875 -0.859375 L 0.96875 -8.0625 C 0.96875 -8.34375 1.039062 -8.554688 1.1875 -8.703125 C 1.34375 -8.847656 1.554688 -8.921875 1.828125 -8.921875 L 4.296875 -8.921875 C 5.785156 -8.921875 6.9375 -8.535156 7.75 -7.765625 C 8.5625 -7.003906 8.96875 -5.90625 8.96875 -4.46875 C 8.96875 -3.75 8.863281 -3.113281 8.65625 -2.5625 C 8.457031 -2.007812 8.15625 -1.539062 7.75 -1.15625 C 7.351562 -0.78125 6.863281 -0.492188 6.28125 -0.296875 C 5.707031 -0.0976562 5.046875 0 4.296875 0 Z M 2.59375 -1.34375 L 4.1875 -1.34375 C 4.707031 -1.34375 5.160156 -1.40625 5.546875 -1.53125 C 5.929688 -1.664062 6.25 -1.859375 6.5 -2.109375 C 6.757812 -2.367188 6.953125 -2.695312 7.078125 -3.09375 C 7.210938 -3.488281 7.28125 -3.945312 7.28125 -4.46875 C 7.28125 -5.507812 7.019531 -6.285156 6.5 -6.796875 C 5.988281 -7.316406 5.21875 -7.578125 4.1875 -7.578125 L 2.59375 -7.578125 Z M 2.59375 -1.34375 "/></g></g></g><g fill="#000000" fill-opacity="1"><g transform="translate(143.886281, 78.809957)"><g><path d="M 1.828125 0 C 1.554688 0 1.34375 -0.0703125 1.1875 -0.21875 C 1.039062 -0.363281 0.96875 -0.578125 0.96875 -0.859375 L 0.96875 -8.0625 C 0.96875 -8.34375 1.039062 -8.554688 1.1875 -8.703125 C 1.34375 -8.847656 1.554688 -8.921875 1.828125 -8.921875 L 6.359375 -8.921875 C 6.566406 -8.921875 6.726562 -8.863281 6.84375 -8.75 C 6.957031 -8.644531 7.015625 -8.492188 7.015625 -8.296875 C 7.015625 -8.078125 6.957031 -7.910156 6.84375 -7.796875 C 6.726562 -7.679688 6.566406 -7.625 6.359375 -7.625 L 2.53125 -7.625 L 2.53125 -5.171875 L 6.078125 -5.171875 C 6.296875 -5.171875 6.457031 -5.113281 6.5625 -5 C 6.675781 -4.894531 6.734375 -4.738281 6.734375 -4.53125 C 6.734375 -4.320312 6.675781 -4.160156 6.5625 -4.046875 C 6.457031 -3.941406 6.296875 -3.890625 6.078125 -3.890625 L 2.53125 -3.890625 L 2.53125 -1.296875 L 6.359375 -1.296875 C 6.566406 -1.296875 6.726562 -1.238281 6.84375 -1.125 C 6.957031 -1.019531 7.015625 -0.859375 7.015625 -0.640625 C 7.015625 -0.429688 6.957031 -0.269531 6.84375 -0.15625 C 6.726562 -0.0507812 6.566406 0 6.359375 0 Z M 1.828125 0 "/></g></g></g><g fill="#000000" fill-opacity="1"><g transform="translate(155.2429, 78.809957)"><g><path d="M 1.734375 0.09375 C 1.484375 0.09375 1.289062 0.03125 1.15625 -0.09375 C 1.03125 -0.226562 0.96875 -0.425781 0.96875 -0.6875 L 0.96875 -8.21875 C 0.96875 -8.476562 1.03125 -8.675781 1.15625 -8.8125 C 1.289062 -8.957031 1.46875 -9.03125 1.6875 -9.03125 C 1.875 -9.03125 2.015625 -8.992188 2.109375 -8.921875 C 2.210938 -8.847656 2.332031 -8.726562 2.46875 -8.5625 L 7.3125 -2.265625 L 6.984375 -2.265625 L 6.984375 -8.25 C 6.984375 -8.5 7.046875 -8.691406 7.171875 -8.828125 C 7.304688 -8.960938 7.5 -9.03125 7.75 -9.03125 C 7.988281 -9.03125 8.171875 -8.960938 8.296875 -8.828125 C 8.429688 -8.691406 8.5 -8.5 8.5 -8.25 L 8.5 -0.65625 C 8.5 -0.414062 8.4375 -0.226562 8.3125 -0.09375 C 8.195312 0.03125 8.035156 0.09375 7.828125 0.09375 C 7.640625 0.09375 7.488281 0.0546875 7.375 -0.015625 C 7.257812 -0.0859375 7.132812 -0.207031 7 -0.375 L 2.171875 -6.671875 L 2.484375 -6.671875 L 2.484375 -0.6875 C 2.484375 -0.425781 2.414062 -0.226562 2.28125 -0.09375 C 2.15625 0.03125 1.972656 0.09375 1.734375 0.09375 Z M 1.734375 0.09375 "/></g></g></g><g fill="#000000" fill-opacity="1"><g transform="translate(22.554636, 78.541507)"><g><path d="M 5.265625 0.125 C 4.273438 0.125 3.441406 -0.0546875 2.765625 -0.421875 C 2.085938 -0.796875 1.570312 -1.320312 1.21875 -2 C 0.863281 -2.6875 0.6875 -3.5 0.6875 -4.4375 C 0.6875 -5.144531 0.785156 -5.78125 0.984375 -6.34375 C 1.191406 -6.914062 1.492188 -7.398438 1.890625 -7.796875 C 2.285156 -8.203125 2.765625 -8.507812 3.328125 -8.71875 C 3.890625 -8.9375 4.53125 -9.046875 5.25 -9.046875 C 5.726562 -9.046875 6.203125 -8.988281 6.671875 -8.875 C 7.148438 -8.757812 7.601562 -8.566406 8.03125 -8.296875 C 8.164062 -8.203125 8.253906 -8.085938 8.296875 -7.953125 C 8.347656 -7.828125 8.359375 -7.691406 8.328125 -7.546875 C 8.296875 -7.410156 8.234375 -7.289062 8.140625 -7.1875 C 8.046875 -7.082031 7.925781 -7.015625 7.78125 -6.984375 C 7.644531 -6.960938 7.492188 -7 7.328125 -7.09375 C 7.003906 -7.28125 6.675781 -7.414062 6.34375 -7.5 C 6.019531 -7.582031 5.65625 -7.625 5.25 -7.625 C 4.625 -7.625 4.097656 -7.5 3.671875 -7.25 C 3.242188 -7.007812 2.921875 -6.648438 2.703125 -6.171875 C 2.484375 -5.703125 2.375 -5.125 2.375 -4.4375 C 2.375 -3.40625 2.625 -2.617188 3.125 -2.078125 C 3.625 -1.535156 4.363281 -1.265625 5.34375 -1.265625 C 5.675781 -1.265625 6.015625 -1.296875 6.359375 -1.359375 C 6.710938 -1.429688 7.050781 -1.523438 7.375 -1.640625 L 7.0625 -0.921875 L 7.0625 -3.625 L 5.671875 -3.625 C 5.460938 -3.625 5.300781 -3.675781 5.1875 -3.78125 C 5.070312 -3.894531 5.015625 -4.046875 5.015625 -4.234375 C 5.015625 -4.421875 5.070312 -4.566406 5.1875 -4.671875 C 5.300781 -4.773438 5.460938 -4.828125 5.671875 -4.828125 L 7.765625 -4.828125 C 7.972656 -4.828125 8.132812 -4.769531 8.25 -4.65625 C 8.363281 -4.539062 8.421875 -4.375 8.421875 -4.15625 L 8.421875 -1.09375 C 8.421875 -0.90625 8.382812 -0.75 8.3125 -0.625 C 8.238281 -0.5 8.117188 -0.40625 7.953125 -0.34375 C 7.585938 -0.207031 7.164062 -0.09375 6.6875 0 C 6.207031 0.0820312 5.734375 0.125 5.265625 0.125 Z M 5.265625 0.125 "/></g></g></g><g fill="#000000" fill-opacity="1"><g transform="translate(35.668556, 78.541507)"><g><path d="M 1.78125 0.09375 C 1.519531 0.09375 1.316406 0.0195312 1.171875 -0.125 C 1.035156 -0.269531 0.96875 -0.472656 0.96875 -0.734375 L 0.96875 -8.09375 C 0.96875 -8.363281 1.039062 -8.566406 1.1875 -8.703125 C 1.332031 -8.847656 1.535156 -8.921875 1.796875 -8.921875 L 4.84375 -8.921875 C 5.820312 -8.921875 6.578125 -8.6875 7.109375 -8.21875 C 7.640625 -7.75 7.90625 -7.09375 7.90625 -6.25 C 7.90625 -5.695312 7.785156 -5.222656 7.546875 -4.828125 C 7.304688 -4.429688 6.957031 -4.128906 6.5 -3.921875 C 6.050781 -3.710938 5.5 -3.609375 4.84375 -3.609375 L 4.96875 -3.796875 L 5.375 -3.796875 C 5.71875 -3.796875 6.019531 -3.710938 6.28125 -3.546875 C 6.539062 -3.378906 6.765625 -3.113281 6.953125 -2.75 L 7.90625 -0.984375 C 8.007812 -0.804688 8.054688 -0.632812 8.046875 -0.46875 C 8.035156 -0.300781 7.972656 -0.164062 7.859375 -0.0625 C 7.742188 0.0390625 7.570312 0.09375 7.34375 0.09375 C 7.113281 0.09375 6.925781 0.046875 6.78125 -0.046875 C 6.632812 -0.140625 6.507812 -0.289062 6.40625 -0.5 L 5.125 -2.84375 C 4.96875 -3.132812 4.785156 -3.328125 4.578125 -3.421875 C 4.378906 -3.515625 4.117188 -3.5625 3.796875 -3.5625 L 2.59375 -3.5625 L 2.59375 -0.734375 C 2.59375 -0.472656 2.523438 -0.269531 2.390625 -0.125 C 2.253906 0.0195312 2.050781 0.09375 1.78125 0.09375 Z M 2.59375 -4.765625 L 4.5625 -4.765625 C 5.144531 -4.765625 5.585938 -4.882812 5.890625 -5.125 C 6.191406 -5.375 6.34375 -5.738281 6.34375 -6.21875 C 6.34375 -6.6875 6.191406 -7.039062 5.890625 -7.28125 C 5.585938 -7.519531 5.144531 -7.640625 4.5625 -7.640625 L 2.59375 -7.640625 Z M 2.59375 -4.765625 "/></g></g></g><g fill="#000000" fill-opacity="1"><g transform="translate(48.150361, 78.541507)"><g><path d="M 1.828125 0 C 1.554688 0 1.34375 -0.0703125 1.1875 -0.21875 C 1.039062 -0.363281 0.96875 -0.578125 0.96875 -0.859375 L 0.96875 -8.0625 C 0.96875 -8.34375 1.039062 -8.554688 1.1875 -8.703125 C 1.34375 -8.847656 1.554688 -8.921875 1.828125 -8.921875 L 6.359375 -8.921875 C 6.566406 -8.921875 6.726562 -8.863281 6.84375 -8.75 C 6.957031 -8.644531 7.015625 -8.492188 7.015625 -8.296875 C 7.015625 -8.078125 6.957031 -7.910156 6.84375 -7.796875 C 6.726562 -7.679688 6.566406 -7.625 6.359375 -7.625 L 2.53125 -7.625 L 2.53125 -5.171875 L 6.078125 -5.171875 C 6.296875 -5.171875 6.457031 -5.113281 6.5625 -5 C 6.675781 -4.894531 6.734375 -4.738281 6.734375 -4.53125 C 6.734375 -4.320312 6.675781 -4.160156 6.5625 -4.046875 C 6.457031 -3.941406 6.296875 -3.890625 6.078125 -3.890625 L 2.53125 -3.890625 L 2.53125 -1.296875 L 6.359375 -1.296875 C 6.566406 -1.296875 6.726562 -1.238281 6.84375 -1.125 C 6.957031 -1.019531 7.015625 -0.859375 7.015625 -0.640625 C 7.015625 -0.429688 6.957031 -0.269531 6.84375 -0.15625 C 6.726562 -0.0507812 6.566406 0 6.359375 0 Z M 1.828125 0 "/></g></g></g><g fill="#000000" fill-opacity="1"><g transform="translate(59.506983, 78.541507)"><g><path d="M 1.828125 0 C 1.554688 0 1.34375 -0.0703125 1.1875 -0.21875 C 1.039062 -0.363281 0.96875 -0.578125 0.96875 -0.859375 L 0.96875 -8.0625 C 0.96875 -8.34375 1.039062 -8.554688 1.1875 -8.703125 C 1.34375 -8.847656 1.554688 -8.921875 1.828125 -8.921875 L 6.359375 -8.921875 C 6.566406 -8.921875 6.726562 -8.863281 6.84375 -8.75 C 6.957031 -8.644531 7.015625 -8.492188 7.015625 -8.296875 C 7.015625 -8.078125 6.957031 -7.910156 6.84375 -7.796875 C 6.726562 -7.679688 6.566406 -7.625 6.359375 -7.625 L 2.53125 -7.625 L 2.53125 -5.171875 L 6.078125 -5.171875 C 6.296875 -5.171875 6.457031 -5.113281 6.5625 -5 C 6.675781 -4.894531 6.734375 -4.738281 6.734375 -4.53125 C 6.734375 -4.320312 6.675781 -4.160156 6.5625 -4.046875 C 6.457031 -3.941406 6.296875 -3.890625 6.078125 -3.890625 L 2.53125 -3.890625 L 2.53125 -1.296875 L 6.359375 -1.296875 C 6.566406 -1.296875 6.726562 -1.238281 6.84375 -1.125 C 6.957031 -1.019531 7.015625 -0.859375 7.015625 -0.640625 C 7.015625 -0.429688 6.957031 -0.269531 6.84375 -0.15625 C 6.726562 -0.0507812 6.566406 0 6.359375 0 Z M 1.828125 0 "/></g></g></g><g fill="#000000" fill-opacity="1"><g transform="translate(70.863605, 78.541507)"><g><path d="M 1.734375 0.09375 C 1.484375 0.09375 1.289062 0.03125 1.15625 -0.09375 C 1.03125 -0.226562 0.96875 -0.425781 0.96875 -0.6875 L 0.96875 -8.21875 C 0.96875 -8.476562 1.03125 -8.675781 1.15625 -8.8125 C 1.289062 -8.957031 1.46875 -9.03125 1.6875 -9.03125 C 1.875 -9.03125 2.015625 -8.992188 2.109375 -8.921875 C 2.210938 -8.847656 2.332031 -8.726562 2.46875 -8.5625 L 7.3125 -2.265625 L 6.984375 -2.265625 L 6.984375 -8.25 C 6.984375 -8.5 7.046875 -8.691406 7.171875 -8.828125 C 7.304688 -8.960938 7.5 -9.03125 7.75 -9.03125 C 7.988281 -9.03125 8.171875 -8.960938 8.296875 -8.828125 C 8.429688 -8.691406 8.5 -8.5 8.5 -8.25 L 8.5 -0.65625 C 8.5 -0.414062 8.4375 -0.226562 8.3125 -0.09375 C 8.195312 0.03125 8.035156 0.09375 7.828125 0.09375 C 7.640625 0.09375 7.488281 0.0546875 7.375 -0.015625 C 7.257812 -0.0859375 7.132812 -0.207031 7 -0.375 L 2.171875 -6.671875 L 2.484375 -6.671875 L 2.484375 -0.6875 C 2.484375 -0.425781 2.414062 -0.226562 2.28125 -0.09375 C 2.15625 0.03125 1.972656 0.09375 1.734375 0.09375 Z M 1.734375 0.09375 "/></g></g></g><g fill="#000000" fill-opacity="1"><g transform="translate(84.129231, 78.541507)"><g/></g></g><g fill="#000000" fill-opacity="1"><g transform="translate(91.364431, 78.541507)"><g><path d="M 5.265625 0.125 C 4.273438 0.125 3.441406 -0.0546875 2.765625 -0.421875 C 2.085938 -0.796875 1.570312 -1.320312 1.21875 -2 C 0.863281 -2.6875 0.6875 -3.5 0.6875 -4.4375 C 0.6875 -5.144531 0.785156 -5.78125 0.984375 -6.34375 C 1.191406 -6.914062 1.492188 -7.398438 1.890625 -7.796875 C 2.285156 -8.203125 2.765625 -8.507812 3.328125 -8.71875 C 3.890625 -8.9375 4.53125 -9.046875 5.25 -9.046875 C 5.726562 -9.046875 6.203125 -8.988281 6.671875 -8.875 C 7.148438 -8.757812 7.601562 -8.566406 8.03125 -8.296875 C 8.164062 -8.203125 8.253906 -8.085938 8.296875 -7.953125 C 8.347656 -7.828125 8.359375 -7.691406 8.328125 -7.546875 C 8.296875 -7.410156 8.234375 -7.289062 8.140625 -7.1875 C 8.046875 -7.082031 7.925781 -7.015625 7.78125 -6.984375 C 7.644531 -6.960938 7.492188 -7 7.328125 -7.09375 C 7.003906 -7.28125 6.675781 -7.414062 6.34375 -7.5 C 6.019531 -7.582031 5.65625 -7.625 5.25 -7.625 C 4.625 -7.625 4.097656 -7.5 3.671875 -7.25 C 3.242188 -7.007812 2.921875 -6.648438 2.703125 -6.171875 C 2.484375 -5.703125 2.375 -5.125 2.375 -4.4375 C 2.375 -3.40625 2.625 -2.617188 3.125 -2.078125 C 3.625 -1.535156 4.363281 -1.265625 5.34375 -1.265625 C 5.675781 -1.265625 6.015625 -1.296875 6.359375 -1.359375 C 6.710938 -1.429688 7.050781 -1.523438 7.375 -1.640625 L 7.0625 -0.921875 L 7.0625 -3.625 L 5.671875 -3.625 C 5.460938 -3.625 5.300781 -3.675781 5.1875 -3.78125 C 5.070312 -3.894531 5.015625 -4.046875 5.015625 -4.234375 C 5.015625 -4.421875 5.070312 -4.566406 5.1875 -4.671875 C 5.300781 -4.773438 5.460938 -4.828125 5.671875 -4.828125 L 7.765625 -4.828125 C 7.972656 -4.828125 8.132812 -4.769531 8.25 -4.65625 C 8.363281 -4.539062 8.421875 -4.375 8.421875 -4.15625 L 8.421875 -1.09375 C 8.421875 -0.90625 8.382812 -0.75 8.3125 -0.625 C 8.238281 -0.5 8.117188 -0.40625 7.953125 -0.34375 C 7.585938 -0.207031 7.164062 -0.09375 6.6875 0 C 6.207031 0.0820312 5.734375 0.125 5.265625 0.125 Z M 5.265625 0.125 "/></g></g></g><g fill="#000000" fill-opacity="1"><g transform="translate(104.478348, 78.541507)"><g><path d="M 1.0625 0.09375 C 0.863281 0.09375 0.703125 0.0507812 0.578125 -0.03125 C 0.453125 -0.125 0.375 -0.25 0.34375 -0.40625 C 0.320312 -0.5625 0.351562 -0.738281 0.4375 -0.9375 L 3.78125 -8.34375 C 3.894531 -8.582031 4.03125 -8.753906 4.1875 -8.859375 C 4.34375 -8.972656 4.519531 -9.03125 4.71875 -9.03125 C 4.914062 -9.03125 5.09375 -8.972656 5.25 -8.859375 C 5.40625 -8.753906 5.535156 -8.582031 5.640625 -8.34375 L 9 -0.9375 C 9.09375 -0.738281 9.125 -0.5625 9.09375 -0.40625 C 9.070312 -0.25 9 -0.125 8.875 -0.03125 C 8.757812 0.0507812 8.609375 0.09375 8.421875 0.09375 C 8.179688 0.09375 7.992188 0.0390625 7.859375 -0.0625 C 7.734375 -0.175781 7.617188 -0.351562 7.515625 -0.59375 L 6.6875 -2.5 L 7.375 -2.0625 L 2.03125 -2.0625 L 2.71875 -2.5 L 1.90625 -0.59375 C 1.800781 -0.351562 1.6875 -0.175781 1.5625 -0.0625 C 1.445312 0.0390625 1.28125 0.09375 1.0625 0.09375 Z M 4.703125 -7.15625 L 2.921875 -2.953125 L 2.59375 -3.359375 L 6.828125 -3.359375 L 6.5 -2.953125 L 4.71875 -7.15625 Z M 4.703125 -7.15625 "/></g></g></g><g fill="#000000" fill-opacity="1"><g transform="translate(117.693404, 78.541507)"><g><path d="M 1.78125 0.09375 C 1.519531 0.09375 1.316406 0.0195312 1.171875 -0.125 C 1.035156 -0.269531 0.96875 -0.472656 0.96875 -0.734375 L 0.96875 -8.09375 C 0.96875 -8.363281 1.039062 -8.566406 1.1875 -8.703125 C 1.332031 -8.847656 1.535156 -8.921875 1.796875 -8.921875 L 4.84375 -8.921875 C 5.820312 -8.921875 6.578125 -8.6875 7.109375 -8.21875 C 7.640625 -7.75 7.90625 -7.09375 7.90625 -6.25 C 7.90625 -5.695312 7.785156 -5.222656 7.546875 -4.828125 C 7.304688 -4.429688 6.957031 -4.128906 6.5 -3.921875 C 6.050781 -3.710938 5.5 -3.609375 4.84375 -3.609375 L 4.96875 -3.796875 L 5.375 -3.796875 C 5.71875 -3.796875 6.019531 -3.710938 6.28125 -3.546875 C 6.539062 -3.378906 6.765625 -3.113281 6.953125 -2.75 L 7.90625 -0.984375 C 8.007812 -0.804688 8.054688 -0.632812 8.046875 -0.46875 C 8.035156 -0.300781 7.972656 -0.164062 7.859375 -0.0625 C 7.742188 0.0390625 7.570312 0.09375 7.34375 0.09375 C 7.113281 0.09375 6.925781 0.046875 6.78125 -0.046875 C 6.632812 -0.140625 6.507812 -0.289062 6.40625 -0.5 L 5.125 -2.84375 C 4.96875 -3.132812 4.785156 -3.328125 4.578125 -3.421875 C 4.378906 -3.515625 4.117188 -3.5625 3.796875 -3.5625 L 2.59375 -3.5625 L 2.59375 -0.734375 C 2.59375 -0.472656 2.523438 -0.269531 2.390625 -0.125 C 2.253906 0.0195312 2.050781 0.09375 1.78125 0.09375 Z M 2.59375 -4.765625 L 4.5625 -4.765625 C 5.144531 -4.765625 5.585938 -4.882812 5.890625 -5.125 C 6.191406 -5.375 6.34375 -5.738281 6.34375 -6.21875 C 6.34375 -6.6875 6.191406 -7.039062 5.890625 -7.28125 C 5.585938 -7.519531 5.144531 -7.640625 4.5625 -7.640625 L 2.59375 -7.640625 Z M 2.59375 -4.765625 "/></g></g></g><g fill="#000000" fill-opacity="1"><g transform="translate(130.175207, 78.541507)"><g><path d="M 1.828125 0 C 1.554688 0 1.34375 -0.0703125 1.1875 -0.21875 C 1.039062 -0.363281 0.96875 -0.578125 0.96875 -0.859375 L 0.96875 -8.0625 C 0.96875 -8.34375 1.039062 -8.554688 1.1875 -8.703125 C 1.34375 -8.847656 1.554688 -8.921875 1.828125 -8.921875 L 4.296875 -8.921875 C 5.785156 -8.921875 6.9375 -8.535156 7.75 -7.765625 C 8.5625 -7.003906 8.96875 -5.90625 8.96875 -4.46875 C 8.96875 -3.75 8.863281 -3.113281 8.65625 -2.5625 C 8.457031 -2.007812 8.15625 -1.539062 7.75 -1.15625 C 7.351562 -0.78125 6.863281 -0.492188 6.28125 -0.296875 C 5.707031 -0.0976562 5.046875 0 4.296875 0 Z M 2.59375 -1.34375 L 4.1875 -1.34375 C 4.707031 -1.34375 5.160156 -1.40625 5.546875 -1.53125 C 5.929688 -1.664062 6.25 -1.859375 6.5 -2.109375 C 6.757812 -2.367188 6.953125 -2.695312 7.078125 -3.09375 C 7.210938 -3.488281 7.28125 -3.945312 7.28125 -4.46875 C 7.28125 -5.507812 7.019531 -6.285156 6.5 -6.796875 C 5.988281 -7.316406 5.21875 -7.578125 4.1875 -7.578125 L 2.59375 -7.578125 Z M 2.59375 -1.34375 "/></g></g></g><g fill="#000000" fill-opacity="1"><g transform="translate(143.617832, 78.541507)"><g><path d="M 1.828125 0 C 1.554688 0 1.34375 -0.0703125 1.1875 -0.21875 C 1.039062 -0.363281 0.96875 -0.578125 0.96875 -0.859375 L 0.96875 -8.0625 C 0.96875 -8.34375 1.039062 -8.554688 1.1875 -8.703125 C 1.34375 -8.847656 1.554688 -8.921875 1.828125 -8.921875 L 6.359375 -8.921875 C 6.566406 -8.921875 6.726562 -8.863281 6.84375 -8.75 C 6.957031 -8.644531 7.015625 -8.492188 7.015625 -8.296875 C 7.015625 -8.078125 6.957031 -7.910156 6.84375 -7.796875 C 6.726562 -7.679688 6.566406 -7.625 6.359375 -7.625 L 2.53125 -7.625 L 2.53125 -5.171875 L 6.078125 -5.171875 C 6.296875 -5.171875 6.457031 -5.113281 6.5625 -5 C 6.675781 -4.894531 6.734375 -4.738281 6.734375 -4.53125 C 6.734375 -4.320312 6.675781 -4.160156 6.5625 -4.046875 C 6.457031 -3.941406 6.296875 -3.890625 6.078125 -3.890625 L 2.53125 -3.890625 L 2.53125 -1.296875 L 6.359375 -1.296875 C 6.566406 -1.296875 6.726562 -1.238281 6.84375 -1.125 C 6.957031 -1.019531 7.015625 -0.859375 7.015625 -0.640625 C 7.015625 -0.429688 6.957031 -0.269531 6.84375 -0.15625 C 6.726562 -0.0507812 6.566406 0 6.359375 0 Z M 1.828125 0 "/></g></g></g><g fill="#000000" fill-opacity="1"><g transform="translate(154.974451, 78.541507)"><g><path d="M 1.734375 0.09375 C 1.484375 0.09375 1.289062 0.03125 1.15625 -0.09375 C 1.03125 -0.226562 0.96875 -0.425781 0.96875 -0.6875 L 0.96875 -8.21875 C 0.96875 -8.476562 1.03125 -8.675781 1.15625 -8.8125 C 1.289062 -8.957031 1.46875 -9.03125 1.6875 -9.03125 C 1.875 -9.03125 2.015625 -8.992188 2.109375 -8.921875 C 2.210938 -8.847656 2.332031 -8.726562 2.46875 -8.5625 L 7.3125 -2.265625 L 6.984375 -2.265625 L 6.984375 -8.25 C 6.984375 -8.5 7.046875 -8.691406 7.171875 -8.828125 C 7.304688 -8.960938 7.5 -9.03125 7.75 -9.03125 C 7.988281 -9.03125 8.171875 -8.960938 8.296875 -8.828125 C 8.429688 -8.691406 8.5 -8.5 8.5 -8.25 L 8.5 -0.65625 C 8.5 -0.414062 8.4375 -0.226562 8.3125 -0.09375 C 8.195312 0.03125 8.035156 0.09375 7.828125 0.09375 C 7.640625 0.09375 7.488281 0.0546875 7.375 -0.015625 C 7.257812 -0.0859375 7.132812 -0.207031 7 -0.375 L 2.171875 -6.671875 L 2.484375 -6.671875 L 2.484375 -0.6875 C 2.484375 -0.425781 2.414062 -0.226562 2.28125 -0.09375 C 2.15625 0.03125 1.972656 0.09375 1.734375 0.09375 Z M 1.734375 0.09375 "/></g></g></g></svg>