<svg xmlns="http://www.w3.org/2000/svg" xmlns:xlink="http://www.w3.org/1999/xlink" width="250" zoomAndPan="magnify" viewBox="0 0 187.5 116.249996" height="155" preserveAspectRatio="xMidYMid meet" version="1.0"><defs><g/></defs><g fill="#015201" fill-opacity="1"><g transform="translate(9.511921, 64.433967)"><g><path d="M 13.140625 -22.875 C 16.472656 -22.875 19.109375 -22.039062 21.046875 -20.375 C 22.984375 -18.707031 23.953125 -16.328125 23.953125 -13.234375 L 17.0625 -13.234375 C 17.0625 -14.546875 16.71875 -15.582031 16.03125 -16.34375 C 15.34375 -17.101562 14.367188 -17.484375 13.109375 -17.484375 C 11.648438 -17.484375 10.578125 -17.023438 9.890625 -16.109375 C 9.203125 -15.191406 8.859375 -13.921875 8.859375 -12.296875 L 8.859375 -10.203125 C 8.859375 -8.585938 9.203125 -7.316406 9.890625 -6.390625 C 10.578125 -5.460938 11.628906 -5 13.046875 -5 C 14.441406 -5 15.5 -5.359375 16.21875 -6.078125 C 16.9375 -6.796875 17.296875 -7.8125 17.296875 -9.125 L 23.953125 -9.125 C 23.953125 -6.050781 23.007812 -3.695312 21.125 -2.0625 C 19.25 -0.425781 16.585938 0.390625 13.140625 0.390625 C 9.304688 0.390625 6.398438 -0.585938 4.421875 -2.546875 C 2.453125 -4.503906 1.46875 -7.40625 1.46875 -11.25 C 1.46875 -15.082031 2.453125 -17.976562 4.421875 -19.9375 C 6.398438 -21.894531 9.304688 -22.875 13.140625 -22.875 Z M 13.140625 -22.875 "/></g></g></g><g fill="#015201" fill-opacity="1"><g transform="translate(36.215202, 64.433967)"><g><path d="M 17.578125 0 L 17.578125 -8.53125 L 9.640625 -8.53125 L 9.640625 0 L 2.421875 0 L 2.421875 -22.484375 L 9.640625 -22.484375 L 9.640625 -14.28125 L 17.578125 -14.28125 L 17.578125 -22.484375 L 24.8125 -22.484375 L 24.8125 0 Z M 17.578125 0 "/></g></g></g><g fill="#015201" fill-opacity="1"><g transform="translate(64.716113, 64.433967)"><g><path d="M 23.765625 -15.59375 C 23.765625 -14.21875 23.394531 -12.972656 22.65625 -11.859375 C 21.914062 -10.753906 20.835938 -9.9375 19.421875 -9.40625 L 24.421875 0 L 16.3125 0 L 12.328125 -8.203125 L 9.640625 -8.203125 L 9.640625 0 L 2.421875 0 L 2.421875 -22.484375 L 16.1875 -22.484375 C 17.789062 -22.484375 19.164062 -22.171875 20.3125 -21.546875 C 21.457031 -20.929688 22.316406 -20.09375 22.890625 -19.03125 C 23.472656 -17.976562 23.765625 -16.832031 23.765625 -15.59375 Z M 16.40625 -15.296875 C 16.40625 -15.890625 16.207031 -16.378906 15.8125 -16.765625 C 15.425781 -17.160156 14.945312 -17.359375 14.375 -17.359375 L 9.640625 -17.359375 L 9.640625 -13.203125 L 14.375 -13.203125 C 14.945312 -13.203125 15.425781 -13.40625 15.8125 -13.8125 C 16.207031 -14.21875 16.40625 -14.710938 16.40625 -15.296875 Z M 16.40625 -15.296875 "/></g></g></g><g fill="#015201" fill-opacity="1"><g transform="translate(91.419392, 64.433967)"><g><path d="M 13.59375 -22.875 C 17.476562 -22.875 20.472656 -21.882812 22.578125 -19.90625 C 24.691406 -17.925781 25.75 -15.039062 25.75 -11.25 C 25.75 -7.457031 24.691406 -4.566406 22.578125 -2.578125 C 20.472656 -0.597656 17.476562 0.390625 13.59375 0.390625 C 9.71875 0.390625 6.726562 -0.59375 4.625 -2.5625 C 2.519531 -4.539062 1.46875 -7.4375 1.46875 -11.25 C 1.46875 -15.0625 2.519531 -17.953125 4.625 -19.921875 C 6.726562 -21.890625 9.71875 -22.875 13.59375 -22.875 Z M 13.59375 -17.484375 C 12.050781 -17.484375 10.875 -17.015625 10.0625 -16.078125 C 9.257812 -15.140625 8.859375 -13.878906 8.859375 -12.296875 L 8.859375 -10.203125 C 8.859375 -8.609375 9.257812 -7.34375 10.0625 -6.40625 C 10.875 -5.46875 12.050781 -5 13.59375 -5 C 15.144531 -5 16.328125 -5.46875 17.140625 -6.40625 C 17.960938 -7.34375 18.375 -8.609375 18.375 -10.203125 L 18.375 -12.296875 C 18.375 -13.878906 17.960938 -15.140625 17.140625 -16.078125 C 16.328125 -17.015625 15.144531 -17.484375 13.59375 -17.484375 Z M 13.59375 -17.484375 "/></g></g></g><g fill="#015201" fill-opacity="1"><g transform="translate(119.920304, 64.433967)"><g><path d="M 21.734375 0 L 21.734375 -8.109375 C 21.734375 -9.109375 21.769531 -10.132812 21.84375 -11.1875 C 21.925781 -12.25 22.007812 -13.140625 22.09375 -13.859375 C 22.1875 -14.578125 22.242188 -15.035156 22.265625 -15.234375 L 22.125 -15.234375 L 17.984375 0 L 12.328125 0 L 8.140625 -15.203125 L 8.015625 -15.203125 C 8.035156 -15.003906 8.09375 -14.550781 8.1875 -13.84375 C 8.28125 -13.132812 8.367188 -12.25 8.453125 -11.1875 C 8.546875 -10.132812 8.59375 -9.109375 8.59375 -8.109375 L 8.59375 0 L 1.96875 0 L 1.96875 -22.484375 L 12.15625 -22.484375 L 15.5625 -9.515625 L 15.6875 -9.515625 L 19.0625 -22.484375 L 28.890625 -22.484375 L 28.890625 0 Z M 21.734375 0 "/></g></g></g><g fill="#015201" fill-opacity="1"><g transform="translate(152.049165, 64.433967)"><g><path d="M 17.484375 0 L 16.546875 -3.171875 L 8.65625 -3.171875 L 7.71875 0 L 0.328125 0 L 8.53125 -22.484375 L 16.9375 -22.484375 L 25.140625 0 Z M 10.171875 -8.203125 L 15.03125 -8.203125 L 12.6875 -16.21875 L 12.546875 -16.21875 Z M 10.171875 -8.203125 "/></g></g></g><g fill="#ffffff" fill-opacity="1"><g transform="translate(9.511921, 64.433967)"><g><path d="M 13.140625 -22.875 C 16.472656 -22.875 19.109375 -22.039062 21.046875 -20.375 C 22.984375 -18.707031 23.953125 -16.328125 23.953125 -13.234375 L 17.0625 -13.234375 C 17.0625 -14.546875 16.71875 -15.582031 16.03125 -16.34375 C 15.34375 -17.101562 14.367188 -17.484375 13.109375 -17.484375 C 11.648438 -17.484375 10.578125 -17.023438 9.890625 -16.109375 C 9.203125 -15.191406 8.859375 -13.921875 8.859375 -12.296875 L 8.859375 -10.203125 C 8.859375 -8.585938 9.203125 -7.316406 9.890625 -6.390625 C 10.578125 -5.460938 11.628906 -5 13.046875 -5 C 14.441406 -5 15.5 -5.359375 16.21875 -6.078125 C 16.9375 -6.796875 17.296875 -7.8125 17.296875 -9.125 L 23.953125 -9.125 C 23.953125 -6.050781 23.007812 -3.695312 21.125 -2.0625 C 19.25 -0.425781 16.585938 0.390625 13.140625 0.390625 C 9.304688 0.390625 6.398438 -0.585938 4.421875 -2.546875 C 2.453125 -4.503906 1.46875 -7.40625 1.46875 -11.25 C 1.46875 -15.082031 2.453125 -17.976562 4.421875 -19.9375 C 6.398438 -21.894531 9.304688 -22.875 13.140625 -22.875 Z M 13.140625 -22.875 "/></g></g></g><g fill="#ffffff" fill-opacity="1"><g transform="translate(36.215202, 64.433967)"><g><path d="M 17.578125 0 L 17.578125 -8.53125 L 9.640625 -8.53125 L 9.640625 0 L 2.421875 0 L 2.421875 -22.484375 L 9.640625 -22.484375 L 9.640625 -14.28125 L 17.578125 -14.28125 L 17.578125 -22.484375 L 24.8125 -22.484375 L 24.8125 0 Z M 17.578125 0 "/></g></g></g><g fill="#ffffff" fill-opacity="1"><g transform="translate(64.716113, 64.433967)"><g><path d="M 23.765625 -15.59375 C 23.765625 -14.21875 23.394531 -12.972656 22.65625 -11.859375 C 21.914062 -10.753906 20.835938 -9.9375 19.421875 -9.40625 L 24.421875 0 L 16.3125 0 L 12.328125 -8.203125 L 9.640625 -8.203125 L 9.640625 0 L 2.421875 0 L 2.421875 -22.484375 L 16.1875 -22.484375 C 17.789062 -22.484375 19.164062 -22.171875 20.3125 -21.546875 C 21.457031 -20.929688 22.316406 -20.09375 22.890625 -19.03125 C 23.472656 -17.976562 23.765625 -16.832031 23.765625 -15.59375 Z M 16.40625 -15.296875 C 16.40625 -15.890625 16.207031 -16.378906 15.8125 -16.765625 C 15.425781 -17.160156 14.945312 -17.359375 14.375 -17.359375 L 9.640625 -17.359375 L 9.640625 -13.203125 L 14.375 -13.203125 C 14.945312 -13.203125 15.425781 -13.40625 15.8125 -13.8125 C 16.207031 -14.21875 16.40625 -14.710938 16.40625 -15.296875 Z M 16.40625 -15.296875 "/></g></g></g><g fill="#ffffff" fill-opacity="1"><g transform="translate(91.419392, 64.433967)"><g><path d="M 13.59375 -22.875 C 17.476562 -22.875 20.472656 -21.882812 22.578125 -19.90625 C 24.691406 -17.925781 25.75 -15.039062 25.75 -11.25 C 25.75 -7.457031 24.691406 -4.566406 22.578125 -2.578125 C 20.472656 -0.597656 17.476562 0.390625 13.59375 0.390625 C 9.71875 0.390625 6.726562 -0.59375 4.625 -2.5625 C 2.519531 -4.539062 1.46875 -7.4375 1.46875 -11.25 C 1.46875 -15.0625 2.519531 -17.953125 4.625 -19.921875 C 6.726562 -21.890625 9.71875 -22.875 13.59375 -22.875 Z M 13.59375 -17.484375 C 12.050781 -17.484375 10.875 -17.015625 10.0625 -16.078125 C 9.257812 -15.140625 8.859375 -13.878906 8.859375 -12.296875 L 8.859375 -10.203125 C 8.859375 -8.609375 9.257812 -7.34375 10.0625 -6.40625 C 10.875 -5.46875 12.050781 -5 13.59375 -5 C 15.144531 -5 16.328125 -5.46875 17.140625 -6.40625 C 17.960938 -7.34375 18.375 -8.609375 18.375 -10.203125 L 18.375 -12.296875 C 18.375 -13.878906 17.960938 -15.140625 17.140625 -16.078125 C 16.328125 -17.015625 15.144531 -17.484375 13.59375 -17.484375 Z M 13.59375 -17.484375 "/></g></g></g><g fill="#ffffff" fill-opacity="1"><g transform="translate(119.920304, 64.433967)"><g><path d="M 21.734375 0 L 21.734375 -8.109375 C 21.734375 -9.109375 21.769531 -10.132812 21.84375 -11.1875 C 21.925781 -12.25 22.007812 -13.140625 22.09375 -13.859375 C 22.1875 -14.578125 22.242188 -15.035156 22.265625 -15.234375 L 22.125 -15.234375 L 17.984375 0 L 12.328125 0 L 8.140625 -15.203125 L 8.015625 -15.203125 C 8.035156 -15.003906 8.09375 -14.550781 8.1875 -13.84375 C 8.28125 -13.132812 8.367188 -12.25 8.453125 -11.1875 C 8.546875 -10.132812 8.59375 -9.109375 8.59375 -8.109375 L 8.59375 0 L 1.96875 0 L 1.96875 -22.484375 L 12.15625 -22.484375 L 15.5625 -9.515625 L 15.6875 -9.515625 L 19.0625 -22.484375 L 28.890625 -22.484375 L 28.890625 0 Z M 21.734375 0 "/></g></g></g><g fill="#ffffff" fill-opacity="1"><g transform="translate(152.049165, 64.433967)"><g><path d="M 17.484375 0 L 16.546875 -3.171875 L 8.65625 -3.171875 L 7.71875 0 L 0.328125 0 L 8.53125 -22.484375 L 16.9375 -22.484375 L 25.140625 0 Z M 10.171875 -8.203125 L 15.03125 -8.203125 L 12.6875 -16.21875 L 12.546875 -16.21875 Z M 10.171875 -8.203125 "/></g></g></g><path stroke-linecap="butt" transform="matrix(0.745192, -0.000000000000000092, 0.000000000000000092, 0.745192, 34.563932, 81.890553)" fill="none" stroke-linejoin="miter" d="M -0.00192192 2.5005 L 161.240015 2.5005 " stroke="#edc700" stroke-width="5" stroke-opacity="1" stroke-miterlimit="4"/><g fill="#ffffff" fill-opacity="1"><g transform="translate(33.483187, 78.009237)"><g><path d="M 4.46875 0.109375 C 3.632812 0.109375 2.925781 -0.046875 2.34375 -0.359375 C 1.769531 -0.679688 1.332031 -1.128906 1.03125 -1.703125 C 0.726562 -2.285156 0.578125 -2.972656 0.578125 -3.765625 C 0.578125 -4.367188 0.664062 -4.910156 0.84375 -5.390625 C 1.019531 -5.867188 1.273438 -6.28125 1.609375 -6.625 C 1.941406 -6.96875 2.347656 -7.226562 2.828125 -7.40625 C 3.304688 -7.59375 3.851562 -7.6875 4.46875 -7.6875 C 4.863281 -7.6875 5.265625 -7.632812 5.671875 -7.53125 C 6.078125 -7.4375 6.457031 -7.273438 6.8125 -7.046875 C 6.9375 -6.972656 7.015625 -6.878906 7.046875 -6.765625 C 7.085938 -6.648438 7.09375 -6.53125 7.0625 -6.40625 C 7.039062 -6.289062 6.988281 -6.191406 6.90625 -6.109375 C 6.832031 -6.023438 6.734375 -5.96875 6.609375 -5.9375 C 6.492188 -5.914062 6.363281 -5.945312 6.21875 -6.03125 C 5.945312 -6.1875 5.671875 -6.300781 5.390625 -6.375 C 5.117188 -6.445312 4.8125 -6.484375 4.46875 -6.484375 C 3.9375 -6.484375 3.484375 -6.375 3.109375 -6.15625 C 2.742188 -5.945312 2.46875 -5.640625 2.28125 -5.234375 C 2.101562 -4.835938 2.015625 -4.347656 2.015625 -3.765625 C 2.015625 -2.890625 2.226562 -2.222656 2.65625 -1.765625 C 3.082031 -1.304688 3.707031 -1.078125 4.53125 -1.078125 C 4.820312 -1.078125 5.113281 -1.101562 5.40625 -1.15625 C 5.695312 -1.21875 5.984375 -1.296875 6.265625 -1.390625 L 6 -0.78125 L 6 -3.078125 L 4.8125 -3.078125 C 4.632812 -3.078125 4.492188 -3.125 4.390625 -3.21875 C 4.296875 -3.3125 4.25 -3.4375 4.25 -3.59375 C 4.25 -3.757812 4.296875 -3.882812 4.390625 -3.96875 C 4.492188 -4.050781 4.632812 -4.09375 4.8125 -4.09375 L 6.59375 -4.09375 C 6.769531 -4.09375 6.90625 -4.046875 7 -3.953125 C 7.101562 -3.859375 7.15625 -3.71875 7.15625 -3.53125 L 7.15625 -0.921875 C 7.15625 -0.765625 7.125 -0.628906 7.0625 -0.515625 C 7 -0.410156 6.898438 -0.335938 6.765625 -0.296875 C 6.441406 -0.179688 6.078125 -0.0820312 5.671875 0 C 5.265625 0.0703125 4.863281 0.109375 4.46875 0.109375 Z M 4.46875 0.109375 "/></g></g></g><g fill="#ffffff" fill-opacity="1"><g transform="translate(44.619467, 78.009237)"><g><path d="M 1.515625 0.09375 C 1.296875 0.09375 1.125 0.03125 1 -0.09375 C 0.882812 -0.226562 0.828125 -0.40625 0.828125 -0.625 L 0.828125 -6.875 C 0.828125 -7.101562 0.882812 -7.273438 1 -7.390625 C 1.125 -7.515625 1.300781 -7.578125 1.53125 -7.578125 L 4.125 -7.578125 C 4.945312 -7.578125 5.582031 -7.378906 6.03125 -6.984375 C 6.488281 -6.585938 6.71875 -6.03125 6.71875 -5.3125 C 6.71875 -4.84375 6.613281 -4.4375 6.40625 -4.09375 C 6.207031 -3.757812 5.910156 -3.503906 5.515625 -3.328125 C 5.128906 -3.148438 4.664062 -3.0625 4.125 -3.0625 L 4.21875 -3.21875 L 4.5625 -3.21875 C 4.863281 -3.21875 5.125 -3.144531 5.34375 -3 C 5.5625 -2.863281 5.75 -2.640625 5.90625 -2.328125 L 6.71875 -0.84375 C 6.800781 -0.6875 6.835938 -0.535156 6.828125 -0.390625 C 6.828125 -0.253906 6.773438 -0.140625 6.671875 -0.046875 C 6.578125 0.046875 6.429688 0.09375 6.234375 0.09375 C 6.035156 0.09375 5.875 0.0507812 5.75 -0.03125 C 5.632812 -0.113281 5.53125 -0.242188 5.4375 -0.421875 L 4.359375 -2.421875 C 4.222656 -2.660156 4.066406 -2.820312 3.890625 -2.90625 C 3.722656 -2.988281 3.5 -3.03125 3.21875 -3.03125 L 2.203125 -3.03125 L 2.203125 -0.625 C 2.203125 -0.40625 2.144531 -0.226562 2.03125 -0.09375 C 1.914062 0.03125 1.742188 0.09375 1.515625 0.09375 Z M 2.203125 -4.046875 L 3.875 -4.046875 C 4.375 -4.046875 4.75 -4.148438 5 -4.359375 C 5.257812 -4.566406 5.390625 -4.875 5.390625 -5.28125 C 5.390625 -5.675781 5.257812 -5.976562 5 -6.1875 C 4.75 -6.394531 4.375 -6.5 3.875 -6.5 L 2.203125 -6.5 Z M 2.203125 -4.046875 "/></g></g></g><g fill="#ffffff" fill-opacity="1"><g transform="translate(55.21898, 78.009237)"><g><path d="M 1.5625 0 C 1.320312 0 1.140625 -0.0625 1.015625 -0.1875 C 0.890625 -0.3125 0.828125 -0.492188 0.828125 -0.734375 L 0.828125 -6.84375 C 0.828125 -7.082031 0.890625 -7.265625 1.015625 -7.390625 C 1.140625 -7.515625 1.320312 -7.578125 1.5625 -7.578125 L 5.390625 -7.578125 C 5.578125 -7.578125 5.71875 -7.53125 5.8125 -7.4375 C 5.90625 -7.34375 5.953125 -7.210938 5.953125 -7.046875 C 5.953125 -6.859375 5.90625 -6.71875 5.8125 -6.625 C 5.71875 -6.53125 5.578125 -6.484375 5.390625 -6.484375 L 2.15625 -6.484375 L 2.15625 -4.390625 L 5.15625 -4.390625 C 5.34375 -4.390625 5.484375 -4.34375 5.578125 -4.25 C 5.671875 -4.164062 5.71875 -4.03125 5.71875 -3.84375 C 5.71875 -3.664062 5.671875 -3.53125 5.578125 -3.4375 C 5.484375 -3.34375 5.34375 -3.296875 5.15625 -3.296875 L 2.15625 -3.296875 L 2.15625 -1.09375 L 5.390625 -1.09375 C 5.578125 -1.09375 5.71875 -1.046875 5.8125 -0.953125 C 5.90625 -0.859375 5.953125 -0.722656 5.953125 -0.546875 C 5.953125 -0.367188 5.90625 -0.234375 5.8125 -0.140625 C 5.71875 -0.046875 5.578125 0 5.390625 0 Z M 1.5625 0 "/></g></g></g><g fill="#ffffff" fill-opacity="1"><g transform="translate(64.863045, 78.009237)"><g><path d="M 1.5625 0 C 1.320312 0 1.140625 -0.0625 1.015625 -0.1875 C 0.890625 -0.3125 0.828125 -0.492188 0.828125 -0.734375 L 0.828125 -6.84375 C 0.828125 -7.082031 0.890625 -7.265625 1.015625 -7.390625 C 1.140625 -7.515625 1.320312 -7.578125 1.5625 -7.578125 L 5.390625 -7.578125 C 5.578125 -7.578125 5.71875 -7.53125 5.8125 -7.4375 C 5.90625 -7.34375 5.953125 -7.210938 5.953125 -7.046875 C 5.953125 -6.859375 5.90625 -6.71875 5.8125 -6.625 C 5.71875 -6.53125 5.578125 -6.484375 5.390625 -6.484375 L 2.15625 -6.484375 L 2.15625 -4.390625 L 5.15625 -4.390625 C 5.34375 -4.390625 5.484375 -4.34375 5.578125 -4.25 C 5.671875 -4.164062 5.71875 -4.03125 5.71875 -3.84375 C 5.71875 -3.664062 5.671875 -3.53125 5.578125 -3.4375 C 5.484375 -3.34375 5.34375 -3.296875 5.15625 -3.296875 L 2.15625 -3.296875 L 2.15625 -1.09375 L 5.390625 -1.09375 C 5.578125 -1.09375 5.71875 -1.046875 5.8125 -0.953125 C 5.90625 -0.859375 5.953125 -0.722656 5.953125 -0.546875 C 5.953125 -0.367188 5.90625 -0.234375 5.8125 -0.140625 C 5.71875 -0.046875 5.578125 0 5.390625 0 Z M 1.5625 0 "/></g></g></g><g fill="#ffffff" fill-opacity="1"><g transform="translate(74.507109, 78.009237)"><g><path d="M 1.46875 0.09375 C 1.257812 0.09375 1.097656 0.0351562 0.984375 -0.078125 C 0.878906 -0.203125 0.828125 -0.367188 0.828125 -0.578125 L 0.828125 -6.984375 C 0.828125 -7.203125 0.878906 -7.367188 0.984375 -7.484375 C 1.097656 -7.609375 1.25 -7.671875 1.4375 -7.671875 C 1.59375 -7.671875 1.710938 -7.640625 1.796875 -7.578125 C 1.878906 -7.515625 1.976562 -7.410156 2.09375 -7.265625 L 6.21875 -1.921875 L 5.9375 -1.921875 L 5.9375 -7.015625 C 5.9375 -7.222656 5.988281 -7.382812 6.09375 -7.5 C 6.207031 -7.613281 6.367188 -7.671875 6.578125 -7.671875 C 6.785156 -7.671875 6.941406 -7.613281 7.046875 -7.5 C 7.160156 -7.382812 7.21875 -7.222656 7.21875 -7.015625 L 7.21875 -0.5625 C 7.21875 -0.363281 7.164062 -0.203125 7.0625 -0.078125 C 6.957031 0.0351562 6.820312 0.09375 6.65625 0.09375 C 6.488281 0.09375 6.351562 0.0625 6.25 0 C 6.15625 -0.0703125 6.050781 -0.179688 5.9375 -0.328125 L 1.84375 -5.671875 L 2.109375 -5.671875 L 2.109375 -0.578125 C 2.109375 -0.367188 2.050781 -0.203125 1.9375 -0.078125 C 1.832031 0.0351562 1.675781 0.09375 1.46875 0.09375 Z M 1.46875 0.09375 "/></g></g></g><g fill="#ffffff" fill-opacity="1"><g transform="translate(85.772221, 78.009237)"><g/></g></g><g fill="#ffffff" fill-opacity="1"><g transform="translate(91.916544, 78.009237)"><g><path d="M 4.46875 0.109375 C 3.632812 0.109375 2.925781 -0.046875 2.34375 -0.359375 C 1.769531 -0.679688 1.332031 -1.128906 1.03125 -1.703125 C 0.726562 -2.285156 0.578125 -2.972656 0.578125 -3.765625 C 0.578125 -4.367188 0.664062 -4.910156 0.84375 -5.390625 C 1.019531 -5.867188 1.273438 -6.28125 1.609375 -6.625 C 1.941406 -6.96875 2.347656 -7.226562 2.828125 -7.40625 C 3.304688 -7.59375 3.851562 -7.6875 4.46875 -7.6875 C 4.863281 -7.6875 5.265625 -7.632812 5.671875 -7.53125 C 6.078125 -7.4375 6.457031 -7.273438 6.8125 -7.046875 C 6.9375 -6.972656 7.015625 -6.878906 7.046875 -6.765625 C 7.085938 -6.648438 7.09375 -6.53125 7.0625 -6.40625 C 7.039062 -6.289062 6.988281 -6.191406 6.90625 -6.109375 C 6.832031 -6.023438 6.734375 -5.96875 6.609375 -5.9375 C 6.492188 -5.914062 6.363281 -5.945312 6.21875 -6.03125 C 5.945312 -6.1875 5.671875 -6.300781 5.390625 -6.375 C 5.117188 -6.445312 4.8125 -6.484375 4.46875 -6.484375 C 3.9375 -6.484375 3.484375 -6.375 3.109375 -6.15625 C 2.742188 -5.945312 2.46875 -5.640625 2.28125 -5.234375 C 2.101562 -4.835938 2.015625 -4.347656 2.015625 -3.765625 C 2.015625 -2.890625 2.226562 -2.222656 2.65625 -1.765625 C 3.082031 -1.304688 3.707031 -1.078125 4.53125 -1.078125 C 4.820312 -1.078125 5.113281 -1.101562 5.40625 -1.15625 C 5.695312 -1.21875 5.984375 -1.296875 6.265625 -1.390625 L 6 -0.78125 L 6 -3.078125 L 4.8125 -3.078125 C 4.632812 -3.078125 4.492188 -3.125 4.390625 -3.21875 C 4.296875 -3.3125 4.25 -3.4375 4.25 -3.59375 C 4.25 -3.757812 4.296875 -3.882812 4.390625 -3.96875 C 4.492188 -4.050781 4.632812 -4.09375 4.8125 -4.09375 L 6.59375 -4.09375 C 6.769531 -4.09375 6.90625 -4.046875 7 -3.953125 C 7.101562 -3.859375 7.15625 -3.71875 7.15625 -3.53125 L 7.15625 -0.921875 C 7.15625 -0.765625 7.125 -0.628906 7.0625 -0.515625 C 7 -0.410156 6.898438 -0.335938 6.765625 -0.296875 C 6.441406 -0.179688 6.078125 -0.0820312 5.671875 0 C 5.265625 0.0703125 4.863281 0.109375 4.46875 0.109375 Z M 4.46875 0.109375 "/></g></g></g><g fill="#ffffff" fill-opacity="1"><g transform="translate(103.052823, 78.009237)"><g><path d="M 0.90625 0.09375 C 0.726562 0.09375 0.585938 0.0507812 0.484375 -0.03125 C 0.378906 -0.113281 0.316406 -0.21875 0.296875 -0.34375 C 0.273438 -0.476562 0.300781 -0.628906 0.375 -0.796875 L 3.21875 -7.078125 C 3.3125 -7.285156 3.421875 -7.4375 3.546875 -7.53125 C 3.679688 -7.625 3.835938 -7.671875 4.015625 -7.671875 C 4.171875 -7.671875 4.316406 -7.625 4.453125 -7.53125 C 4.585938 -7.4375 4.703125 -7.285156 4.796875 -7.078125 L 7.640625 -0.796875 C 7.722656 -0.628906 7.753906 -0.476562 7.734375 -0.34375 C 7.710938 -0.207031 7.648438 -0.0976562 7.546875 -0.015625 C 7.441406 0.0546875 7.3125 0.09375 7.15625 0.09375 C 6.945312 0.09375 6.785156 0.046875 6.671875 -0.046875 C 6.566406 -0.148438 6.472656 -0.300781 6.390625 -0.5 L 5.6875 -2.125 L 6.265625 -1.75 L 1.734375 -1.75 L 2.3125 -2.125 L 1.625 -0.5 C 1.53125 -0.289062 1.429688 -0.140625 1.328125 -0.046875 C 1.234375 0.046875 1.09375 0.09375 0.90625 0.09375 Z M 3.984375 -6.078125 L 2.484375 -2.5 L 2.203125 -2.84375 L 5.796875 -2.84375 L 5.53125 -2.5 L 4.015625 -6.078125 Z M 3.984375 -6.078125 "/></g></g></g><g fill="#ffffff" fill-opacity="1"><g transform="translate(114.274985, 78.009237)"><g><path d="M 1.515625 0.09375 C 1.296875 0.09375 1.125 0.03125 1 -0.09375 C 0.882812 -0.226562 0.828125 -0.40625 0.828125 -0.625 L 0.828125 -6.875 C 0.828125 -7.101562 0.882812 -7.273438 1 -7.390625 C 1.125 -7.515625 1.300781 -7.578125 1.53125 -7.578125 L 4.125 -7.578125 C 4.945312 -7.578125 5.582031 -7.378906 6.03125 -6.984375 C 6.488281 -6.585938 6.71875 -6.03125 6.71875 -5.3125 C 6.71875 -4.84375 6.613281 -4.4375 6.40625 -4.09375 C 6.207031 -3.757812 5.910156 -3.503906 5.515625 -3.328125 C 5.128906 -3.148438 4.664062 -3.0625 4.125 -3.0625 L 4.21875 -3.21875 L 4.5625 -3.21875 C 4.863281 -3.21875 5.125 -3.144531 5.34375 -3 C 5.5625 -2.863281 5.75 -2.640625 5.90625 -2.328125 L 6.71875 -0.84375 C 6.800781 -0.6875 6.835938 -0.535156 6.828125 -0.390625 C 6.828125 -0.253906 6.773438 -0.140625 6.671875 -0.046875 C 6.578125 0.046875 6.429688 0.09375 6.234375 0.09375 C 6.035156 0.09375 5.875 0.0507812 5.75 -0.03125 C 5.632812 -0.113281 5.53125 -0.242188 5.4375 -0.421875 L 4.359375 -2.421875 C 4.222656 -2.660156 4.066406 -2.820312 3.890625 -2.90625 C 3.722656 -2.988281 3.5 -3.03125 3.21875 -3.03125 L 2.203125 -3.03125 L 2.203125 -0.625 C 2.203125 -0.40625 2.144531 -0.226562 2.03125 -0.09375 C 1.914062 0.03125 1.742188 0.09375 1.515625 0.09375 Z M 2.203125 -4.046875 L 3.875 -4.046875 C 4.375 -4.046875 4.75 -4.148438 5 -4.359375 C 5.257812 -4.566406 5.390625 -4.875 5.390625 -5.28125 C 5.390625 -5.675781 5.257812 -5.976562 5 -6.1875 C 4.75 -6.394531 4.375 -6.5 3.875 -6.5 L 2.203125 -6.5 Z M 2.203125 -4.046875 "/></g></g></g><g fill="#ffffff" fill-opacity="1"><g transform="translate(124.874497, 78.009237)"><g><path d="M 1.5625 0 C 1.320312 0 1.140625 -0.0625 1.015625 -0.1875 C 0.890625 -0.3125 0.828125 -0.492188 0.828125 -0.734375 L 0.828125 -6.84375 C 0.828125 -7.082031 0.890625 -7.265625 1.015625 -7.390625 C 1.140625 -7.515625 1.320312 -7.578125 1.5625 -7.578125 L 3.640625 -7.578125 C 4.910156 -7.578125 5.890625 -7.25 6.578125 -6.59375 C 7.273438 -5.945312 7.625 -5.015625 7.625 -3.796875 C 7.625 -3.179688 7.535156 -2.640625 7.359375 -2.171875 C 7.179688 -1.703125 6.921875 -1.304688 6.578125 -0.984375 C 6.242188 -0.660156 5.828125 -0.414062 5.328125 -0.25 C 4.835938 -0.0820312 4.273438 0 3.640625 0 Z M 2.203125 -1.140625 L 3.5625 -1.140625 C 4 -1.140625 4.378906 -1.191406 4.703125 -1.296875 C 5.035156 -1.410156 5.3125 -1.578125 5.53125 -1.796875 C 5.75 -2.015625 5.910156 -2.289062 6.015625 -2.625 C 6.128906 -2.957031 6.1875 -3.347656 6.1875 -3.796875 C 6.1875 -4.679688 5.96875 -5.34375 5.53125 -5.78125 C 5.09375 -6.21875 4.4375 -6.4375 3.5625 -6.4375 L 2.203125 -6.4375 Z M 2.203125 -1.140625 "/></g></g></g><g fill="#ffffff" fill-opacity="1"><g transform="translate(136.289899, 78.009237)"><g><path d="M 1.5625 0 C 1.320312 0 1.140625 -0.0625 1.015625 -0.1875 C 0.890625 -0.3125 0.828125 -0.492188 0.828125 -0.734375 L 0.828125 -6.84375 C 0.828125 -7.082031 0.890625 -7.265625 1.015625 -7.390625 C 1.140625 -7.515625 1.320312 -7.578125 1.5625 -7.578125 L 5.390625 -7.578125 C 5.578125 -7.578125 5.71875 -7.53125 5.8125 -7.4375 C 5.90625 -7.34375 5.953125 -7.210938 5.953125 -7.046875 C 5.953125 -6.859375 5.90625 -6.71875 5.8125 -6.625 C 5.71875 -6.53125 5.578125 -6.484375 5.390625 -6.484375 L 2.15625 -6.484375 L 2.15625 -4.390625 L 5.15625 -4.390625 C 5.34375 -4.390625 5.484375 -4.34375 5.578125 -4.25 C 5.671875 -4.164062 5.71875 -4.03125 5.71875 -3.84375 C 5.71875 -3.664062 5.671875 -3.53125 5.578125 -3.4375 C 5.484375 -3.34375 5.34375 -3.296875 5.15625 -3.296875 L 2.15625 -3.296875 L 2.15625 -1.09375 L 5.390625 -1.09375 C 5.578125 -1.09375 5.71875 -1.046875 5.8125 -0.953125 C 5.90625 -0.859375 5.953125 -0.722656 5.953125 -0.546875 C 5.953125 -0.367188 5.90625 -0.234375 5.8125 -0.140625 C 5.71875 -0.046875 5.578125 0 5.390625 0 Z M 1.5625 0 "/></g></g></g><g fill="#ffffff" fill-opacity="1"><g transform="translate(145.933963, 78.009237)"><g><path d="M 1.46875 0.09375 C 1.257812 0.09375 1.097656 0.0351562 0.984375 -0.078125 C 0.878906 -0.203125 0.828125 -0.367188 0.828125 -0.578125 L 0.828125 -6.984375 C 0.828125 -7.203125 0.878906 -7.367188 0.984375 -7.484375 C 1.097656 -7.609375 1.25 -7.671875 1.4375 -7.671875 C 1.59375 -7.671875 1.710938 -7.640625 1.796875 -7.578125 C 1.878906 -7.515625 1.976562 -7.410156 2.09375 -7.265625 L 6.21875 -1.921875 L 5.9375 -1.921875 L 5.9375 -7.015625 C 5.9375 -7.222656 5.988281 -7.382812 6.09375 -7.5 C 6.207031 -7.613281 6.367188 -7.671875 6.578125 -7.671875 C 6.785156 -7.671875 6.941406 -7.613281 7.046875 -7.5 C 7.160156 -7.382812 7.21875 -7.222656 7.21875 -7.015625 L 7.21875 -0.5625 C 7.21875 -0.363281 7.164062 -0.203125 7.0625 -0.078125 C 6.957031 0.0351562 6.820312 0.09375 6.65625 0.09375 C 6.488281 0.09375 6.351562 0.0625 6.25 0 C 6.15625 -0.0703125 6.050781 -0.179688 5.9375 -0.328125 L 1.84375 -5.671875 L 2.109375 -5.671875 L 2.109375 -0.578125 C 2.109375 -0.367188 2.050781 -0.203125 1.9375 -0.078125 C 1.832031 0.0351562 1.675781 0.09375 1.46875 0.09375 Z M 1.46875 0.09375 "/></g></g></g><g fill="#ffffff" fill-opacity="1"><g transform="translate(33.255196, 77.781246)"><g><path d="M 4.46875 0.109375 C 3.632812 0.109375 2.925781 -0.046875 2.34375 -0.359375 C 1.769531 -0.679688 1.332031 -1.128906 1.03125 -1.703125 C 0.726562 -2.285156 0.578125 -2.972656 0.578125 -3.765625 C 0.578125 -4.367188 0.664062 -4.910156 0.84375 -5.390625 C 1.019531 -5.867188 1.273438 -6.28125 1.609375 -6.625 C 1.941406 -6.96875 2.347656 -7.226562 2.828125 -7.40625 C 3.304688 -7.59375 3.851562 -7.6875 4.46875 -7.6875 C 4.863281 -7.6875 5.265625 -7.632812 5.671875 -7.53125 C 6.078125 -7.4375 6.457031 -7.273438 6.8125 -7.046875 C 6.9375 -6.972656 7.015625 -6.878906 7.046875 -6.765625 C 7.085938 -6.648438 7.09375 -6.53125 7.0625 -6.40625 C 7.039062 -6.289062 6.988281 -6.191406 6.90625 -6.109375 C 6.832031 -6.023438 6.734375 -5.96875 6.609375 -5.9375 C 6.492188 -5.914062 6.363281 -5.945312 6.21875 -6.03125 C 5.945312 -6.1875 5.671875 -6.300781 5.390625 -6.375 C 5.117188 -6.445312 4.8125 -6.484375 4.46875 -6.484375 C 3.9375 -6.484375 3.484375 -6.375 3.109375 -6.15625 C 2.742188 -5.945312 2.46875 -5.640625 2.28125 -5.234375 C 2.101562 -4.835938 2.015625 -4.347656 2.015625 -3.765625 C 2.015625 -2.890625 2.226562 -2.222656 2.65625 -1.765625 C 3.082031 -1.304688 3.707031 -1.078125 4.53125 -1.078125 C 4.820312 -1.078125 5.113281 -1.101562 5.40625 -1.15625 C 5.695312 -1.21875 5.984375 -1.296875 6.265625 -1.390625 L 6 -0.78125 L 6 -3.078125 L 4.8125 -3.078125 C 4.632812 -3.078125 4.492188 -3.125 4.390625 -3.21875 C 4.296875 -3.3125 4.25 -3.4375 4.25 -3.59375 C 4.25 -3.757812 4.296875 -3.882812 4.390625 -3.96875 C 4.492188 -4.050781 4.632812 -4.09375 4.8125 -4.09375 L 6.59375 -4.09375 C 6.769531 -4.09375 6.90625 -4.046875 7 -3.953125 C 7.101562 -3.859375 7.15625 -3.71875 7.15625 -3.53125 L 7.15625 -0.921875 C 7.15625 -0.765625 7.125 -0.628906 7.0625 -0.515625 C 7 -0.410156 6.898438 -0.335938 6.765625 -0.296875 C 6.441406 -0.179688 6.078125 -0.0820312 5.671875 0 C 5.265625 0.0703125 4.863281 0.109375 4.46875 0.109375 Z M 4.46875 0.109375 "/></g></g></g><g fill="#ffffff" fill-opacity="1"><g transform="translate(44.391475, 77.781246)"><g><path d="M 1.515625 0.09375 C 1.296875 0.09375 1.125 0.03125 1 -0.09375 C 0.882812 -0.226562 0.828125 -0.40625 0.828125 -0.625 L 0.828125 -6.875 C 0.828125 -7.101562 0.882812 -7.273438 1 -7.390625 C 1.125 -7.515625 1.300781 -7.578125 1.53125 -7.578125 L 4.125 -7.578125 C 4.945312 -7.578125 5.582031 -7.378906 6.03125 -6.984375 C 6.488281 -6.585938 6.71875 -6.03125 6.71875 -5.3125 C 6.71875 -4.84375 6.613281 -4.4375 6.40625 -4.09375 C 6.207031 -3.757812 5.910156 -3.503906 5.515625 -3.328125 C 5.128906 -3.148438 4.664062 -3.0625 4.125 -3.0625 L 4.21875 -3.21875 L 4.5625 -3.21875 C 4.863281 -3.21875 5.125 -3.144531 5.34375 -3 C 5.5625 -2.863281 5.75 -2.640625 5.90625 -2.328125 L 6.71875 -0.84375 C 6.800781 -0.6875 6.835938 -0.535156 6.828125 -0.390625 C 6.828125 -0.253906 6.773438 -0.140625 6.671875 -0.046875 C 6.578125 0.046875 6.429688 0.09375 6.234375 0.09375 C 6.035156 0.09375 5.875 0.0507812 5.75 -0.03125 C 5.632812 -0.113281 5.53125 -0.242188 5.4375 -0.421875 L 4.359375 -2.421875 C 4.222656 -2.660156 4.066406 -2.820312 3.890625 -2.90625 C 3.722656 -2.988281 3.5 -3.03125 3.21875 -3.03125 L 2.203125 -3.03125 L 2.203125 -0.625 C 2.203125 -0.40625 2.144531 -0.226562 2.03125 -0.09375 C 1.914062 0.03125 1.742188 0.09375 1.515625 0.09375 Z M 2.203125 -4.046875 L 3.875 -4.046875 C 4.375 -4.046875 4.75 -4.148438 5 -4.359375 C 5.257812 -4.566406 5.390625 -4.875 5.390625 -5.28125 C 5.390625 -5.675781 5.257812 -5.976562 5 -6.1875 C 4.75 -6.394531 4.375 -6.5 3.875 -6.5 L 2.203125 -6.5 Z M 2.203125 -4.046875 "/></g></g></g><g fill="#ffffff" fill-opacity="1"><g transform="translate(54.990988, 77.781246)"><g><path d="M 1.5625 0 C 1.320312 0 1.140625 -0.0625 1.015625 -0.1875 C 0.890625 -0.3125 0.828125 -0.492188 0.828125 -0.734375 L 0.828125 -6.84375 C 0.828125 -7.082031 0.890625 -7.265625 1.015625 -7.390625 C 1.140625 -7.515625 1.320312 -7.578125 1.5625 -7.578125 L 5.390625 -7.578125 C 5.578125 -7.578125 5.71875 -7.53125 5.8125 -7.4375 C 5.90625 -7.34375 5.953125 -7.210938 5.953125 -7.046875 C 5.953125 -6.859375 5.90625 -6.71875 5.8125 -6.625 C 5.71875 -6.53125 5.578125 -6.484375 5.390625 -6.484375 L 2.15625 -6.484375 L 2.15625 -4.390625 L 5.15625 -4.390625 C 5.34375 -4.390625 5.484375 -4.34375 5.578125 -4.25 C 5.671875 -4.164062 5.71875 -4.03125 5.71875 -3.84375 C 5.71875 -3.664062 5.671875 -3.53125 5.578125 -3.4375 C 5.484375 -3.34375 5.34375 -3.296875 5.15625 -3.296875 L 2.15625 -3.296875 L 2.15625 -1.09375 L 5.390625 -1.09375 C 5.578125 -1.09375 5.71875 -1.046875 5.8125 -0.953125 C 5.90625 -0.859375 5.953125 -0.722656 5.953125 -0.546875 C 5.953125 -0.367188 5.90625 -0.234375 5.8125 -0.140625 C 5.71875 -0.046875 5.578125 0 5.390625 0 Z M 1.5625 0 "/></g></g></g><g fill="#ffffff" fill-opacity="1"><g transform="translate(64.635053, 77.781246)"><g><path d="M 1.5625 0 C 1.320312 0 1.140625 -0.0625 1.015625 -0.1875 C 0.890625 -0.3125 0.828125 -0.492188 0.828125 -0.734375 L 0.828125 -6.84375 C 0.828125 -7.082031 0.890625 -7.265625 1.015625 -7.390625 C 1.140625 -7.515625 1.320312 -7.578125 1.5625 -7.578125 L 5.390625 -7.578125 C 5.578125 -7.578125 5.71875 -7.53125 5.8125 -7.4375 C 5.90625 -7.34375 5.953125 -7.210938 5.953125 -7.046875 C 5.953125 -6.859375 5.90625 -6.71875 5.8125 -6.625 C 5.71875 -6.53125 5.578125 -6.484375 5.390625 -6.484375 L 2.15625 -6.484375 L 2.15625 -4.390625 L 5.15625 -4.390625 C 5.34375 -4.390625 5.484375 -4.34375 5.578125 -4.25 C 5.671875 -4.164062 5.71875 -4.03125 5.71875 -3.84375 C 5.71875 -3.664062 5.671875 -3.53125 5.578125 -3.4375 C 5.484375 -3.34375 5.34375 -3.296875 5.15625 -3.296875 L 2.15625 -3.296875 L 2.15625 -1.09375 L 5.390625 -1.09375 C 5.578125 -1.09375 5.71875 -1.046875 5.8125 -0.953125 C 5.90625 -0.859375 5.953125 -0.722656 5.953125 -0.546875 C 5.953125 -0.367188 5.90625 -0.234375 5.8125 -0.140625 C 5.71875 -0.046875 5.578125 0 5.390625 0 Z M 1.5625 0 "/></g></g></g><g fill="#ffffff" fill-opacity="1"><g transform="translate(74.279117, 77.781246)"><g><path d="M 1.46875 0.09375 C 1.257812 0.09375 1.097656 0.0351562 0.984375 -0.078125 C 0.878906 -0.203125 0.828125 -0.367188 0.828125 -0.578125 L 0.828125 -6.984375 C 0.828125 -7.203125 0.878906 -7.367188 0.984375 -7.484375 C 1.097656 -7.609375 1.25 -7.671875 1.4375 -7.671875 C 1.59375 -7.671875 1.710938 -7.640625 1.796875 -7.578125 C 1.878906 -7.515625 1.976562 -7.410156 2.09375 -7.265625 L 6.21875 -1.921875 L 5.9375 -1.921875 L 5.9375 -7.015625 C 5.9375 -7.222656 5.988281 -7.382812 6.09375 -7.5 C 6.207031 -7.613281 6.367188 -7.671875 6.578125 -7.671875 C 6.785156 -7.671875 6.941406 -7.613281 7.046875 -7.5 C 7.160156 -7.382812 7.21875 -7.222656 7.21875 -7.015625 L 7.21875 -0.5625 C 7.21875 -0.363281 7.164062 -0.203125 7.0625 -0.078125 C 6.957031 0.0351562 6.820312 0.09375 6.65625 0.09375 C 6.488281 0.09375 6.351562 0.0625 6.25 0 C 6.15625 -0.0703125 6.050781 -0.179688 5.9375 -0.328125 L 1.84375 -5.671875 L 2.109375 -5.671875 L 2.109375 -0.578125 C 2.109375 -0.367188 2.050781 -0.203125 1.9375 -0.078125 C 1.832031 0.0351562 1.675781 0.09375 1.46875 0.09375 Z M 1.46875 0.09375 "/></g></g></g><g fill="#ffffff" fill-opacity="1"><g transform="translate(85.544229, 77.781246)"><g/></g></g><g fill="#ffffff" fill-opacity="1"><g transform="translate(91.688552, 77.781246)"><g><path d="M 4.46875 0.109375 C 3.632812 0.109375 2.925781 -0.046875 2.34375 -0.359375 C 1.769531 -0.679688 1.332031 -1.128906 1.03125 -1.703125 C 0.726562 -2.285156 0.578125 -2.972656 0.578125 -3.765625 C 0.578125 -4.367188 0.664062 -4.910156 0.84375 -5.390625 C 1.019531 -5.867188 1.273438 -6.28125 1.609375 -6.625 C 1.941406 -6.96875 2.347656 -7.226562 2.828125 -7.40625 C 3.304688 -7.59375 3.851562 -7.6875 4.46875 -7.6875 C 4.863281 -7.6875 5.265625 -7.632812 5.671875 -7.53125 C 6.078125 -7.4375 6.457031 -7.273438 6.8125 -7.046875 C 6.9375 -6.972656 7.015625 -6.878906 7.046875 -6.765625 C 7.085938 -6.648438 7.09375 -6.53125 7.0625 -6.40625 C 7.039062 -6.289062 6.988281 -6.191406 6.90625 -6.109375 C 6.832031 -6.023438 6.734375 -5.96875 6.609375 -5.9375 C 6.492188 -5.914062 6.363281 -5.945312 6.21875 -6.03125 C 5.945312 -6.1875 5.671875 -6.300781 5.390625 -6.375 C 5.117188 -6.445312 4.8125 -6.484375 4.46875 -6.484375 C 3.9375 -6.484375 3.484375 -6.375 3.109375 -6.15625 C 2.742188 -5.945312 2.46875 -5.640625 2.28125 -5.234375 C 2.101562 -4.835938 2.015625 -4.347656 2.015625 -3.765625 C 2.015625 -2.890625 2.226562 -2.222656 2.65625 -1.765625 C 3.082031 -1.304688 3.707031 -1.078125 4.53125 -1.078125 C 4.820312 -1.078125 5.113281 -1.101562 5.40625 -1.15625 C 5.695312 -1.21875 5.984375 -1.296875 6.265625 -1.390625 L 6 -0.78125 L 6 -3.078125 L 4.8125 -3.078125 C 4.632812 -3.078125 4.492188 -3.125 4.390625 -3.21875 C 4.296875 -3.3125 4.25 -3.4375 4.25 -3.59375 C 4.25 -3.757812 4.296875 -3.882812 4.390625 -3.96875 C 4.492188 -4.050781 4.632812 -4.09375 4.8125 -4.09375 L 6.59375 -4.09375 C 6.769531 -4.09375 6.90625 -4.046875 7 -3.953125 C 7.101562 -3.859375 7.15625 -3.71875 7.15625 -3.53125 L 7.15625 -0.921875 C 7.15625 -0.765625 7.125 -0.628906 7.0625 -0.515625 C 7 -0.410156 6.898438 -0.335938 6.765625 -0.296875 C 6.441406 -0.179688 6.078125 -0.0820312 5.671875 0 C 5.265625 0.0703125 4.863281 0.109375 4.46875 0.109375 Z M 4.46875 0.109375 "/></g></g></g><g fill="#ffffff" fill-opacity="1"><g transform="translate(102.824831, 77.781246)"><g><path d="M 0.90625 0.09375 C 0.726562 0.09375 0.585938 0.0507812 0.484375 -0.03125 C 0.378906 -0.113281 0.316406 -0.21875 0.296875 -0.34375 C 0.273438 -0.476562 0.300781 -0.628906 0.375 -0.796875 L 3.21875 -7.078125 C 3.3125 -7.285156 3.421875 -7.4375 3.546875 -7.53125 C 3.679688 -7.625 3.835938 -7.671875 4.015625 -7.671875 C 4.171875 -7.671875 4.316406 -7.625 4.453125 -7.53125 C 4.585938 -7.4375 4.703125 -7.285156 4.796875 -7.078125 L 7.640625 -0.796875 C 7.722656 -0.628906 7.753906 -0.476562 7.734375 -0.34375 C 7.710938 -0.207031 7.648438 -0.0976562 7.546875 -0.015625 C 7.441406 0.0546875 7.3125 0.09375 7.15625 0.09375 C 6.945312 0.09375 6.785156 0.046875 6.671875 -0.046875 C 6.566406 -0.148438 6.472656 -0.300781 6.390625 -0.5 L 5.6875 -2.125 L 6.265625 -1.75 L 1.734375 -1.75 L 2.3125 -2.125 L 1.625 -0.5 C 1.53125 -0.289062 1.429688 -0.140625 1.328125 -0.046875 C 1.234375 0.046875 1.09375 0.09375 0.90625 0.09375 Z M 3.984375 -6.078125 L 2.484375 -2.5 L 2.203125 -2.84375 L 5.796875 -2.84375 L 5.53125 -2.5 L 4.015625 -6.078125 Z M 3.984375 -6.078125 "/></g></g></g><g fill="#ffffff" fill-opacity="1"><g transform="translate(114.046993, 77.781246)"><g><path d="M 1.515625 0.09375 C 1.296875 0.09375 1.125 0.03125 1 -0.09375 C 0.882812 -0.226562 0.828125 -0.40625 0.828125 -0.625 L 0.828125 -6.875 C 0.828125 -7.101562 0.882812 -7.273438 1 -7.390625 C 1.125 -7.515625 1.300781 -7.578125 1.53125 -7.578125 L 4.125 -7.578125 C 4.945312 -7.578125 5.582031 -7.378906 6.03125 -6.984375 C 6.488281 -6.585938 6.71875 -6.03125 6.71875 -5.3125 C 6.71875 -4.84375 6.613281 -4.4375 6.40625 -4.09375 C 6.207031 -3.757812 5.910156 -3.503906 5.515625 -3.328125 C 5.128906 -3.148438 4.664062 -3.0625 4.125 -3.0625 L 4.21875 -3.21875 L 4.5625 -3.21875 C 4.863281 -3.21875 5.125 -3.144531 5.34375 -3 C 5.5625 -2.863281 5.75 -2.640625 5.90625 -2.328125 L 6.71875 -0.84375 C 6.800781 -0.6875 6.835938 -0.535156 6.828125 -0.390625 C 6.828125 -0.253906 6.773438 -0.140625 6.671875 -0.046875 C 6.578125 0.046875 6.429688 0.09375 6.234375 0.09375 C 6.035156 0.09375 5.875 0.0507812 5.75 -0.03125 C 5.632812 -0.113281 5.53125 -0.242188 5.4375 -0.421875 L 4.359375 -2.421875 C 4.222656 -2.660156 4.066406 -2.820312 3.890625 -2.90625 C 3.722656 -2.988281 3.5 -3.03125 3.21875 -3.03125 L 2.203125 -3.03125 L 2.203125 -0.625 C 2.203125 -0.40625 2.144531 -0.226562 2.03125 -0.09375 C 1.914062 0.03125 1.742188 0.09375 1.515625 0.09375 Z M 2.203125 -4.046875 L 3.875 -4.046875 C 4.375 -4.046875 4.75 -4.148438 5 -4.359375 C 5.257812 -4.566406 5.390625 -4.875 5.390625 -5.28125 C 5.390625 -5.675781 5.257812 -5.976562 5 -6.1875 C 4.75 -6.394531 4.375 -6.5 3.875 -6.5 L 2.203125 -6.5 Z M 2.203125 -4.046875 "/></g></g></g><g fill="#ffffff" fill-opacity="1"><g transform="translate(124.646506, 77.781246)"><g><path d="M 1.5625 0 C 1.320312 0 1.140625 -0.0625 1.015625 -0.1875 C 0.890625 -0.3125 0.828125 -0.492188 0.828125 -0.734375 L 0.828125 -6.84375 C 0.828125 -7.082031 0.890625 -7.265625 1.015625 -7.390625 C 1.140625 -7.515625 1.320312 -7.578125 1.5625 -7.578125 L 3.640625 -7.578125 C 4.910156 -7.578125 5.890625 -7.25 6.578125 -6.59375 C 7.273438 -5.945312 7.625 -5.015625 7.625 -3.796875 C 7.625 -3.179688 7.535156 -2.640625 7.359375 -2.171875 C 7.179688 -1.703125 6.921875 -1.304688 6.578125 -0.984375 C 6.242188 -0.660156 5.828125 -0.414062 5.328125 -0.25 C 4.835938 -0.0820312 4.273438 0 3.640625 0 Z M 2.203125 -1.140625 L 3.5625 -1.140625 C 4 -1.140625 4.378906 -1.191406 4.703125 -1.296875 C 5.035156 -1.410156 5.3125 -1.578125 5.53125 -1.796875 C 5.75 -2.015625 5.910156 -2.289062 6.015625 -2.625 C 6.128906 -2.957031 6.1875 -3.347656 6.1875 -3.796875 C 6.1875 -4.679688 5.96875 -5.34375 5.53125 -5.78125 C 5.09375 -6.21875 4.4375 -6.4375 3.5625 -6.4375 L 2.203125 -6.4375 Z M 2.203125 -1.140625 "/></g></g></g><g fill="#ffffff" fill-opacity="1"><g transform="translate(136.061908, 77.781246)"><g><path d="M 1.5625 0 C 1.320312 0 1.140625 -0.0625 1.015625 -0.1875 C 0.890625 -0.3125 0.828125 -0.492188 0.828125 -0.734375 L 0.828125 -6.84375 C 0.828125 -7.082031 0.890625 -7.265625 1.015625 -7.390625 C 1.140625 -7.515625 1.320312 -7.578125 1.5625 -7.578125 L 5.390625 -7.578125 C 5.578125 -7.578125 5.71875 -7.53125 5.8125 -7.4375 C 5.90625 -7.34375 5.953125 -7.210938 5.953125 -7.046875 C 5.953125 -6.859375 5.90625 -6.71875 5.8125 -6.625 C 5.71875 -6.53125 5.578125 -6.484375 5.390625 -6.484375 L 2.15625 -6.484375 L 2.15625 -4.390625 L 5.15625 -4.390625 C 5.34375 -4.390625 5.484375 -4.34375 5.578125 -4.25 C 5.671875 -4.164062 5.71875 -4.03125 5.71875 -3.84375 C 5.71875 -3.664062 5.671875 -3.53125 5.578125 -3.4375 C 5.484375 -3.34375 5.34375 -3.296875 5.15625 -3.296875 L 2.15625 -3.296875 L 2.15625 -1.09375 L 5.390625 -1.09375 C 5.578125 -1.09375 5.71875 -1.046875 5.8125 -0.953125 C 5.90625 -0.859375 5.953125 -0.722656 5.953125 -0.546875 C 5.953125 -0.367188 5.90625 -0.234375 5.8125 -0.140625 C 5.71875 -0.046875 5.578125 0 5.390625 0 Z M 1.5625 0 "/></g></g></g><g fill="#ffffff" fill-opacity="1"><g transform="translate(145.705972, 77.781246)"><g><path d="M 1.46875 0.09375 C 1.257812 0.09375 1.097656 0.0351562 0.984375 -0.078125 C 0.878906 -0.203125 0.828125 -0.367188 0.828125 -0.578125 L 0.828125 -6.984375 C 0.828125 -7.203125 0.878906 -7.367188 0.984375 -7.484375 C 1.097656 -7.609375 1.25 -7.671875 1.4375 -7.671875 C 1.59375 -7.671875 1.710938 -7.640625 1.796875 -7.578125 C 1.878906 -7.515625 1.976562 -7.410156 2.09375 -7.265625 L 6.21875 -1.921875 L 5.9375 -1.921875 L 5.9375 -7.015625 C 5.9375 -7.222656 5.988281 -7.382812 6.09375 -7.5 C 6.207031 -7.613281 6.367188 -7.671875 6.578125 -7.671875 C 6.785156 -7.671875 6.941406 -7.613281 7.046875 -7.5 C 7.160156 -7.382812 7.21875 -7.222656 7.21875 -7.015625 L 7.21875 -0.5625 C 7.21875 -0.363281 7.164062 -0.203125 7.0625 -0.078125 C 6.957031 0.0351562 6.820312 0.09375 6.65625 0.09375 C 6.488281 0.09375 6.351562 0.0625 6.25 0 C 6.15625 -0.0703125 6.050781 -0.179688 5.9375 -0.328125 L 1.84375 -5.671875 L 2.109375 -5.671875 L 2.109375 -0.578125 C 2.109375 -0.367188 2.050781 -0.203125 1.9375 -0.078125 C 1.832031 0.0351562 1.675781 0.09375 1.46875 0.09375 Z M 1.46875 0.09375 "/></g></g></g></svg>